<svg width="375" height="529" fill="none" xmlns="http://www.w3.org/2000/svg"><path opacity=".8" d="M344.249 461.455l-39.115-39.115a6.138 6.138 0 00-8.68 0l-39.115 39.115a6.138 6.138 0 000 8.679l39.115 39.115a6.138 6.138 0 008.68 0l39.115-39.115a6.138 6.138 0 000-8.679z" stroke="#CE2329" stroke-width="3.269"/><path d="M358.625 172.206L207.632 21.213c-11.716-11.716-30.711-11.716-42.426 0L14.213 172.206c-11.716 11.716-11.716 30.711 0 42.426l150.993 150.993c11.715 11.716 30.71 11.716 42.426 0l150.993-150.993c11.716-11.715 11.716-30.71 0-42.426z" fill="#3B3535"/><path opacity=".8" d="M238.398 387.755l-98.865-98.865c-7.671-7.671-20.108-7.671-27.779 0l-98.865 98.865c-7.671 7.671-7.671 20.108 0 27.779l98.865 98.865c7.671 7.671 20.108 7.671 27.779 0l98.865-98.865c7.671-7.671 7.671-20.108 0-27.779z" fill="#CE2329"/><path opacity=".8" d="M306.249 56.455L267.134 17.34a6.138 6.138 0 00-8.68 0l-39.115 39.115a6.139 6.139 0 000 8.679l39.115 39.115a6.138 6.138 0 008.68 0l39.115-39.115a6.138 6.138 0 000-8.68z" stroke="#CE2329" stroke-width="3.269"/></svg>