<?xml version="1.0" standalone="no"?>
  <!DOCTYPE svg PUBLIC "-//W3C//DTD SVG 1.1//EN" "http://www.w3.org/Graphics/SVG/1.1/DTD/svg11.dtd" >
  <svg>
  <metadata>
  Created by font-carrier
  </metadata>
  <defs>
  <font id="Archive" horiz-adv-x="1243" vert-adv-y="1243" >
    <font-face
      
      font-family="Archive"
      
      font-weight="400"
      
      font-stretch="normal"
      
      units-per-em="1000"
      
      ascent="750"
      
      descent="-250"
      
    />
      <missing-glyph />

      

      
      <glyph glyph-name="uni21" unicode="&#x21;" d="M141 207Q123 207 118.50 212Q114 217 112 236Q84 501 71 620Q69 636 69 637Q69 649 75.50 653.50Q82 658 98 658L232 658Q249 658 255.50 654Q262 650 262 637Q262 636 260 619Q247 498 218 236Q216 216 211.50 211.50Q207 207 190 207L141 207M221 169Q250 169 250 140L250 29Q250 0 221 0L110 0Q81 0 81 29L81 140Q81 169 110 169L221 169Z"  horiz-adv-x="322" vert-adv-y="1000"  />

      
      <glyph glyph-name="uni22" unicode="&#x22;" d="M155 658Q184 658 184 629L184 403Q184 374 155 374L86 374Q57 374 57 403L57 629Q57 658 86 658L155 658M357 658Q385 658 385 629L385 403Q385 374 357 374L287 374Q259 374 259 403L259 629Q259 658 287 658L357 658Z"  horiz-adv-x="443" vert-adv-y="1000"  />

      
      <glyph glyph-name="uni23" unicode="&#x23;" d="M591 483Q606 483 608.50 476Q611 469 609 456L602 398Q598 374 576 374L518 374L512 329L506 284L564 284Q579 284 581.50 277Q584 270 582 257L575 199Q571 175 549 175L491 175L469 28Q466 0 439 0L366 0Q341 0 346 32L368 175L250 175L228 28Q225 0 198 0L125 0Q102 0 104 32L126 175L68 175Q46 175 50 203L58 260Q61 284 83 284L141 284L153 374L95 374Q73 374 77 402L85 459Q88 483 110 483L168 483L190 631Q193 658 220 658L293 658Q316 658 314 626L292 483L410 483L432 631Q435 658 461 658L535 658Q560 658 555 626L533 483L591 483M383 284L394 374L277 374L265 284L383 284Z"  horiz-adv-x="658" vert-adv-y="1000"  />

      
      <glyph glyph-name="uni24" unicode="&#x24;" d="M394 381Q427 371 441.50 366Q456 361 486.50 345Q517 329 531.50 312Q546 295 559 264Q572 233 572 194Q572 107 518.50 54.50Q465 2 373-11L373-87Q373-116 344-116L266-116Q237-116 237-87L237-9Q152 9 94.50 62Q37 115 37 196Q37 213 43 218.50Q49 224 66 224L163 224Q182 224 190 219Q198 214 199 196Q201 175 218 155Q245 122 316 122Q362 122 388 136.50Q414 151 414 190Q414 206 405 217.50Q396 229 377 236.50Q358 244 339 248.50Q320 253 290 260.50Q260 268 240 274Q195 288 166 301.50Q137 315 106.50 337.50Q76 360 61 393.50Q46 427 46 473Q46 553 99.50 602Q153 651 237 666L237 743Q237 772 266 772L344 772Q373 772 373 743L373 663Q452 647 503.50 601Q555 555 555 482Q555 464 549.50 459Q544 454 526 454L428 454Q425 454 422 454.50Q419 455 416.50 456Q414 457 412 459Q410 461 409 462.50Q408 464 406.50 467Q405 470 404.50 471.50Q404 473 402.50 476.50Q401 480 401 481Q395 497 380 511Q352 538 295 538Q263 538 235 524Q207 510 207 480Q207 453 241 433.50Q275 414 333 398Q391 382 394 381Z"  horiz-adv-x="605" vert-adv-y="1000"  />

      
      <glyph glyph-name="uni25" unicode="&#x25;" d="M587.50 332Q587.50 332 608.75 350.50Q630 369 690 369Q750 369 792.50 332Q835 295 835 237L835 149Q835 90 792.50 53Q750 16 690 16Q630 16 587.50 53Q545 90 545 149L545 237Q545 295 587.50 332M729 152L729 234Q729 251 718 264.50Q707 278 690 278Q674 278 663 264.50Q652 251 652 234L652 152Q652 135 663 121.50Q674 108 690 108Q707 108 718 121.50Q729 135 729 152M660 698Q673 698 677 689.50Q681 681 676 672L325 30Q309 0 288 0L230 0Q217 0 213 8.50Q209 17 214 26L566 668Q580 698 602 698L660 698M345 460Q345 402 302.50 365Q260 328 200 328Q140 328 97.50 365Q55 402 55 460L55 548Q55 607 97.50 644Q140 681 200 681Q260 681 302.50 644Q345 607 345 548L345 460M238 463L238 545Q238 562 227 575.50Q216 589 200 589Q183 589 172 575.50Q161 562 161 545L161 463Q161 446 172 432.50Q183 419 200 419Q216 419 227 432.50Q238 446 238 463Z"  horiz-adv-x="890" vert-adv-y="1000"  />

      
      <glyph glyph-name="uni26" unicode="&#x26;" d="M715 33Q724 23 718.50 11.50Q713 0 699 0L588 0Q567 0 545 20L494 69Q416-13 296-15Q186-15 117.50 43.50Q49 102 49 202Q49 273 95.50 322Q142 371 201 385L72 523Q65 532 65 543L65 629Q65 658 94 658L125 658L476 658Q505 658 505 629L505 548Q505 519 476 519L269 519L473 297Q481 311 489.50 324Q498 337 504.50 346Q511 355 512 357Q523 374 541 374L652 374Q679 374 666 346L574 188L715 33M293 123Q318 123 349 135.50Q380 148 399 172L298 281Q198 278 198 201Q198 164 227 143.50Q256 123 293 123Z"  horiz-adv-x="721" vert-adv-y="1000"  />

      
      <glyph glyph-name="uni27" unicode="&#x27;" d="M155 658Q183 658 183 629L183 403Q183 374 155 374L85 374Q57 374 57 403L57 629Q57 658 85 658L155 658Z"  horiz-adv-x="241" vert-adv-y="1000"  />

      
      <glyph glyph-name="uni28" unicode="&#x28;" d="M216 261Q217 56 303-126Q307-134 303.50-142.50Q300-151 289-151L182-151Q164-151 155-131Q66 57 66 261Q66 466 155 654Q164 674 182 674L289 674Q300 674 303.50 665.50Q307 657 303 649Q217 467 216 261Z"  horiz-adv-x="357" vert-adv-y="1000"  />

      
      <glyph glyph-name="uni29" unicode="&#x29;" d="M141 261Q140 467 54 649Q50 657 53.50 665.50Q57 674 68 674L175 674Q193 674 202 654Q291 466 291 261Q291 57 202-131Q193-151 175-151L68-151Q57-151 53.50-142.50Q50-134 54-126Q140 56 141 261Z"  horiz-adv-x="357" vert-adv-y="1000"  />

      
      <glyph glyph-name="uni2a" unicode="&#x2a;" d="M434 502Q443 474 416 466L318 439L381 359Q399 336 375 319L339 293Q316 276 298 299L242 384L186 299Q169 276 146 293L110 319Q86 336 104 359L167 439L69 466Q42 474 51 502L64 544Q73 571 101 563L196 527L191 629Q191 658 220 658L264 658Q293 658 293 629L289 527L384 563Q412 571 421 544L434 502Z"  horiz-adv-x="491" vert-adv-y="1000"  />

      
      <glyph glyph-name="uni2b" unicode="&#x2b;" d="M483 383Q512 383 512 354L512 276Q512 247 483 247L349 247L349 113Q349 84 320 84L242 84Q213 84 213 113L213 247L78 247Q49 247 49 276L49 354Q49 383 78 383L213 383L213 517Q213 546 242 546L320 546Q349 546 349 517L349 383L483 383Z"  horiz-adv-x="556" vert-adv-y="1000"  />

      
      <glyph glyph-name="uni2c" unicode="&#x2c;" d="M206 169Q235 169 235 140L235 50Q235 22 228 3L171-113Q160-131 144-131L80-131Q70-131 67.50-122Q65-113 70-103L125 0L95 0Q66 0 66 29L66 140Q66 169 95 169L206 169Z"  horiz-adv-x="301" vert-adv-y="1000"  />

      
      <glyph glyph-name="uni2d" unicode="&#x2d;" d="M353 335Q382 335 382 306L382 228Q382 199 353 199L81 199Q52 199 52 228L52 306Q52 335 81 335L353 335Z"  horiz-adv-x="434" vert-adv-y="1000"  />

      
      <glyph glyph-name="uni2e" unicode="&#x2e;" d="M197 169Q226 169 226 140L226 29Q226 0 197 0L86 0Q57 0 57 29L57 140Q57 169 86 169L197 169Z"  horiz-adv-x="283" vert-adv-y="1000"  />

      
      <glyph glyph-name="uni2f" unicode="&#x2f;" d="M284 693L369 693Q386 693 390.50 684Q395 675 392 665L153 27Q142 0 122 0L36 0Q19 0 14.50 9Q10 18 13 28L253 666Q264 693 284 693Z"  horiz-adv-x="401" vert-adv-y="1000"  />

      
      <glyph glyph-name="uni30" unicode="&#x30;" d="M299 673Q394 673 471.50 614Q549 555 549 446L549 212Q549 103 471.50 44Q394-15 299-15Q256-15 213.50-1.50Q171 12 133.50 38.50Q96 65 73 110Q50 155 50 212L50 446Q50 503 73 548Q96 593 133.50 619.50Q171 646 213.50 659.50Q256 673 299 673M403 234L403 424Q403 472 374 502.50Q345 533 299 533Q253 533 224.50 502.50Q196 472 196 424L196 234Q196 186 224.50 155.50Q253 125 299 125Q345 125 374 155.50Q403 186 403 234Z"  horiz-adv-x="599" vert-adv-y="1000"  />

      
      <glyph glyph-name="uni31" unicode="&#x31;" d="M405 140Q434 140 434 111L434 29Q434 0 405 0L95 0Q66 0 66 29L66 111Q66 140 95 140L180 140L180 408L95 408Q66 408 66 437L66 518Q66 547 95 547L117 547Q130 547 142.50 551.50Q155 556 167.50 576.50Q180 597 180 631Q181 657 209 657L306 657Q334 657 335 631L335 628L335 140L405 140Z"  horiz-adv-x="492" vert-adv-y="1000"  />

      
      <glyph glyph-name="uni32" unicode="&#x32;" d="M484 140Q513 140 513 111L513 29Q513 0 484 0L70 0Q53 0 48 5.50Q43 11 43 29L43 103Q43 131 61 145Q146 220 243 302Q286 339 307 358.50Q328 378 349 408.50Q370 439 370 463Q370 500 346.50 518.50Q323 537 285 537Q244 537 214 507.50Q184 478 184 435Q184 407 158 407L70 407Q55 407 49 413.50Q43 420 43 437Q43 554 111.50 613Q180 672 284 672Q378 672 450 612.50Q522 553 522 464Q522 417 502 374.50Q482 332 462.50 311.50Q443 291 405 256L273 140L484 140Z"  horiz-adv-x="559" vert-adv-y="1000"  />

      
      <glyph glyph-name="uni33" unicode="&#x33;" d="M365 385Q424 371 470.50 323Q517 275 517 203Q517 100 446 43Q375-14 268-15Q172-15 100 40Q28 95 28 174Q28 193 33.50 198.50Q39 204 56 204L145 204Q157 204 162 199.50Q167 195 170 182Q180 150 211 136.50Q242 123 274 123Q310 123 339 144Q368 165 368 202Q368 281 262 281L217 281Q200 281 195 286.50Q190 292 190 310L190 374Q190 394 202 408L307 518L90 518Q61 518 61 547L61 628Q61 657 90 657L472 657Q501 657 501 628L501 547Q501 532 490 518L365 385Z"  horiz-adv-x="562" vert-adv-y="1000"  />

      
      <glyph glyph-name="uni34" unicode="&#x34;" d="M546 269Q575 269 575 240L575 158Q575 129 546 129L486 129L486 29Q486 0 457 0L363 0Q334 0 334 29L334 129L55 129Q26 129 26 158L26 240Q26 254 41 275L328 641Q343 659 358 659L457 659Q486 659 486 630L486 269L546 269M334 269L334 457L190 269L334 269Z"  horiz-adv-x="614" vert-adv-y="1000"  />

      
      <glyph glyph-name="uni35" unicode="&#x35;" d="M290 425Q386 425 449 364Q512 303 512 206Q512 104 438 44.50Q364-15 265-15Q169-15 98.50 40.50Q28 96 28 175Q28 193 33 198.50Q38 204 55 204L145 204Q158 204 162.50 200.50Q167 197 169 185Q178 156 204.50 140Q231 124 265 124Q313 124 339.50 149.50Q366 175 366 216Q366 253 337 279.50Q308 306 267 306Q234 306 213.50 297Q193 288 167 269Q161 265 145 265L63 265Q47 265 41.50 270.50Q36 276 36 295L61 628Q62 643 68 650Q74 657 89 657L444 657Q473 657 473 628L473 546Q473 517 444 517L196 517L187 400Q227 425 290 425Z"  horiz-adv-x="561" vert-adv-y="1000"  />

      
      <glyph glyph-name="uni36" unicode="&#x36;" d="M39 216Q39 261 55 310Q72 359 121 435L245 629Q262 657 293 657L420 657Q433 657 437 646.50Q441 636 433 626L299 438Q323 442 335 442Q423 442 487.50 380.50Q552 319 552 230Q552 129 477.50 57Q403-15 297-15Q233-15 175 12Q117 39 78 93Q39 147 39 216M221 294Q221 294 206 279.50Q191 265 191 223Q191 181 221 151.50Q251 122 294 122Q337 122 367.50 151.50Q398 181 398 223Q398 265 367.50 294Q337 323 294 323Q251 323 221 294Z"  horiz-adv-x="593" vert-adv-y="1000"  />

      
      <glyph glyph-name="uni37" unicode="&#x37;" d="M476 657Q505 657 505 628L505 550Q505 540 502.50 529.50Q500 519 497 514L494 509L261 30Q247 0 221 0L94 0Q82 0 79 8Q76 16 83 30L335 516L90 516Q61 516 61 545L61 628Q61 657 90 657L476 657Z"  horiz-adv-x="539" vert-adv-y="1000"  />

      
      <glyph glyph-name="uni38" unicode="&#x38;" d="M545 189Q545 100 478 43Q411-14 290-14Q168-14 101 43Q34 100 34 189Q34 290 144 348Q104 372 80.50 409Q57 446 57 488Q57 566 118 618.50Q179 671 290 671Q400 671 461 618.50Q522 566 522 488Q522 446 498.50 409Q475 372 435 348Q545 291 545 189M357 141Q357 141 371 152.50Q385 164 385 198Q385 232 357 255Q329 278 290 278Q250 278 222.50 255Q195 232 195 198Q195 164 222.50 141Q250 118 290 118Q329 118 357 141M213 483Q213 460 232 437.50Q251 415 290 415Q328 415 347.50 437.50Q367 460 367 483Q367 513 344.50 533.50Q322 554 290 554Q258 554 235.50 533.50Q213 513 213 483Z"  horiz-adv-x="585" vert-adv-y="1000"  />

      
      <glyph glyph-name="uni39" unicode="&#x39;" d="M552 441Q552 396 536 347Q519 298 470 222L346 28Q329 0 298 0L171 0Q158 0 154 10.50Q150 21 158 31L292 219Q268 215 256 215Q168 215 103.50 276.50Q39 338 39 427Q39 528 113.50 600Q188 672 294 672Q358 672 416 645Q474 618 513 564Q552 510 552 441M370 363Q370 363 385 377.50Q400 392 400 434Q400 476 370 505.50Q340 535 297 535Q254 535 223.50 505.50Q193 476 193 434Q193 392 223.50 363Q254 334 297 334Q340 334 370 363Z"  horiz-adv-x="591" vert-adv-y="1000"  />

      
      <glyph glyph-name="uni3a" unicode="&#x3a;" d="M220 169Q249 169 249 140L249 29Q249 0 220 0L109 0Q80 0 80 29L80 140Q80 169 109 169L220 169M220 445Q249 445 249 416L249 305Q249 276 220 276L109 276Q80 276 80 305L80 416Q80 445 109 445L220 445Z"  horiz-adv-x="306" vert-adv-y="1000"  />

      
      <glyph glyph-name="uni3b" unicode="&#x3b;" d="M221 445Q240 445 246 438.50Q252 432 252 411L252 308Q252 288 246 282Q240 276 221 276L114 276Q95 276 89 282Q83 288 83 308L83 411Q83 432 89 438.50Q95 445 114 445L221 445M223 169Q252 169 252 140L252 49Q252 22 245 3L188-113Q178-131 161-131L97-131Q87-131 84.50-122.50Q82-114 88-104L142 0L112 0Q83 0 83 29L83 140Q83 169 112 169L223 169Z"  horiz-adv-x="309" vert-adv-y="1000"  />

      
      <glyph glyph-name="uni3c" unicode="&#x3c;" d="M75 314L481 474Q513 487 513 458L513 368Q513 356 507 348Q501 340 497.50 338Q494 336 483 332L228 239L483 146Q506 136 511 124Q513 118 513 110L513 21Q513-9 481 4L75 164Q53 173 53 205L53 273Q53 305 75 314Z"  horiz-adv-x="566" vert-adv-y="1000"  />

      
      <glyph glyph-name="uni3d" unicode="&#x3d;" d="M482 271Q511 271 511 242L511 164Q511 135 482 135L78 135Q49 135 49 164L49 242Q49 271 78 271L482 271M482 507Q511 507 511 478L511 400Q511 371 482 371L78 371Q49 371 49 400L49 478Q49 507 78 507L482 507Z"  horiz-adv-x="561" vert-adv-y="1000"  />

      
      <glyph glyph-name="uni3e" unicode="&#x3e;" d="M85 474L491 314Q513 305 513 273L513 205Q513 173 491 164L85 4Q53-9 53 21L53 110Q53 122 59 130Q65 138 68.50 140Q72 142 83 146L338 239L83 332Q60 342 55 354Q53 360 53 368L53 458Q53 487 85 474Z"  horiz-adv-x="566" vert-adv-y="1000"  />

      
      <glyph glyph-name="uni3f" unicode="&#x3f;" d="M516 489Q516 457 500.50 428.50Q485 400 469.50 385.50Q454 371 429 353Q405 337 392 326Q379 315 365.50 292Q352 269 352 243Q352 225 345.50 218Q339 211 320 211L237 211Q205 211 205 243Q205 336 258 390Q271 403 297.50 418.50Q324 434 339.50 448.50Q355 463 355 483Q355 507 334.50 522.50Q314 538 286 538Q251 538 229 518.50Q207 499 201 475Q199 465 197 459.50Q195 454 188 449Q181 444 170 444L70 444Q59 444 56 450.50Q53 457 53 475Q56 508 69 539.50Q82 571 107 602.50Q132 634 178 653Q224 672 285 672Q381 672 448.50 625Q516 578 516 489M331 169Q360 169 360 140L360 29Q360 0 331 0L220 0Q191 0 191 29L191 140Q191 169 220 169L331 169Z"  horiz-adv-x="546" vert-adv-y="1000"  />

      
      <glyph glyph-name="uni40" unicode="&#x40;" d="M691 0L606 0Q576 0 576 23L576 33Q536-2 481-2Q415-2 373 37Q345 64 337.50 100Q330 136 330 205Q330 272 337.50 304Q345 336 373 364Q415 404 480 404Q532 404 571 373L571 395Q571 449 545 475Q518 502 464 502L360 502Q299 502 272 475Q246 449 246 395L246 174Q246 137 263 116Q268 109 265 98.50Q262 88 253 80L179 25Q173 20 161 20.50Q149 21 143 28Q101 82 101 165L101 400Q101 463 113 506.50Q125 550 158 583Q215 640 350 640L474 640Q601 640 658 583Q691 550 703 506.50Q715 463 715 400L715 30Q715 20 709.50 10Q704 0 691 0M571 173L571 223Q571 250 553.50 267Q536 284 510 284Q485 284 468.50 267Q452 250 452 223L452 173Q452 147 468.50 130Q485 113 510 113Q536 113 553.50 130Q571 147 571 173Z"  horiz-adv-x="833" vert-adv-y="1000"  />

      
      <glyph glyph-name="uni41" unicode="&#x41;" d="M640 28Q652 0 623 0L518 0Q501 0 493.50 6Q486 12 480 30L452 109L207 109L179 30Q173 12 165.50 6Q158 0 141 0L36 0Q7 0 19 28L241 627Q253 658 282 658L378 658Q406 658 419 627L640 28M255 249L405 249L330 470L255 249Z"  horiz-adv-x="655" vert-adv-y="1000"  />

      
      <glyph glyph-name="uni42" unicode="&#x42;" d="M543 341Q548 339 556 335Q564 331 578.50 318.50Q593 306 605 290.50Q617 275 626 248.50Q635 222 635 192Q635 99 570 49.50Q505 0 397 0L103 0Q74 0 74 29L74 630Q74 659 103 659L383 659Q498 659 557 607Q616 555 616 478Q616 443 606.50 415.50Q597 388 582.50 372.50Q568 357 559 350.50Q550 344 543 341M399 142Q476 142 476 207Q476 268 393 268L370 268Q341 268 341 297L341 373Q341 402 370 402L383 402Q466 402 466 462Q466 494 445.50 506Q425 518 383 518L231 518L231 142L399 142Z"  horiz-adv-x="687" vert-adv-y="1000"  />

      
      <glyph glyph-name="uni43" unicode="&#x43;" d="M581 195Q581 103 500.50 44Q420-15 321-15Q274-15 228.50-1.50Q183 12 143 38.50Q103 65 78 110Q53 155 53 211L53 447Q53 503 78 548Q103 593 143 619.50Q183 646 228.50 659.50Q274 673 321 673Q421 673 496.50 623Q572 573 581 483Q581 465 574.50 459.50Q568 454 550 454L454 454Q445 454 439.50 458.50Q434 463 430 472.50Q426 482 424 485Q393 533 321 533Q271 533 240.50 506.50Q210 480 210 433L210 225Q210 178 240.50 151.50Q271 125 321 125Q415 125 426 193Q428 206 429.50 212Q431 218 437 223.50Q443 229 453 229L551 229Q581 229 581 195Z"  horiz-adv-x="632" vert-adv-y="1000"  />

      
      <glyph glyph-name="uni44" unicode="&#x44;" d="M327 658Q391 658 450 635.50Q509 613 552.50 559.50Q596 506 596 433L596 225Q596 151 552.50 98Q509 45 450 22.50Q391 0 327 0L103 0Q74 0 74 29L74 629Q74 658 103 658L327 658M439 239L439 419Q439 466 408 492.50Q377 519 327 519L231 519L231 139L327 139Q378 139 408.50 165.50Q439 192 439 239Z"  horiz-adv-x="650" vert-adv-y="1000"  />

      
      <glyph glyph-name="uni45" unicode="&#x45;" d="M551 140Q580 140 580 111L580 29Q580 0 551 0L103 0Q74 0 74 29L74 629Q74 658 103 658L534 658Q563 658 563 629L563 546Q563 517 534 517L232 517L232 408L500 408Q529 408 529 379L529 301Q529 272 500 272L232 272L232 140L551 140Z"  horiz-adv-x="627" vert-adv-y="1000"  />

      
      <glyph glyph-name="uni46" unicode="&#x46;" d="M533 658Q562 658 562 629L562 547Q562 518 533 518L231 518L231 401L491 401Q520 401 520 372L520 293Q520 264 491 264L231 264L231 30Q231 11 225.50 5.50Q220 0 202 0L103 0Q74 0 74 29L74 629Q74 658 103 658L533 658Z"  horiz-adv-x="602" vert-adv-y="1000"  />

      
      <glyph glyph-name="uni47" unicode="&#x47;" d="M563 367Q592 367 592 338L592 193Q588 125 543.50 76Q499 27 441.50 6Q384-15 323-15Q276-15 230.50-2.50Q185 10 144.50 34.50Q104 59 79 102.50Q54 146 54 202L54 448Q54 505 79 549.50Q104 594 144.50 620Q185 646 231 659.50Q277 673 323 673Q426 673 509 617Q592 561 592 467Q592 449 586.50 444Q581 439 563 439L466 439Q456 439 450 442.50Q444 446 442.50 450Q441 454 439.50 462Q438 470 437 473Q428 499 399 516.50Q370 534 323 534Q274 534 243.50 504Q213 474 213 426L213 225Q213 178 243 151Q273 124 323 124Q434 124 434 231L344 231Q315 231 315 260L315 338Q315 367 344 367L563 367Z"  horiz-adv-x="646" vert-adv-y="1000"  />

      
      <glyph glyph-name="uni48" unicode="&#x48;" d="M582 658Q611 658 611 629L611 29Q611 0 582 0L483 0Q454 0 454 29L454 255L231 255L231 29Q231 12 224 6Q217 0 202 0L103 0Q74 0 74 29L74 629Q74 658 103 658L202 658Q217 658 224 652Q231 646 231 629L231 403L454 403L454 629Q454 658 483 658L582 658Z"  horiz-adv-x="685" vert-adv-y="1000"  />

      
      <glyph glyph-name="uni49" unicode="&#x49;" d="M360 137Q389 137 389 108L389 29Q389 0 360 0L77 0Q48 0 48 29L48 108Q48 137 77 137L140 137L140 519L79 519Q50 519 50 548L50 629Q50 658 79 658L357 658Q386 658 386 629L386 548Q386 519 357 519L297 519L297 137L360 137Z"  horiz-adv-x="444" vert-adv-y="1000"  />

      
      <glyph glyph-name="uni4a" unicode="&#x4a;" d="M484 674Q513 674 513 645L513 215Q513 107 439.50 53.50Q366 0 265 0Q161 0 95.50 57Q30 114 30 216Q30 243 54 243L160 243Q185 243 185 222Q189 139 265 139Q356 139 356 237L356 533L181 533Q152 533 152 562L152 645Q152 674 181 674L484 674Z"  horiz-adv-x="580" vert-adv-y="1000"  />

      
      <glyph glyph-name="uni4b" unicode="&#x4b;" d="M622 658Q635 658 637.50 647.50Q640 637 632 630L407 386L622 32Q629 22 624.50 11Q620 0 607 0L485 0Q455 0 435 32Q346 182 292 272L230 207L230 29Q230 0 202 0L103 0Q88 0 81 6Q74 12 74 29L74 629Q74 646 81 652Q88 658 103 658L202 658Q230 658 230 629L230 406L437 634Q452 650 460.50 654Q469 658 487 658L622 658Z"  horiz-adv-x="654" vert-adv-y="1000"  />

      
      <glyph glyph-name="uni4c" unicode="&#x4c;" d="M519 140Q548 140 548 111L548 29Q548 0 519 0L103 0Q74 0 74 29L74 629Q74 658 103 658L202 658Q231 658 231 629L231 140L519 140Z"  horiz-adv-x="582" vert-adv-y="1000"  />

      
      <glyph glyph-name="uni4d" unicode="&#x4d;" d="M664 659Q693 659 693 630L693 29Q693 0 664 0L568 0Q539 0 539 29L539 368L439 193Q426 172 410 172L360 172Q345 172 332 193L231 368L231 29Q231 0 202 0L103 0Q74 0 74 29L74 630Q74 659 103 659L202 659Q214 659 222.50 655Q231 651 234.50 647Q238 643 242.50 634.50Q247 626 248 625L385 379L523 625Q524 626 527 632.50Q530 639 532.50 642.50Q535 646 539.50 650.50Q544 655 551.50 657Q559 659 568 659L664 659Z"  horiz-adv-x="767" vert-adv-y="1000"  />

      
      <glyph glyph-name="uni4e" unicode="&#x4e;" d="M579 658Q608 658 608 629L608 29Q608 0 579 0L488 0Q476 0 467.50 5.50Q459 11 455.50 15Q452 19 443 34L231 377L231 29Q231 0 202 0L103 0Q74 0 74 29L74 629Q74 658 103 658L197 658Q209 658 217.50 652.50Q226 647 229.50 643Q233 639 242 624L454 282L454 629Q454 658 483 658L579 658Z"  horiz-adv-x="682" vert-adv-y="1000"  />

      
      <glyph glyph-name="uni4f" unicode="&#x4f;" d="M591 447L591 211Q591 154 566 109.50Q541 65 501 38.50Q461 12 415-1.50Q369-15 322-15Q275-15 229.50-1.50Q184 12 144 38.50Q104 65 79.50 109.50Q55 154 55 211L55 447Q55 504 79.50 548.50Q104 593 144 619.50Q184 646 229.50 659.50Q275 673 322 673Q369 673 415 659.50Q461 646 501 619.50Q541 593 566 548.50Q591 504 591 447M434 225L434 433Q434 480 403 507Q372 534 322 534Q272 534 241.50 507Q211 480 211 433L211 225Q211 178 241.50 151Q272 124 322 124Q372 124 403 151Q434 178 434 225Z"  horiz-adv-x="645" vert-adv-y="1000"  />

      
      <glyph glyph-name="uni50" unicode="&#x50;" d="M328 658Q454 658 522 595Q590 532 590 426Q590 320 521.50 257.50Q453 195 327 195L231 195L231 29Q231 0 202 0L103 0Q74 0 74 29L74 629Q74 658 103 658L328 658M327 330Q382 330 410.50 356.50Q439 383 439 423Q439 465 411 491Q383 517 327 517L231 517L231 330L327 330Z"  horiz-adv-x="628" vert-adv-y="1000"  />

      
      <glyph glyph-name="uni51" unicode="&#x51;" d="M593 47Q615 27 589 1L541-38Q516-63 496-43L448 6Q397-16 321-16Q274-16 228.50-2.50Q183 11 143 37.50Q103 64 78.50 108.50Q54 153 54 210L54 446Q54 503 78.50 547.50Q103 592 143 618.50Q183 645 228.50 658.50Q274 672 321 672Q368 672 414 658.50Q460 645 500 618.50Q540 592 565 547.50Q590 503 590 446L590 210Q590 134 555 90L593 47M434 225L434 433Q434 480 403 507Q372 534 322 534Q272 534 241.50 507Q211 480 211 433L211 225Q211 178 241.50 151Q272 124 322 124Q372 124 403 151Q434 178 434 225Z"  horiz-adv-x="646" vert-adv-y="1000"  />

      
      <glyph glyph-name="uni52" unicode="&#x52;" d="M613 32Q620 22 616 11Q612 0 598 0L480 0Q450 0 430 30L322 191Q311 206 311 242L311 322Q311 351 340 351L360 351Q398 351 426.50 374.50Q455 398 455 432Q455 470 429 493.50Q403 517 363 517L230 517L230 29Q230 0 201 0L102 0Q74 0 74 29L74 628Q74 657 102 657L354 657Q432 657 475.50 642Q519 627 553 593Q611 537 611 436Q611 363 568 309Q525 255 472 237L613 32Z"  horiz-adv-x="666" vert-adv-y="1000"  />

      
      <glyph glyph-name="uni53" unicode="&#x53;" d="M384 382Q417 372 431.50 367Q446 362 476.50 346Q507 330 521.50 313Q536 296 549 265Q562 234 562 195Q562 92 489 38.50Q416-15 296-15Q231-15 171 8Q111 31 69 81Q27 131 27 197Q27 214 33 219.50Q39 225 56 225L153 225Q172 225 180 220Q188 215 189 197Q191 176 208 156Q236 123 306 123Q352 123 378 137.50Q404 152 404 191Q404 207 395 218.50Q386 230 367 237.50Q348 245 329 249.50Q310 254 280 261.50Q250 269 230 275Q185 289 156 302.50Q127 316 96.50 338.50Q66 361 51 394.50Q36 428 36 474Q36 566 106.50 617.50Q177 669 279 673Q385 673 465 624Q545 575 545 483Q545 465 539.50 460Q534 455 516 455L418 455Q415 455 412 455.50Q409 456 406.50 457Q404 458 402 460Q400 462 399 463.50Q398 465 396.50 468Q395 471 394.50 472.50Q394 474 392.50 477.50Q391 481 391 482Q385 497 370 512Q342 539 285 539Q253 539 225 525Q197 511 197 481Q197 454 231 434.50Q265 415 323 399Q381 383 384 382Z"  horiz-adv-x="605" vert-adv-y="1000"  />

      
      <glyph glyph-name="uni54" unicode="&#x54;" d="M519 658Q548 658 548 629L548 546Q548 517 519 517L366 517L366 29Q366 0 337 0L238 0Q209 0 209 29L209 517L55 517Q26 517 26 546L26 629Q26 658 55 658L519 658Z"  horiz-adv-x="574" vert-adv-y="1000"  />

      
      <glyph glyph-name="uni55" unicode="&#x55;" d="M566 658Q595 658 595 629L595 201Q595 145 570.50 101.50Q546 58 506.50 33.50Q467 9 422-3Q377-15 330-15Q283-15 238-3Q193 9 153.50 33.50Q114 58 90 101.50Q66 145 66 201L66 629Q66 658 95 658L194 658Q223 658 223 629L223 223Q223 176 251.50 150Q280 124 330 124Q380 124 409 150Q438 176 438 223L438 629Q438 658 467 658L566 658Z"  horiz-adv-x="661" vert-adv-y="1000"  />

      
      <glyph glyph-name="uni56" unicode="&#x56;" d="M599 658Q612 658 616.50 649Q621 640 617 629L403 30Q394 11 386.50 5.50Q379 0 362 0L266 0Q249 0 241.50 5.50Q234 11 225 30L10 629Q6 640 10.50 649Q15 658 28 658L139 658Q158 658 166 651.50Q174 645 180 626L316 212L451 626Q457 645 465 651.50Q473 658 493 658L599 658Z"  horiz-adv-x="636" vert-adv-y="1000"  />

      
      <glyph glyph-name="uni57" unicode="&#x57;" d="M859 658Q871 658 875 648.50Q879 639 876 629L692 21Q687 0 665 0L581 0Q569 0 561 6Q553 12 551 18L549 23L449 342L349 23Q343 0 317 0L229 0Q219 0 212.50 5Q206 10 204 16L202 21L17 629Q14 640 18.50 649Q23 658 35 658L145 658Q159 658 168 651.50Q177 645 179.50 640Q182 635 185 626L284 286L380 626Q389 658 414 658L484 658Q508 658 517 626L614 286L713 626Q721 658 753 658L859 658Z"  horiz-adv-x="898" vert-adv-y="1000"  />

      
      <glyph glyph-name="uni58" unicode="&#x58;" d="M386 337L563 31Q569 22 565.50 11Q562 0 551 0L437 0Q419 0 411 4.50Q403 9 393 28L294 206L194 28Q185 10 176.50 5Q168 0 150 0L36 0Q25 0 21.50 11Q18 22 24 31L202 337L21 630Q16 638 20 648Q24 658 36 658L154 658Q168 658 176 652Q184 646 194 629L294 468L393 629Q404 646 412 652Q420 658 434 658L551 658Q563 658 567.50 648Q572 638 566 630L386 337Z"  horiz-adv-x="586" vert-adv-y="1000"  />

      
      <glyph glyph-name="uni59" unicode="&#x59;" d="M575 658Q588 658 592 648Q596 638 591 630L385 247L385 29Q385 0 356 0L256 0Q241 0 234 6Q227 12 227 29L227 247L13 630Q8 638 12 648Q16 658 29 658L144 658Q162 658 171.50 652.50Q181 647 191 628L308 413L421 628Q430 647 439.50 652.50Q449 658 467 658L575 658Z"  horiz-adv-x="604" vert-adv-y="1000"  />

      
      <glyph glyph-name="uni5a" unicode="&#x5a;" d="M502 140Q531 140 531 111L531 29Q531 0 502 0L66 0Q47 0 41.50 5.50Q36 11 36 29L36 107Q36 117 39 126.50Q42 136 46 140L49 145L319 518L74 518Q45 518 45 547L45 629Q45 658 74 658L476 658Q505 658 505 629L505 551Q505 529 492 512L224 140L502 140Z"  horiz-adv-x="567" vert-adv-y="1000"  />

      
      <glyph glyph-name="uni5b" unicode="&#x5b;" d="M227 533L227-16L345-16Q374-16 374-45L374-127Q374-156 345-156L103-156Q74-156 74-127L74 644Q74 673 103 673L345 673Q374 673 374 644L374 562Q374 533 345 533L227 533Z"  horiz-adv-x="414" vert-adv-y="1000"  />

      
      <glyph glyph-name="uni5c" unicode="&#x5c;" d="M33 693L118 693Q138 693 149 666L389 28Q392 18 387.50 9Q383 0 366 0L280 0Q260 0 249 27L10 665Q7 675 11.50 684Q16 693 33 693Z"  horiz-adv-x="401" vert-adv-y="1000"  />

      
      <glyph glyph-name="uni5d" unicode="&#x5d;" d="M187-16L187 533L69 533Q40 533 40 562L40 644Q40 673 69 673L311 673Q340 673 340 644L340-127Q340-156 311-156L69-156Q40-156 40-127L40-45Q40-16 69-16L187-16Z"  horiz-adv-x="414" vert-adv-y="1000"  />

      
      <glyph glyph-name="uni5e" unicode="&#x5e;" d="M475 342Q478 336 478 331Q478 317 460 317L366 317Q359 317 353.50 318Q348 319 345 322Q342 325 340.50 327Q339 329 337 334Q335 339 334 341L268 485L202 341Q201 339 199 335Q197 331 196.50 329.50Q196 328 193.50 325Q191 322 188 320.50Q185 319 180 318Q175 317 169 317L76 317Q57 317 57 332Q57 336 60 342L202 640Q210 658 225 658L311 658Q326 658 333 640L475 342Z"  horiz-adv-x="536" vert-adv-y="1000"  />

      
      <glyph glyph-name="uni5f" unicode="&#x5f;" d="M561-88Q590-88 590-117L590-148Q590-177 561-177L29-177Q0-177 0-148L0-117Q0-88 29-88L561-88Z"  horiz-adv-x="590" vert-adv-y="1000"  />

      
      <glyph glyph-name="uni60" unicode="&#x60;" d="M346 494L248 494Q241 494 235 495.50Q229 497 224 500.50Q219 504 216.50 506Q214 508 208.50 514Q203 520 201 522L101 630Q93 637 98 647.50Q103 658 120 658L247 658Q264 658 272.50 653Q281 648 292 630L359 522Q365 515 362 504.50Q359 494 346 494Z"  horiz-adv-x="556" vert-adv-y="1000"  />

      
      <glyph glyph-name="uni61" unicode="&#x61;" d="M640 28Q652 0 623 0L518 0Q501 0 493.50 6Q486 12 480 30L452 109L207 109L179 30Q173 12 165.50 6Q158 0 141 0L36 0Q7 0 19 28L241 627Q253 658 282 658L378 658Q406 658 419 627L640 28M255 249L405 249L330 470L255 249Z"  horiz-adv-x="655" vert-adv-y="1000"  />

      
      <glyph glyph-name="uni62" unicode="&#x62;" d="M543 341Q548 339 556 335Q564 331 578.50 318.50Q593 306 605 290.50Q617 275 626 248.50Q635 222 635 192Q635 99 570 49.50Q505 0 397 0L103 0Q74 0 74 29L74 630Q74 659 103 659L383 659Q498 659 557 607Q616 555 616 478Q616 443 606.50 415.50Q597 388 582.50 372.50Q568 357 559 350.50Q550 344 543 341M399 142Q476 142 476 207Q476 268 393 268L370 268Q341 268 341 297L341 373Q341 402 370 402L383 402Q466 402 466 462Q466 494 445.50 506Q425 518 383 518L231 518L231 142L399 142Z"  horiz-adv-x="687" vert-adv-y="1000"  />

      
      <glyph glyph-name="uni63" unicode="&#x63;" d="M581 195Q581 103 500.50 44Q420-15 321-15Q274-15 228.50-1.50Q183 12 143 38.50Q103 65 78 110Q53 155 53 211L53 447Q53 503 78 548Q103 593 143 619.50Q183 646 228.50 659.50Q274 673 321 673Q421 673 496.50 623Q572 573 581 483Q581 465 574.50 459.50Q568 454 550 454L454 454Q445 454 439.50 458.50Q434 463 430 472.50Q426 482 424 485Q393 533 321 533Q271 533 240.50 506.50Q210 480 210 433L210 225Q210 178 240.50 151.50Q271 125 321 125Q415 125 426 193Q428 206 429.50 212Q431 218 437 223.50Q443 229 453 229L551 229Q581 229 581 195Z"  horiz-adv-x="632" vert-adv-y="1000"  />

      
      <glyph glyph-name="uni64" unicode="&#x64;" d="M327 658Q391 658 450 635.50Q509 613 552.50 559.50Q596 506 596 433L596 225Q596 151 552.50 98Q509 45 450 22.50Q391 0 327 0L103 0Q74 0 74 29L74 629Q74 658 103 658L327 658M439 239L439 419Q439 466 408 492.50Q377 519 327 519L231 519L231 139L327 139Q378 139 408.50 165.50Q439 192 439 239Z"  horiz-adv-x="650" vert-adv-y="1000"  />

      
      <glyph glyph-name="uni65" unicode="&#x65;" d="M551 140Q580 140 580 111L580 29Q580 0 551 0L103 0Q74 0 74 29L74 629Q74 658 103 658L534 658Q563 658 563 629L563 546Q563 517 534 517L232 517L232 408L500 408Q529 408 529 379L529 301Q529 272 500 272L232 272L232 140L551 140Z"  horiz-adv-x="627" vert-adv-y="1000"  />

      
      <glyph glyph-name="uni66" unicode="&#x66;" d="M533 658Q562 658 562 629L562 547Q562 518 533 518L231 518L231 401L491 401Q520 401 520 372L520 293Q520 264 491 264L231 264L231 30Q231 11 225.50 5.50Q220 0 202 0L103 0Q74 0 74 29L74 629Q74 658 103 658L533 658Z"  horiz-adv-x="602" vert-adv-y="1000"  />

      
      <glyph glyph-name="uni67" unicode="&#x67;" d="M563 367Q592 367 592 338L592 193Q588 125 543.50 76Q499 27 441.50 6Q384-15 323-15Q276-15 230.50-2.50Q185 10 144.50 34.50Q104 59 79 102.50Q54 146 54 202L54 448Q54 505 79 549.50Q104 594 144.50 620Q185 646 231 659.50Q277 673 323 673Q426 673 509 617Q592 561 592 467Q592 449 586.50 444Q581 439 563 439L466 439Q456 439 450 442.50Q444 446 442.50 450Q441 454 439.50 462Q438 470 437 473Q428 499 399 516.50Q370 534 323 534Q274 534 243.50 504Q213 474 213 426L213 225Q213 178 243 151Q273 124 323 124Q434 124 434 231L344 231Q315 231 315 260L315 338Q315 367 344 367L563 367Z"  horiz-adv-x="646" vert-adv-y="1000"  />

      
      <glyph glyph-name="uni68" unicode="&#x68;" d="M582 658Q611 658 611 629L611 29Q611 0 582 0L483 0Q454 0 454 29L454 255L231 255L231 29Q231 12 224 6Q217 0 202 0L103 0Q74 0 74 29L74 629Q74 658 103 658L202 658Q217 658 224 652Q231 646 231 629L231 403L454 403L454 629Q454 658 483 658L582 658Z"  horiz-adv-x="685" vert-adv-y="1000"  />

      
      <glyph glyph-name="uni69" unicode="&#x69;" d="M360 137Q389 137 389 108L389 29Q389 0 360 0L77 0Q48 0 48 29L48 108Q48 137 77 137L140 137L140 519L79 519Q50 519 50 548L50 629Q50 658 79 658L357 658Q386 658 386 629L386 548Q386 519 357 519L297 519L297 137L360 137Z"  horiz-adv-x="444" vert-adv-y="1000"  />

      
      <glyph glyph-name="uni6a" unicode="&#x6a;" d="M484 663Q513 663 513 634L513 215Q513 107 439.50 53.50Q366 0 265 0Q161 0 95.50 57Q30 114 30 216Q30 243 54 243L160 243Q185 243 185 222Q189 139 265 139Q356 139 356 237L356 522L181 522Q152 522 152 551L152 634Q152 663 181 663L484 663Z"  horiz-adv-x="580" vert-adv-y="1000"  />

      
      <glyph glyph-name="uni6b" unicode="&#x6b;" d="M622 658Q635 658 637.50 647.50Q640 637 632 630L407 386L622 32Q629 22 624.50 11Q620 0 607 0L485 0Q455 0 435 32Q346 182 292 272L230 207L230 29Q230 0 202 0L103 0Q88 0 81 6Q74 12 74 29L74 629Q74 646 81 652Q88 658 103 658L202 658Q230 658 230 629L230 406L437 634Q452 650 460.50 654Q469 658 487 658L622 658Z"  horiz-adv-x="654" vert-adv-y="1000"  />

      
      <glyph glyph-name="uni6c" unicode="&#x6c;" d="M519 140Q548 140 548 111L548 29Q548 0 519 0L103 0Q74 0 74 29L74 629Q74 658 103 658L202 658Q231 658 231 629L231 140L519 140Z"  horiz-adv-x="582" vert-adv-y="1000"  />

      
      <glyph glyph-name="uni6d" unicode="&#x6d;" d="M664 659Q693 659 693 630L693 29Q693 0 664 0L568 0Q539 0 539 29L539 368L439 193Q426 172 410 172L360 172Q345 172 332 193L231 368L231 29Q231 0 202 0L103 0Q74 0 74 29L74 630Q74 659 103 659L202 659Q214 659 222.50 655Q231 651 234.50 647Q238 643 242.50 634.50Q247 626 248 625L385 379L523 625Q524 626 527 632.50Q530 639 532.50 642.50Q535 646 539.50 650.50Q544 655 551.50 657Q559 659 568 659L664 659Z"  horiz-adv-x="767" vert-adv-y="1000"  />

      
      <glyph glyph-name="uni6e" unicode="&#x6e;" d="M579 658Q608 658 608 629L608 29Q608 0 579 0L488 0Q476 0 467.50 5.50Q459 11 455.50 15Q452 19 443 34L231 377L231 29Q231 0 202 0L103 0Q74 0 74 29L74 629Q74 658 103 658L197 658Q209 658 217.50 652.50Q226 647 229.50 643Q233 639 242 624L454 282L454 629Q454 658 483 658L579 658Z"  horiz-adv-x="682" vert-adv-y="1000"  />

      
      <glyph glyph-name="uni6f" unicode="&#x6f;" d="M591 447L591 211Q591 154 566 109.50Q541 65 501 38.50Q461 12 415-1.50Q369-15 322-15Q275-15 229.50-1.50Q184 12 144 38.50Q104 65 79.50 109.50Q55 154 55 211L55 447Q55 504 79.50 548.50Q104 593 144 619.50Q184 646 229.50 659.50Q275 673 322 673Q369 673 415 659.50Q461 646 501 619.50Q541 593 566 548.50Q591 504 591 447M434 225L434 433Q434 480 403 507Q372 534 322 534Q272 534 241.50 507Q211 480 211 433L211 225Q211 178 241.50 151Q272 124 322 124Q372 124 403 151Q434 178 434 225Z"  horiz-adv-x="645" vert-adv-y="1000"  />

      
      <glyph glyph-name="uni70" unicode="&#x70;" d="M328 658Q454 658 522 595Q590 532 590 426Q590 320 521.50 257.50Q453 195 327 195L231 195L231 29Q231 0 202 0L103 0Q74 0 74 29L74 629Q74 658 103 658L328 658M327 330Q382 330 410.50 356.50Q439 383 439 423Q439 465 411 491Q383 517 327 517L231 517L231 330L327 330Z"  horiz-adv-x="628" vert-adv-y="1000"  />

      
      <glyph glyph-name="uni71" unicode="&#x71;" d="M593 47Q615 27 589 1L541-38Q516-63 496-43L448 6Q397-16 321-16Q274-16 228.50-2.50Q183 11 143 37.50Q103 64 78.50 108.50Q54 153 54 210L54 446Q54 503 78.50 547.50Q103 592 143 618.50Q183 645 228.50 658.50Q274 672 321 672Q368 672 414 658.50Q460 645 500 618.50Q540 592 565 547.50Q590 503 590 446L590 210Q590 134 555 90L593 47M434 225L434 433Q434 480 403 507Q372 534 322 534Q272 534 241.50 507Q211 480 211 433L211 225Q211 178 241.50 151Q272 124 322 124Q372 124 403 151Q434 178 434 225Z"  horiz-adv-x="646" vert-adv-y="1000"  />

      
      <glyph glyph-name="uni72" unicode="&#x72;" d="M613 32Q620 22 616 11Q612 0 598 0L480 0Q450 0 430 30L322 191Q311 206 311 242L311 322Q311 351 340 351L360 351Q398 351 426.50 374.50Q455 398 455 432Q455 470 429 493.50Q403 517 363 517L230 517L230 29Q230 0 201 0L102 0Q74 0 74 29L74 628Q74 657 102 657L354 657Q432 657 475.50 642Q519 627 553 593Q611 537 611 436Q611 363 568 309Q525 255 472 237L613 32Z"  horiz-adv-x="666" vert-adv-y="1000"  />

      
      <glyph glyph-name="uni73" unicode="&#x73;" d="M384 382Q417 372 431.50 367Q446 362 476.50 346Q507 330 521.50 313Q536 296 549 265Q562 234 562 195Q562 92 489 38.50Q416-15 296-15Q231-15 171 8Q111 31 69 81Q27 131 27 197Q27 214 33 219.50Q39 225 56 225L153 225Q172 225 180 220Q188 215 189 197Q191 176 208 156Q236 123 306 123Q352 123 378 137.50Q404 152 404 191Q404 207 395 218.50Q386 230 367 237.50Q348 245 329 249.50Q310 254 280 261.50Q250 269 230 275Q185 289 156 302.50Q127 316 96.50 338.50Q66 361 51 394.50Q36 428 36 474Q36 566 106.50 617.50Q177 669 279 673Q385 673 465 624Q545 575 545 483Q545 465 539.50 460Q534 455 516 455L418 455Q415 455 412 455.50Q409 456 406.50 457Q404 458 402 460Q400 462 399 463.50Q398 465 396.50 468Q395 471 394.50 472.50Q394 474 392.50 477.50Q391 481 391 482Q385 497 370 512Q342 539 285 539Q253 539 225 525Q197 511 197 481Q197 454 231 434.50Q265 415 323 399Q381 383 384 382Z"  horiz-adv-x="605" vert-adv-y="1000"  />

      
      <glyph glyph-name="uni74" unicode="&#x74;" d="M519 658Q548 658 548 629L548 546Q548 517 519 517L366 517L366 29Q366 0 337 0L238 0Q209 0 209 29L209 517L55 517Q26 517 26 546L26 629Q26 658 55 658L519 658Z"  horiz-adv-x="574" vert-adv-y="1000"  />

      
      <glyph glyph-name="uni75" unicode="&#x75;" d="M566 658Q595 658 595 629L595 201Q595 145 570.50 101.50Q546 58 506.50 33.50Q467 9 422-3Q377-15 330-15Q283-15 238-3Q193 9 153.50 33.50Q114 58 90 101.50Q66 145 66 201L66 629Q66 658 95 658L194 658Q223 658 223 629L223 223Q223 176 251.50 150Q280 124 330 124Q380 124 409 150Q438 176 438 223L438 629Q438 658 467 658L566 658Z"  horiz-adv-x="661" vert-adv-y="1000"  />

      
      <glyph glyph-name="uni76" unicode="&#x76;" d="M599 658Q612 658 616.50 649Q621 640 617 629L403 30Q394 11 386.50 5.50Q379 0 362 0L266 0Q249 0 241.50 5.50Q234 11 225 30L10 629Q6 640 10.50 649Q15 658 28 658L139 658Q158 658 166 651.50Q174 645 180 626L316 212L451 626Q457 645 465 651.50Q473 658 493 658L599 658Z"  horiz-adv-x="636" vert-adv-y="1000"  />

      
      <glyph glyph-name="uni77" unicode="&#x77;" d="M859 658Q871 658 875 648.50Q879 639 876 629L692 21Q687 0 665 0L581 0Q569 0 561 6Q553 12 551 18L549 23L449 342L349 23Q343 0 317 0L229 0Q219 0 212.50 5Q206 10 204 16L202 21L17 629Q14 640 18.50 649Q23 658 35 658L145 658Q159 658 168 651.50Q177 645 179.50 640Q182 635 185 626L284 286L380 626Q389 658 414 658L484 658Q508 658 517 626L614 286L713 626Q721 658 753 658L859 658Z"  horiz-adv-x="898" vert-adv-y="1000"  />

      
      <glyph glyph-name="uni78" unicode="&#x78;" d="M386 337L563 31Q569 22 565.50 11Q562 0 551 0L437 0Q419 0 411 4.50Q403 9 393 28L294 206L194 28Q185 10 176.50 5Q168 0 150 0L36 0Q25 0 21.50 11Q18 22 24 31L202 337L21 630Q16 638 20 648Q24 658 36 658L154 658Q168 658 176 652Q184 646 194 629L294 468L393 629Q404 646 412 652Q420 658 434 658L551 658Q563 658 567.50 648Q572 638 566 630L386 337Z"  horiz-adv-x="586" vert-adv-y="1000"  />

      
      <glyph glyph-name="uni79" unicode="&#x79;" d="M575 658Q588 658 592 648Q596 638 591 630L385 247L385 29Q385 0 356 0L256 0Q241 0 234 6Q227 12 227 29L227 247L13 630Q8 638 12 648Q16 658 29 658L144 658Q162 658 171.50 652.50Q181 647 191 628L308 413L421 628Q430 647 439.50 652.50Q449 658 467 658L575 658Z"  horiz-adv-x="604" vert-adv-y="1000"  />

      
      <glyph glyph-name="uni7a" unicode="&#x7a;" d="M502 140Q531 140 531 111L531 29Q531 0 502 0L66 0Q47 0 41.50 5.50Q36 11 36 29L36 107Q36 117 39 126.50Q42 136 46 140L49 145L319 518L74 518Q45 518 45 547L45 629Q45 658 74 658L476 658Q505 658 505 629L505 551Q505 529 492 512L224 140L502 140Z"  horiz-adv-x="567" vert-adv-y="1000"  />

      
      <glyph glyph-name="uni7b" unicode="&#x7b;" d="M426 328Q455 328 455 299L455 217Q455 188 426 188L394 188Q362 187 345 171Q329 154 329 111L329-4Q329-70 283-116Q241-156 169-156L73-156Q44-156 44-127L44-45Q44-16 73-16L120-16Q154-14 166-2Q182 13 182 61L182 162Q182 240 252 257L258 259L251 260Q182 278 182 355L182 456Q182 503 166 519Q154 531 120 533L73 533Q44 533 44 562L44 644Q44 673 73 673L169 673Q241 673 283 633Q329 587 329 521L329 406Q329 363 345 346Q364 328 401 328L426 328Z"  horiz-adv-x="499" vert-adv-y="1000"  />

      
      <glyph glyph-name="uni7c" unicode="&#x7c;" d="M208 792Q237 792 237 763L237-137Q237-166 208-166L129-166Q100-166 100-137L100 763Q100 792 129 792L208 792Z"  horiz-adv-x="337" vert-adv-y="1000"  />

      
      <glyph glyph-name="uni7d" unicode="&#x7d;" d="M73 328L98 328Q134 328 154 346Q170 363 170 406L170 521Q170 587 216 633Q258 673 330 673L426 673Q455 673 455 644L455 562Q455 533 426 533L379 533Q345 531 333 519Q317 503 317 456L317 355Q317 278 248 260L241 259L247 257Q317 240 317 162L317 61Q317 13 333-2Q345-14 379-16L426-16Q455-16 455-45L455-127Q455-156 426-156L330-156Q258-156 216-116Q170-70 170-4L170 111Q170 154 154 171Q137 187 105 188L73 188Q44 188 44 217L44 299Q44 328 73 328Z"  horiz-adv-x="499" vert-adv-y="1000"  />

      
      <glyph glyph-name="uni7e" unicode="&#x7e;" d="M656 314Q673 297 653 275Q579 208 510 208Q455 208 406 235Q363 260 325 260Q300 260 266 239Q256 233 244 235Q232 237 225 245L174 296Q156 314 176 336Q249 402 319 402Q374 402 423 375Q467 350 504 350Q529 350 563 371Q573 377 585.50 375.50Q598 374 605 366L656 314Z"  horiz-adv-x="833" vert-adv-y="1000"  />

      
      <glyph glyph-name="unia1" unicode="&#xa1;" d="M183 295Q201 295 205.50 290Q210 285 212 266Q240 1 253-118L255-135Q255-147 248.50-151.50Q242-156 226-156L92-156Q75-156 68.50-152Q62-148 62-135Q62-134 64-117Q77 4 106 266Q108 286 112.50 290.50Q117 295 134 295L183 295M103 333Q74 333 74 362L74 473Q74 502 103 502L214 502Q243 502 243 473L243 362Q243 333 214 333L103 333Z"  horiz-adv-x="316" vert-adv-y="1000"  />

      
      <glyph glyph-name="unia3" unicode="&#xa3;" d="M582 140Q611 140 611 111L611 29Q611 0 582 0L63 0Q35 1 35 29L35 111Q35 140 64 140Q77 140 86 143Q95 146 105.50 154Q116 162 122.50 181Q129 200 130 229L64 229Q35 229 35 258L35 336Q35 365 64 365L130 365L130 473Q130 565 196.50 619Q263 673 360 673Q458 673 528.50 616Q599 559 599 450Q599 435 595.50 431.50Q592 428 580 428L481 428Q453 428 453 450Q453 498 431.50 515.50Q410 533 365 533Q326 533 307 504.50Q288 476 288 433L288 365L418 365Q447 365 447 336L447 258Q447 229 418 229L288 229Q288 167 255 140L582 140Z"  horiz-adv-x="651" vert-adv-y="1000"  />

      
      <glyph glyph-name="unia4" unicode="&#xa4;" d="M519 494Q540 514 560 494L593 461Q614 440 593 420L553 379Q590 321 589.50 252.50Q589 184 552 125L593 84Q614 64 593 43L561 11Q540-10 520 11L479 52Q421 15 352 15Q283 15 225 51L184 11Q164-10 143 11L110 44Q90 64 110 85L150 125Q114 183 114 252Q114 321 151 379L111 420Q90 440 111 461L143 493Q164 514 184 493L225 453Q283 490 352 490Q421 490 479 454L519 494M429 175Q461 206 461 251.50Q461 297 429 329Q397 361 351.50 361.50Q306 362 274 330Q242 298 242.50 252.50Q243 207 275 175Q306 143 352 143Q398 143 429 175Z"  horiz-adv-x="674" vert-adv-y="1000"  />

      
      <glyph glyph-name="unia5" unicode="&#xa5;" d="M567 658Q580 658 584.50 648Q589 638 583 630L468 415L509 415Q538 415 538 386L538 333Q538 304 509 304L408 304L377 247L377 245L509 245Q538 245 538 216L538 163Q538 134 509 134L377 134L377 29Q377 0 348 0L248 0Q219 0 219 29L219 134L80 134Q51 134 51 163L51 216Q51 245 80 245L219 245L219 247L187 304L80 304Q51 304 51 333L51 386Q51 415 80 415L125 415L5 630Q0 638 4 648Q8 658 21 658L137 658Q155 658 164 652.50Q173 647 183 628L299 415L301 415L413 628Q423 647 432 652.50Q441 658 459 658L567 658Z"  horiz-adv-x="594" vert-adv-y="1000"  />

      
      <glyph glyph-name="unia6" unicode="&#xa6;" d="M208 612Q237 612 237 583L237 373Q237 344 208 344L129 344Q100 344 100 373L100 583Q100 612 129 612L208 612M208 155Q237 155 237 126L237-84Q237-113 208-113L129-113Q100-113 100-84L100 126Q100 155 129 155L208 155Z"  horiz-adv-x="337" vert-adv-y="1000"  />

      
      <glyph glyph-name="unia7" unicode="&#xa7;" d="M496 267Q496 177 431 145Q475 103 475 45Q475-36 416-79Q357-122 275-122Q170-122 119.50-77.50Q69-33 69 29Q69 51 75 57.50Q81 64 98 64L174 64Q187 64 195 59Q203 54 204 48L206 43Q210 24 224 12Q242-4 272-4Q297-4 312 9Q327 22 327 44Q327 60 310.50 75Q294 90 276 99Q258 108 221 123Q181 140 158.50 151.50Q136 163 105.50 184Q75 205 60 233Q45 261 45 295Q45 395 126 432Q85 468 85 518Q85 589 143.50 631Q202 673 279 673Q329 673 367 658Q405 643 424.50 623Q444 603 456 580Q468 557 470.50 545Q473 533 473 529Q473 517 472 511Q471 505 464.50 500Q458 495 444 495L369 495Q347 495 335 522Q330 534 323 541Q307 555 281 555Q262 555 247.50 545Q233 535 233 515Q233 503 243 492Q253 481 261 476.50Q269 472 287 463L293 461Q296 458 396 412Q496 367 496 267M329 222Q345 222 356 232Q367 242 367 256Q367 283 331 300L242 343Q229 348 219 348Q205 348 195 338.50Q185 329 184 315Q183 301 190.50 292.50Q198 284 217 273L310 226Q318 222 329 222Z"  horiz-adv-x="541" vert-adv-y="1000"  />

      
      <glyph glyph-name="unia8" unicode="&#xa8;" d="M209 658Q238 658 238 629L238 564Q238 535 209 535L99 535Q84 535 77 541Q70 547 70 564L70 629Q70 646 77 652Q84 658 99 658L209 658M456 658Q485 658 485 629L485 564Q485 535 456 535L346 535Q317 535 317 564L317 629Q317 658 346 658L456 658Z"  horiz-adv-x="556" vert-adv-y="1000"  />

      
      <glyph glyph-name="uniab" unicode="&#xab;" d="M179 485Q186 493 195.50 489Q205 485 205 473L205 385Q205 367 184 350L122 299L184 248Q205 231 205 214L205 125Q205 114 195.50 110Q186 106 179 114L42 233Q30 244 30 260L30 338Q30 354 42 365L179 485M413 385Q413 367 392 350L330 299L392 248Q413 231 413 214L413 125Q413 114 403.50 110Q394 106 387 114L250 233Q238 243 238 260L238 338Q238 354 250 365L387 485Q394 493 403.50 489Q413 485 413 473L413 385Z"  horiz-adv-x="473" vert-adv-y="1000"  />

      
      <glyph glyph-name="unib0" unicode="&#xb0;" d="M89.50 418Q89.50 418 68.25 439Q47 460 47 525Q47 590 89.50 632Q132 674 196 674Q260 674 302.50 632Q345 590 345 525Q345 460 302.50 418Q260 376 196 376Q132 376 89.50 418M145.50 575.50Q145.50 575.50 135.25 565.25Q125 555 125 525Q125 495 145.50 474.50Q166 454 196 454Q226 454 246.50 474.50Q267 495 267 525Q267 555 246.50 575.50Q226 596 196 596Q166 596 145.50 575.50Z"  horiz-adv-x="392" vert-adv-y="1000"  />

      
      <glyph glyph-name="unib1" unicode="&#xb1;" d="M483 354Q512 354 512 325L512 256Q512 227 483 227L344 227L344 127L483 127Q512 127 512 98L512 29Q512 0 483 0L78 0Q49 0 49 29L49 98Q49 127 78 127L217 127L217 227L78 227Q49 227 49 256L49 325Q49 354 78 354L217 354L217 443Q217 472 246 472L315 472Q344 472 344 443L344 354L483 354Z"  horiz-adv-x="561" vert-adv-y="1000"  />

      
      <glyph glyph-name="unib4" unicode="&#xb4;" d="M318 494L220 494Q207 494 204 504.50Q201 515 207 522L274 630Q285 648 293.50 653Q302 658 319 658L446 658Q463 658 468 647.50Q473 637 465 630L365 522Q363 520 357.50 514Q352 508 349.50 506Q347 504 342 500.50Q337 497 331 495.50Q325 494 318 494Z"  horiz-adv-x="556" vert-adv-y="1000"  />

      
      <glyph glyph-name="unib6" unicode="&#xb6;" d="M587 658Q609 658 617.50 652Q626 646 626 629L626 29Q626 0 597 0L528 0Q499 0 499 29L499 541L421 541L421 29Q421 0 392 0L323 0Q294 0 294 29L294 288L262 288Q208 288 169.50 326.50Q131 365 131 419L131 527Q131 579 172 618.50Q213 658 261 658L587 658Z"  horiz-adv-x="833" vert-adv-y="1000"  />

      
      <glyph glyph-name="unib7" unicode="&#xb7;" d="M86 167Q86 167 71.50 181.50Q57 196 57 237Q57 278 86 307Q115 336 156 336Q197 336 226 307Q255 278 255 237Q255 196 226 167Q197 138 156 138Q115 138 86 167Z"  horiz-adv-x="294" vert-adv-y="1000"  />

      
      <glyph glyph-name="unib8" unicode="&#xb8;" d="M274 50L329 50Q341 50 343.50 40.50Q346 31 341 25L311-44Q355-49 382-75Q409-101 411.50-135.50Q414-170 402.50-204Q391-238 357.50-261Q324-284 279-284L212-284Q151-284 116-247Q95-226 103.50-200Q112-174 135.50-167.50Q159-161 183-179Q198-192 214-192L277-192Q298-192 307-173Q316-154 307.50-135Q299-116 277-115L205-115Q179-115 191-87Q203-63 216.50-35Q230-7 236 5Q242 17 249.50 29.50Q257 42 262 46Q267 50 274 50Z"  horiz-adv-x="500" vert-adv-y="1000"  />

      
      <glyph glyph-name="unibb" unicode="&#xbb;" d="M294 485L431 365Q443 354 443 338L443 260Q443 244 431 233L294 114Q286 106 277 110Q268 114 268 125L268 214Q268 231 289 248L351 299L289 350Q268 367 268 385L268 473Q268 485 277 489Q286 493 294 485M60 385L60 473Q60 485 69 489Q78 493 86 485L223 365Q235 354 235 338L235 260Q235 244 223 233L86 114Q78 106 69 110Q60 114 60 125L60 214Q60 231 81 248L143 299L81 350Q60 367 60 385Z"  horiz-adv-x="473" vert-adv-y="1000"  />

      
      <glyph glyph-name="unibf" unicode="&#xbf;" d="M34 9Q34-80 101.50-127Q169-174 265-174Q326-174 372-155Q418-136 443-104.50Q468-73 481-41.50Q494-10 497 23Q497 41 494 47.50Q491 54 480 54L380 54Q369 54 362 49Q355 44 353 38.50Q351 33 349 23Q343-1 321-20.50Q299-40 264-40Q236-40 215.50-24.50Q195-9 195 15Q195 35 210.50 49.50Q226 64 252.50 79.50Q279 95 292 108Q345 162 345 255Q345 287 313 287L230 287Q211 287 204.50 280Q198 273 198 255Q198 229 184.50 206Q171 183 158 172Q145 161 121 145Q96 127 80.50 112.50Q65 98 49.50 69.50Q34 41 34 9M330 329L219 329Q190 329 190 358L190 469Q190 498 219 498L330 498Q359 498 359 469L359 358Q359 329 330 329Z"  horiz-adv-x="538" vert-adv-y="1000"  />

      
      <glyph glyph-name="unic0" unicode="&#xc0;" d="M640 28Q652 0 623 0L518 0Q501 0 493.50 6Q486 12 480 30L452 109L207 109L179 30Q173 12 165.50 6Q158 0 141 0L36 0Q7 0 19 28L241 627Q253 658 282 658L378 658Q406 658 419 627L640 28M255 249L405 249L330 470L255 249M373 716L275 716Q268 716 262 717.50Q256 719 251 722.50Q246 726 243.50 728Q241 730 235.50 736Q230 742 228 744L128 852Q120 859 125 869.50Q130 880 147 880L274 880Q291 880 299.50 875Q308 870 319 852L386 744Q392 737 389 726.50Q386 716 373 716Z"  horiz-adv-x="655" vert-adv-y="1000"  />

      
      <glyph glyph-name="unic1" unicode="&#xc1;" d="M640 28Q652 0 623 0L518 0Q501 0 493.50 6Q486 12 480 30L452 109L207 109L179 30Q173 12 165.50 6Q158 0 141 0L36 0Q7 0 19 28L241 627Q253 658 282 658L378 658Q406 658 419 627L640 28M255 249L405 249L330 470L255 249M382 716L284 716Q271 716 268 726.50Q265 737 271 744L338 852Q349 870 357.50 875Q366 880 383 880L510 880Q527 880 532 869.50Q537 859 529 852L429 744Q427 742 421.50 736Q416 730 413.50 728Q411 726 406 722.50Q401 719 395 717.50Q389 716 382 716Z"  horiz-adv-x="655" vert-adv-y="1000"  />

      
      <glyph glyph-name="unic2" unicode="&#xc2;" d="M640 28Q652 0 623 0L518 0Q501 0 493.50 6Q486 12 480 30L452 109L207 109L179 30Q173 12 165.50 6Q158 0 141 0L36 0Q7 0 19 28L241 627Q253 658 282 658L378 658Q406 658 419 627L640 28M255 249L405 249L330 470L255 249M416 716Q399 716 382 737L331 799L280 737Q263 716 245 716L157 716Q145 716 141 725Q137 734 145 742L265 879Q276 891 292 891L370 891Q386 891 397 879L516 742Q524 734 520 725Q516 716 505 716L416 716Z"  horiz-adv-x="655" vert-adv-y="1000"  />

      
      <glyph glyph-name="unic3" unicode="&#xc3;" d="M640 28Q652 0 623 0L518 0Q501 0 493.50 6Q486 12 480 30L452 109L207 109L179 30Q173 12 165.50 6Q158 0 141 0L36 0Q7 0 19 28L241 627Q253 658 282 658L378 658Q406 658 419 627L640 28M255 249L405 249L330 470L255 249M512 847Q524 847 524 827L524 826Q524 780 494 748Q464 716 416 716Q384 716 335 734Q276 755 264 757Q237 761 229 734Q224 716 204 716L158 716Q146 716 146 736L146 737Q146 783 176 815Q206 847 254 847Q286 847 335 829Q394 808 406 806Q433 802 441 829Q446 847 466 847L512 847Z"  horiz-adv-x="655" vert-adv-y="1000"  />

      
      <glyph glyph-name="unic4" unicode="&#xc4;" d="M258 839Q287 839 287 810L287 745Q287 716 258 716L148 716Q133 716 126 722Q119 728 119 745L119 810Q119 827 126 833Q133 839 148 839L258 839M505 839Q534 839 534 810L534 745Q534 716 505 716L395 716Q366 716 366 745L366 810Q366 839 395 839L505 839M640 28Q652 0 623 0L518 0Q501 0 493.50 6Q486 12 480 30L452 109L207 109L179 30Q173 12 165.50 6Q158 0 141 0L36 0Q7 0 19 28L241 627Q253 658 282 658L378 658Q406 658 419 627L640 28M255 249L405 249L330 470L255 249Z"  horiz-adv-x="655" vert-adv-y="1000"  />

      
      <glyph glyph-name="unic5" unicode="&#xc5;" d="M291 765.50Q291 765.50 283 757.75Q275 750 275 729Q275 708 291 692Q307 676 328 676Q349 676 364.50 692Q380 708 380 729Q380 749 364 765Q348 781 328 781Q307 781 291 765.50M255 249L405 249L330 470L255 249M640 28Q652 0 623 0L518 0Q501 0 493.50 6Q486 12 480 30L452 109L207 109L179 30Q173 12 165.50 6Q158 0 141 0L36 0Q7 0 19 28L241 627Q246 639 251 646Q215 679 215 729Q215 775 248.50 808Q282 841 328 841Q374 841 407 808Q440 775 440 729Q440 680 406 648Q413 641 419 627L640 28Z"  horiz-adv-x="655" vert-adv-y="1000"  />

      
      <glyph glyph-name="unic6" unicode="&#xc6;" d="M895 140Q924 140 924 111L924 29Q924 0 895 0L471 0Q442 0 442 24L442 109L230 109L192 30Q176 0 147 0L30 0Q20 0 15.50 9Q11 18 16 28L300 619Q320 659 353 659L878 659Q907 659 907 630L907 548Q907 519 878 519L592 519L592 408L844 408Q873 408 873 379L873 301Q873 272 844 272L592 272L592 140L895 140M442 250L442 520L410 520L288 250L442 250Z"  horiz-adv-x="970" vert-adv-y="1000"  />

      
      <glyph glyph-name="unic7" unicode="&#xc7;" d="M581 195Q581 119 525.50 65Q470 11 389-7L372-46Q416-51 443-77Q470-103 472.50-137.50Q475-172 463.50-206Q452-240 418.50-263Q385-286 340-286L273-286Q212-286 177-249Q156-228 164.50-202Q173-176 196.50-169.50Q220-163 244-181Q259-194 275-194L338-194Q359-194 368-175Q377-156 368.50-137Q360-118 338-117L266-117Q240-117 252-89Q261-71 273.50-45Q286-19 289-13Q194-4 123.50 54Q53 112 53 211L53 447Q53 503 78 548Q103 593 143 619.50Q183 646 228.50 659.50Q274 673 321 673Q421 673 496.50 623Q572 573 581 483Q581 465 574.50 459.50Q568 454 550 454L454 454Q445 454 439.50 458.50Q434 463 430 472.50Q426 482 424 485Q393 533 321 533Q271 533 240.50 506.50Q210 480 210 433L210 225Q210 178 240.50 151.50Q271 125 321 125Q415 125 426 193Q428 206 429.50 212Q431 218 437 223.50Q443 229 453 229L551 229Q581 229 581 195Z"  horiz-adv-x="632" vert-adv-y="1000"  />

      
      <glyph glyph-name="unic8" unicode="&#xc8;" d="M551 140Q580 140 580 111L580 29Q580 0 551 0L103 0Q74 0 74 29L74 629Q74 658 103 658L534 658Q563 658 563 629L563 546Q563 517 534 517L232 517L232 408L500 408Q529 408 529 379L529 301Q529 272 500 272L232 272L232 140L551 140M392 716L294 716Q287 716 281 717.50Q275 719 270 722.50Q265 726 262.50 728Q260 730 254.50 736Q249 742 247 744L147 852Q139 859 144 869.50Q149 880 166 880L293 880Q310 880 318.50 875Q327 870 338 852L405 744Q411 737 408 726.50Q405 716 392 716Z"  horiz-adv-x="627" vert-adv-y="1000"  />

      
      <glyph glyph-name="unic9" unicode="&#xc9;" d="M551 140Q580 140 580 111L580 29Q580 0 551 0L103 0Q74 0 74 29L74 629Q74 658 103 658L534 658Q563 658 563 629L563 546Q563 517 534 517L232 517L232 408L500 408Q529 408 529 379L529 301Q529 272 500 272L232 272L232 140L551 140M352 716L254 716Q241 716 238 726.50Q235 737 241 744L308 852Q319 870 327.50 875Q336 880 353 880L480 880Q497 880 502 869.50Q507 859 499 852L399 744Q397 742 391.50 736Q386 730 383.50 728Q381 726 376 722.50Q371 719 365 717.50Q359 716 352 716Z"  horiz-adv-x="627" vert-adv-y="1000"  />

      
      <glyph glyph-name="unica" unicode="&#xca;" d="M551 140Q580 140 580 111L580 29Q580 0 551 0L103 0Q74 0 74 29L74 629Q74 658 103 658L534 658Q563 658 563 629L563 546Q563 517 534 517L232 517L232 408L500 408Q529 408 529 379L529 301Q529 272 500 272L232 272L232 140L551 140M412 716Q395 716 378 737L327 799L276 737Q259 716 241 716L153 716Q141 716 137 725Q133 734 141 742L261 879Q271 891 288 891L366 891Q382 891 393 879L512 742Q520 734 516 725Q512 716 501 716L412 716Z"  horiz-adv-x="627" vert-adv-y="1000"  />

      
      <glyph glyph-name="unicb" unicode="&#xcb;" d="M551 140Q580 140 580 111L580 29Q580 0 551 0L103 0Q74 0 74 29L74 629Q74 658 103 658L534 658Q563 658 563 629L563 546Q563 517 534 517L232 517L232 408L500 408Q529 408 529 379L529 301Q529 272 500 272L232 272L232 140L551 140M252 839Q281 839 281 810L281 745Q281 716 252 716L142 716Q127 716 120 722Q113 728 113 745L113 810Q113 827 120 833Q127 839 142 839L252 839M499 839Q528 839 528 810L528 745Q528 716 499 716L389 716Q360 716 360 745L360 810Q360 839 389 839L499 839Z"  horiz-adv-x="627" vert-adv-y="1000"  />

      
      <glyph glyph-name="unicc" unicode="&#xcc;" d="M306 716L208 716Q201 716 195 717.50Q189 719 184 722.50Q179 726 176.50 728Q174 730 168.50 736Q163 742 161 744L61 852Q53 859 58 869.50Q63 880 80 880L207 880Q224 880 232.50 875Q241 870 252 852L319 744Q325 737 322 726.50Q319 716 306 716M403 140Q432 140 432 111L432 29Q432 0 403 0L92 0Q63 0 63 29L63 111Q63 140 92 140L169 140L169 518L108 518Q79 518 79 547L79 629Q79 658 108 658L386 658Q415 658 415 629L415 547Q415 518 386 518L326 518L326 140L403 140Z"  horiz-adv-x="488" vert-adv-y="1000"  />

      
      <glyph glyph-name="unicd" unicode="&#xcd;" d="M396 140Q425 140 425 111L425 29Q425 0 396 0L85 0Q56 0 56 29L56 111Q56 140 85 140L162 140L162 518L101 518Q72 518 72 547L72 629Q72 658 101 658L379 658Q408 658 408 629L408 547Q408 518 379 518L319 518L319 140L396 140M276 716L178 716Q165 716 162 726.50Q159 737 165 744L232 852Q243 870 251.50 875Q260 880 277 880L404 880Q421 880 426 869.50Q431 859 423 852L323 744Q321 742 315.50 736Q310 730 307.50 728Q305 726 300 722.50Q295 719 289 717.50Q283 716 276 716Z"  horiz-adv-x="484" vert-adv-y="1000"  />

      
      <glyph glyph-name="unice" unicode="&#xce;" d="M396 140Q425 140 425 111L425 29Q425 0 396 0L85 0Q56 0 56 29L56 111Q56 140 85 140L162 140L162 518L101 518Q72 518 72 547L72 629Q72 658 101 658L379 658Q408 658 408 629L408 547Q408 518 379 518L319 518L319 140L396 140M333 716Q316 716 299 737L248 799L197 737Q180 716 162 716L74 716Q62 716 58 725Q54 734 62 742L182 879Q192 891 209 891L287 891Q304 891 314 879L433 742Q441 734 437 725Q433 716 422 716L333 716Z"  horiz-adv-x="494" vert-adv-y="1000"  />

      
      <glyph glyph-name="unicf" unicode="&#xcf;" d="M419 140Q448 140 448 111L448 29Q448 0 419 0L108 0Q79 0 79 29L79 111Q79 140 108 140L185 140L185 518L124 518Q95 518 95 547L95 629Q95 658 124 658L402 658Q431 658 431 629L431 547Q431 518 402 518L342 518L342 140L419 140M195 839Q224 839 224 810L224 745Q224 716 195 716L85 716Q70 716 63 722Q56 728 56 745L56 810Q56 827 63 833Q70 839 85 839L195 839M442 839Q471 839 471 810L471 745Q471 716 442 716L332 716Q303 716 303 745L303 810Q303 839 332 839L442 839Z"  horiz-adv-x="527" vert-adv-y="1000"  />

      
      <glyph glyph-name="unid0" unicode="&#xd0;" d="M327 658Q391 658 450 635.50Q509 613 552.50 559.50Q596 506 596 433L596 225Q596 151 552.50 98Q509 45 450 22.50Q391 0 327 0L103 0Q74 0 74 29L74 255L33 255Q4 255 4 284L4 358Q4 387 33 387L74 387L74 629Q74 658 103 658L327 658M288 387Q317 387 317 358L317 284Q317 255 288 255L231 255L231 139L327 139Q378 139 408.50 165.50Q439 192 439 239L439 419Q439 466 408 492.50Q377 519 327 519L231 519L231 387L288 387Z"  horiz-adv-x="650" vert-adv-y="1000"  />

      
      <glyph glyph-name="unid1" unicode="&#xd1;" d="M579 658Q608 658 608 629L608 29Q608 0 579 0L488 0Q476 0 467.50 5.50Q459 11 455.50 15Q452 19 443 34L231 377L231 29Q231 0 202 0L103 0Q74 0 74 29L74 629Q74 658 103 658L197 658Q209 658 217.50 652.50Q226 647 229.50 643Q233 639 242 624L454 282L454 629Q454 658 483 658L579 658M531 847Q543 847 543 827L543 826Q543 780 513 748Q483 716 435 716Q403 716 354 734Q295 755 283 757Q256 761 248 734Q243 716 223 716L177 716Q165 716 165 736L165 737Q165 783 195 815Q225 847 273 847Q304 847 354 829Q413 808 425 806Q452 802 460 829Q465 847 485 847L531 847Z"  horiz-adv-x="682" vert-adv-y="1000"  />

      
      <glyph glyph-name="unid2" unicode="&#xd2;" d="M416 716L318 716Q311 716 305 717.50Q299 719 294 722.50Q289 726 286.50 728Q284 730 278.50 736Q273 742 271 744L171 852Q163 859 168 869.50Q173 880 190 880L317 880Q334 880 342.50 875Q351 870 362 852L429 744Q435 737 432 726.50Q429 716 416 716M591 447L591 211Q591 154 566 109.50Q541 65 501 38.50Q461 12 415-1.50Q369-15 322-15Q275-15 229.50-1.50Q184 12 144 38.50Q104 65 79.50 109.50Q55 154 55 211L55 447Q55 504 79.50 548.50Q104 593 144 619.50Q184 646 229.50 659.50Q275 673 322 673Q369 673 415 659.50Q461 646 501 619.50Q541 593 566 548.50Q591 504 591 447M434 225L434 433Q434 480 403 507Q372 534 322 534Q272 534 241.50 507Q211 480 211 433L211 225Q211 178 241.50 151Q272 124 322 124Q372 124 403 151Q434 178 434 225Z"  horiz-adv-x="645" vert-adv-y="1000"  />

      
      <glyph glyph-name="unid3" unicode="&#xd3;" d="M591 447L591 211Q591 154 566 109.50Q541 65 501 38.50Q461 12 415-1.50Q369-15 322-15Q275-15 229.50-1.50Q184 12 144 38.50Q104 65 79.50 109.50Q55 154 55 211L55 447Q55 504 79.50 548.50Q104 593 144 619.50Q184 646 229.50 659.50Q275 673 322 673Q369 673 415 659.50Q461 646 501 619.50Q541 593 566 548.50Q591 504 591 447M434 225L434 433Q434 480 403 507Q372 534 322 534Q272 534 241.50 507Q211 480 211 433L211 225Q211 178 241.50 151Q272 124 322 124Q372 124 403 151Q434 178 434 225M326 716L228 716Q215 716 212 726.50Q209 737 215 744L282 852Q293 870 301.50 875Q310 880 327 880L454 880Q471 880 476 869.50Q481 859 473 852L373 744Q371 742 365.50 736Q360 730 357.50 728Q355 726 350 722.50Q345 719 339 717.50Q333 716 326 716Z"  horiz-adv-x="645" vert-adv-y="1000"  />

      
      <glyph glyph-name="unid4" unicode="&#xd4;" d="M591 447Q591 504 566 548.50Q541 593 501 619.50Q461 646 415 659.50Q369 673 322 673Q275 673 229.50 659.50Q184 646 144 619.50Q104 593 79.50 548.50Q55 504 55 447L55 211Q55 154 79.50 109.50Q104 65 144 38.50Q184 12 229.50-1.50Q275-15 322-15Q369-15 415-1.50Q461 12 501 38.50Q541 65 566 109.50Q591 154 591 211L591 447M434 433L434 225Q434 178 403 151Q372 124 322 124Q272 124 241.50 151Q211 178 211 225L211 433Q211 480 241.50 507Q272 534 322 534Q372 534 403 507Q434 480 434 433M408 716Q391 716 374 737L323 799L272 737Q255 716 237 716L149 716Q137 716 133 725Q129 734 137 742L257 879Q268 891 284 891L362 891Q378 891 389 879L508 742Q516 734 512 725Q508 716 497 716L408 716Z"  horiz-adv-x="645" vert-adv-y="1000"  />

      
      <glyph glyph-name="unid5" unicode="&#xd5;" d="M591 447Q591 504 566 548.50Q541 593 501 619.50Q461 646 415 659.50Q369 673 322 673Q275 673 229.50 659.50Q184 646 144 619.50Q104 593 79.50 548.50Q55 504 55 447L55 211Q55 154 79.50 109.50Q104 65 144 38.50Q184 12 229.50-1.50Q275-15 322-15Q369-15 415-1.50Q461 12 501 38.50Q541 65 566 109.50Q591 154 591 211L591 447M434 433L434 225Q434 178 403 151Q372 124 322 124Q272 124 241.50 151Q211 178 211 225L211 433Q211 480 241.50 507Q272 534 322 534Q372 534 403 507Q434 480 434 433M499 847Q511 847 511 827L511 826Q511 780 481 748Q451 716 403 716Q372 716 322 734Q263 755 251 757Q224 761 216 734Q211 716 191 716L145 716Q133 716 133 736L133 737Q133 783 163 815Q193 847 241 847Q272 847 322 829Q381 808 393 806Q420 802 428 829Q433 847 453 847L499 847Z"  horiz-adv-x="645" vert-adv-y="1000"  />

      
      <glyph glyph-name="unid6" unicode="&#xd6;" d="M591 447Q591 504 566 548.50Q541 593 501 619.50Q461 646 415 659.50Q369 673 322 673Q275 673 229.50 659.50Q184 646 144 619.50Q104 593 79.50 548.50Q55 504 55 447L55 211Q55 154 79.50 109.50Q104 65 144 38.50Q184 12 229.50-1.50Q275-15 322-15Q369-15 415-1.50Q461 12 501 38.50Q541 65 566 109.50Q591 154 591 211L591 447M434 433L434 225Q434 178 403 151Q372 124 322 124Q272 124 241.50 151Q211 178 211 225L211 433Q211 480 241.50 507Q272 534 322 534Q372 534 403 507Q434 480 434 433M253 839Q282 839 282 810L282 745Q282 716 253 716L143 716Q128 716 121 722Q114 728 114 745L114 810Q114 827 121 833Q128 839 143 839L253 839M500 839Q529 839 529 810L529 745Q529 716 500 716L390 716Q361 716 361 745L361 810Q361 839 390 839L500 839Z"  horiz-adv-x="645" vert-adv-y="1000"  />

      
      <glyph glyph-name="unid7" unicode="&#xd7;" d="M484 196Q505 175 484 155L429 99Q409 79 388 99L269 219L149 99Q129 79 108 99L53 155Q33 175 53 196L173 315L53 434Q33 455 53 475L108 531Q129 551 149 531L269 411L388 531Q409 551 429 531L484 475Q505 455 484 434L365 315L484 196Z"  horiz-adv-x="538" vert-adv-y="1000"  />

      
      <glyph glyph-name="unid8" unicode="&#xd8;" d="M591 447L591 211Q591 154 566 109.50Q541 65 501 38.50Q461 12 415-1.50Q369-15 322-15Q285-15 246-6L226-59Q215-86 195-86L132-86Q115-86 110.50-77Q106-68 109-58L146 37Q55 101 55 211L55 447Q55 504 79.50 548.50Q104 593 144 619.50Q184 646 229.50 659.50Q275 673 322 673Q355 673 393 665L417 726Q428 753 448 753L510 753Q527 753 531.50 744Q536 735 533 725L493 624Q591 559 591 447M434 225L434 433Q434 451 430 463L298 125Q305 124 322 124Q372 124 403 151Q434 178 434 225M211 225Q211 211 212 205L341 533Q338 533 331.50 533.50Q325 534 322 534Q272 534 241.50 507Q211 480 211 433L211 225Z"  horiz-adv-x="645" vert-adv-y="1000"  />

      
      <glyph glyph-name="unid9" unicode="&#xd9;" d="M566 658Q595 658 595 629L595 201Q595 145 570.50 101.50Q546 58 506.50 33.50Q467 9 422-3Q377-15 330-15Q283-15 238-3Q193 9 153.50 33.50Q114 58 90 101.50Q66 145 66 201L66 629Q66 658 95 658L194 658Q223 658 223 629L223 223Q223 176 251.50 150Q280 124 330 124Q380 124 409 150Q438 176 438 223L438 629Q438 658 467 658L566 658M416 716L318 716Q311 716 305 717.50Q299 719 294 722.50Q289 726 286.50 728Q284 730 278.50 736Q273 742 271 744L171 852Q163 859 168 869.50Q173 880 190 880L317 880Q334 880 342.50 875Q351 870 362 852L429 744Q435 737 432 726.50Q429 716 416 716Z"  horiz-adv-x="661" vert-adv-y="1000"  />

      
      <glyph glyph-name="unida" unicode="&#xda;" d="M566 658Q595 658 595 629L595 201Q595 145 570.50 101.50Q546 58 506.50 33.50Q467 9 422-3Q377-15 330-15Q283-15 238-3Q193 9 153.50 33.50Q114 58 90 101.50Q66 145 66 201L66 629Q66 658 95 658L194 658Q223 658 223 629L223 223Q223 176 251.50 150Q280 124 330 124Q380 124 409 150Q438 176 438 223L438 629Q438 658 467 658L566 658M338 716L240 716Q227 716 224 726.50Q221 737 227 744L294 852Q305 870 313.50 875Q322 880 339 880L466 880Q483 880 488 869.50Q493 859 485 852L385 744Q383 742 377.50 736Q372 730 369.50 728Q367 726 362 722.50Q357 719 351 717.50Q345 716 338 716Z"  horiz-adv-x="661" vert-adv-y="1000"  />

      
      <glyph glyph-name="unidb" unicode="&#xdb;" d="M566 658Q595 658 595 629L595 201Q595 145 570.50 101.50Q546 58 506.50 33.50Q467 9 422-3Q377-15 330-15Q283-15 238-3Q193 9 153.50 33.50Q114 58 90 101.50Q66 145 66 201L66 629Q66 658 95 658L194 658Q223 658 223 629L223 223Q223 176 251.50 150Q280 124 330 124Q380 124 409 150Q438 176 438 223L438 629Q438 658 467 658L566 658M415 716Q398 716 381 737L330 799L279 737Q262 716 244 716L156 716Q144 716 140 725Q136 734 144 742L264 879Q275 891 291 891L369 891Q386 891 396 879L515 742Q523 734 519 725Q515 716 504 716L415 716Z"  horiz-adv-x="661" vert-adv-y="1000"  />

      
      <glyph glyph-name="unidc" unicode="&#xdc;" d="M262 839Q291 839 291 810L291 745Q291 716 262 716L152 716Q137 716 130 722Q123 728 123 745L123 810Q123 827 130 833Q137 839 152 839L262 839M509 839Q538 839 538 810L538 745Q538 716 509 716L399 716Q370 716 370 745L370 810Q370 839 399 839L509 839M566 658Q595 658 595 629L595 201Q595 145 570.50 101.50Q546 58 506.50 33.50Q467 9 422-3Q377-15 330-15Q283-15 238-3Q193 9 153.50 33.50Q114 58 90 101.50Q66 145 66 201L66 629Q66 658 95 658L194 658Q223 658 223 629L223 223Q223 176 251.50 150Q280 124 330 124Q380 124 409 150Q438 176 438 223L438 629Q438 658 467 658L566 658Z"  horiz-adv-x="661" vert-adv-y="1000"  />

      
      <glyph glyph-name="unidd" unicode="&#xdd;" d="M575 658Q588 658 592 648Q596 638 591 630L385 247L385 29Q385 0 356 0L256 0Q241 0 234 6Q227 12 227 29L227 247L13 630Q8 638 12 648Q16 658 29 658L144 658Q162 658 171.50 652.50Q181 647 191 628L308 413L421 628Q430 647 439.50 652.50Q449 658 467 658L575 658M341 716L243 716Q230 716 227 726.50Q224 737 230 744L297 852Q308 870 316.50 875Q325 880 342 880L469 880Q486 880 491 869.50Q496 859 488 852L388 744Q386 742 380.50 736Q375 730 372.50 728Q370 726 365 722.50Q360 719 354 717.50Q348 716 341 716Z"  horiz-adv-x="604" vert-adv-y="1000"  />

      
      <glyph glyph-name="unide" unicode="&#xde;" d="M328 563Q454 563 522 500Q590 437 590 331Q590 225 521.50 162.50Q453 100 327 100L231 100L231 29Q231 0 202 0L103 0Q74 0 74 29L74 631Q74 660 103 660L202 660Q231 660 231 631L231 563L328 563M327 235Q382 235 410.50 261.50Q439 288 439 328Q439 370 411 396Q383 422 327 422L231 422L231 235L327 235Z"  horiz-adv-x="628" vert-adv-y="1000"  />

      
      <glyph glyph-name="unidf" unicode="&#xdf;" d="M515 347Q520 345 528 340.50Q536 336 550.50 323.50Q565 311 576.50 295Q588 279 597 252.50Q606 226 606 196Q606 103 540.50 52.50Q475 2 368 2L343 2L312 2Q283 2 283 31L283 115Q283 144 312 144L373 144Q452 144 452 211Q452 243 429 258.50Q406 274 371 274L344 274Q315 274 315 303L315 379Q315 408 344 408L359 408Q442 408 442 470Q442 528 359 528Q293 528 261.50 497.50Q230 467 230 399L230-86Q230-115 201-115L103-115Q74-115 74-86L74 430Q76 541 155.50 605Q235 669 354 669Q469 669 528.50 616Q588 563 588 486Q588 451 578.50 423Q569 395 555 379.50Q541 364 531.50 357Q522 350 515 347Z"  horiz-adv-x="658" vert-adv-y="1000"  />

      
      <glyph glyph-name="unie0" unicode="&#xe0;" d="M640 28Q652 0 623 0L518 0Q501 0 493.50 6Q486 12 480 30L452 109L207 109L179 30Q173 12 165.50 6Q158 0 141 0L36 0Q7 0 19 28L241 627Q253 658 282 658L378 658Q406 658 419 627L640 28M255 249L405 249L330 470L255 249M387 744L289 744Q282 744 276 745.50Q270 747 265 750.50Q260 754 257.50 756Q255 758 249.50 764Q244 770 242 772L142 880Q134 887 139 897.50Q144 908 161 908L288 908Q305 908 313.50 903Q322 898 333 880L400 772Q406 765 403 754.50Q400 744 387 744Z"  horiz-adv-x="655" vert-adv-y="1000"  />

      
      <glyph glyph-name="unie1" unicode="&#xe1;" d="M640 28Q652 0 623 0L518 0Q501 0 493.50 6Q486 12 480 30L452 109L207 109L179 30Q173 12 165.50 6Q158 0 141 0L36 0Q7 0 19 28L241 627Q253 658 282 658L378 658Q406 658 419 627L640 28M255 249L405 249L330 470L255 249M366 740L268 740Q255 740 252 750.50Q249 761 255 768L322 876Q333 894 341.50 899Q350 904 367 904L494 904Q511 904 516 893.50Q521 883 513 876L413 768Q411 766 405.50 760Q400 754 397.50 752Q395 750 390 746.50Q385 743 379 741.50Q373 740 366 740Z"  horiz-adv-x="655" vert-adv-y="1000"  />

      
      <glyph glyph-name="unie2" unicode="&#xe2;" d="M640 28Q652 0 623 0L518 0Q501 0 493.50 6Q486 12 480 30L452 109L207 109L179 30Q173 12 165.50 6Q158 0 141 0L36 0Q7 0 19 28L241 627Q253 658 282 658L378 658Q406 658 419 627L640 28M255 249L405 249L330 470L255 249M419 737Q402 737 385 758L334 820L283 758Q266 737 248 737L160 737Q148 737 144 746.50Q140 756 148 763L268 900Q278 912 295 912L373 912Q390 912 400 900L519 763Q527 756 523 746.50Q519 737 508 737L419 737Z"  horiz-adv-x="655" vert-adv-y="1000"  />

      
      <glyph glyph-name="unie3" unicode="&#xe3;" d="M640 28Q652 0 623 0L518 0Q501 0 493.50 6Q486 12 480 30L452 109L207 109L179 30Q173 12 165.50 6Q158 0 141 0L36 0Q7 0 19 28L241 627Q253 658 282 658L378 658Q406 658 419 627L640 28M255 249L405 249L330 470L255 249M502 864Q514 864 514 844L514 843Q514 797 484 765Q454 733 406 733Q374 733 325 751Q266 772 254 774Q227 778 219 751Q214 733 194 733L148 733Q136 733 136 753L136 754Q136 800 166 832Q196 864 244 864Q276 864 325 846Q384 825 396 823Q423 819 431 846Q436 864 456 864L502 864Z"  horiz-adv-x="655" vert-adv-y="1000"  />

      
      <glyph glyph-name="unie4" unicode="&#xe4;" d="M640 28Q652 0 623 0L518 0Q501 0 493.50 6Q486 12 480 30L452 109L207 109L179 30Q173 12 165.50 6Q158 0 141 0L36 0Q7 0 19 28L241 627Q253 658 282 658L378 658Q406 658 419 627L640 28M255 249L405 249L330 470L255 249M263 866Q292 866 292 837L292 772Q292 743 263 743L153 743Q138 743 131 749Q124 755 124 772L124 837Q124 854 131 860Q138 866 153 866L263 866M510 866Q539 866 539 837L539 772Q539 743 510 743L400 743Q371 743 371 772L371 837Q371 866 400 866L510 866Z"  horiz-adv-x="655" vert-adv-y="1000"  />

      
      <glyph glyph-name="unie5" unicode="&#xe5;" d="M255 249L405 249L330 470L255 249M293 780.50Q293 780.50 285 772.75Q277 765 277 744Q277 723 293 707Q309 691 330 691Q351 691 366.50 707Q382 723 382 744Q382 764 366 780Q350 796 330 796Q309 796 293 780.50M217 744Q217 790 250.50 823Q284 856 330 856Q376 856 409 823Q442 790 442 744Q442 689 397 654Q409 648 419 627L640 28Q652 0 623 0L518 0Q501 0 493.50 6Q486 12 480 30L452 109L207 109L179 30Q173 12 165.50 6Q158 0 141 0L36 0Q7 0 19 28L241 627Q249 647 262 654Q217 686 217 744Z"  horiz-adv-x="655" vert-adv-y="1000"  />

      
      <glyph glyph-name="unie6" unicode="&#xe6;" d="M895 140Q924 140 924 111L924 29Q924 0 895 0L471 0Q442 0 442 24L442 109L230 109L192 30Q176 0 147 0L30 0Q20 0 15.50 9Q11 18 16 28L300 619Q320 659 353 659L878 659Q907 659 907 630L907 548Q907 519 878 519L592 519L592 408L844 408Q873 408 873 379L873 301Q873 272 844 272L592 272L592 140L895 140M442 250L442 520L410 520L288 250L442 250Z"  horiz-adv-x="970" vert-adv-y="1000"  />

      
      <glyph glyph-name="unie7" unicode="&#xe7;" d="M581 195Q581 118 523.50 64Q466 10 383-8L368-44Q412-49 439-75Q466-101 468.50-135.50Q471-170 459.50-204Q448-238 414.50-261Q381-284 336-284L269-284Q208-284 173-247Q152-226 160.50-200Q169-174 192.50-167.50Q216-161 240-179Q255-192 271-192L334-192Q355-192 364-173Q373-154 364.50-135Q356-116 334-115L262-115Q236-115 248-87L284-13Q190-2 121.50 55Q53 112 53 211L53 447Q53 503 78 548Q103 593 143 619.50Q183 646 228.50 659.50Q274 673 321 673Q421 673 496.50 623Q572 573 581 483Q581 465 574.50 459.50Q568 454 550 454L454 454Q445 454 439.50 458.50Q434 463 430 472.50Q426 482 424 485Q393 533 321 533Q271 533 240.50 506.50Q210 480 210 433L210 225Q210 178 240.50 151.50Q271 125 321 125Q415 125 426 193Q428 206 429.50 212Q431 218 437 223.50Q443 229 453 229L551 229Q581 229 581 195Z"  horiz-adv-x="632" vert-adv-y="1000"  />

      
      <glyph glyph-name="unie8" unicode="&#xe8;" d="M551 140Q580 140 580 111L580 29Q580 0 551 0L103 0Q74 0 74 29L74 629Q74 658 103 658L534 658Q563 658 563 629L563 546Q563 517 534 517L232 517L232 408L500 408Q529 408 529 379L529 301Q529 272 500 272L232 272L232 140L551 140M408 730L310 730Q303 730 297 731.50Q291 733 286 736.50Q281 740 278.50 742Q276 744 270.50 750Q265 756 263 758L163 866Q155 873 160 883.50Q165 894 182 894L309 894Q326 894 334.50 889Q343 884 354 866L421 758Q427 751 424 740.50Q421 730 408 730Z"  horiz-adv-x="627" vert-adv-y="1000"  />

      
      <glyph glyph-name="unie9" unicode="&#xe9;" d="M551 140Q580 140 580 111L580 29Q580 0 551 0L103 0Q74 0 74 29L74 629Q74 658 103 658L534 658Q563 658 563 629L563 546Q563 517 534 517L232 517L232 408L500 408Q529 408 529 379L529 301Q529 272 500 272L232 272L232 140L551 140M354 735L256 735Q243 735 240 745.50Q237 756 243 763L310 871Q321 889 329.50 894Q338 899 355 899L482 899Q499 899 504 888.50Q509 878 501 871L401 763Q399 761 393.50 755Q388 749 385.50 747Q383 745 378 741.50Q373 738 367 736.50Q361 735 354 735Z"  horiz-adv-x="627" vert-adv-y="1000"  />

      
      <glyph glyph-name="uniea" unicode="&#xea;" d="M551 140Q580 140 580 111L580 29Q580 0 551 0L103 0Q74 0 74 29L74 629Q74 658 103 658L534 658Q563 658 563 629L563 546Q563 517 534 517L232 517L232 408L500 408Q529 408 529 379L529 301Q529 272 500 272L232 272L232 140L551 140M405 736Q388 736 371 757L320 819L269 757Q252 736 234 736L146 736Q134 736 130 745Q126 754 134 762L254 899Q264 911 281 911L359 911Q376 911 386 899L505 762Q513 754 509 745Q505 736 494 736L405 736Z"  horiz-adv-x="627" vert-adv-y="1000"  />

      
      <glyph glyph-name="unieb" unicode="&#xeb;" d="M551 140Q580 140 580 111L580 29Q580 0 551 0L103 0Q74 0 74 29L74 629Q74 658 103 658L534 658Q563 658 563 629L563 546Q563 517 534 517L232 517L232 408L500 408Q529 408 529 379L529 301Q529 272 500 272L232 272L232 140L551 140M257 857Q286 857 286 828L286 763Q286 734 257 734L147 734Q132 734 125 740Q118 746 118 763L118 828Q118 845 125 851Q132 857 147 857L257 857M504 857Q533 857 533 828L533 763Q533 734 504 734L394 734Q365 734 365 763L365 828Q365 857 394 857L504 857Z"  horiz-adv-x="627" vert-adv-y="1000"  />

      
      <glyph glyph-name="uniec" unicode="&#xec;" d="M382 137Q411 137 411 108L411 29Q411 0 382 0L99 0Q70 0 70 29L70 108Q70 137 99 137L162 137L162 519L101 519Q72 519 72 548L72 629Q72 658 101 658L379 658Q408 658 408 629L408 548Q408 519 379 519L319 519L319 137L382 137M311 733L213 733Q206 733 200 734.50Q194 736 189 739.50Q184 743 181.50 745Q179 747 173.50 753Q168 759 166 761L66 869Q58 876 63 886.50Q68 897 85 897L212 897Q229 897 237.50 892Q246 887 257 869L324 761Q330 754 327 743.50Q324 733 311 733Z"  horiz-adv-x="481" vert-adv-y="1000"  />

      
      <glyph glyph-name="unied" unicode="&#xed;" d="M382 137Q411 137 411 108L411 29Q411 0 382 0L99 0Q70 0 70 29L70 108Q70 137 99 137L162 137L162 519L101 519Q72 519 72 548L72 629Q72 658 101 658L379 658Q408 658 408 629L408 548Q408 519 379 519L319 519L319 137L382 137M268 727L170 727Q157 727 154 737.50Q151 748 157 755L224 863Q235 881 243.50 886Q252 891 269 891L396 891Q413 891 418 880.50Q423 870 415 863L315 755Q313 753 307.50 747Q302 741 299.50 739Q297 737 292 733.50Q287 730 281 728.50Q275 727 268 727Z"  horiz-adv-x="481" vert-adv-y="1000"  />

      
      <glyph glyph-name="uniee" unicode="&#xee;" d="M382 137Q411 137 411 108L411 29Q411 0 382 0L99 0Q70 0 70 29L70 108Q70 137 99 137L162 137L162 519L101 519Q72 519 72 548L72 629Q72 658 101 658L379 658Q408 658 408 629L408 548Q408 519 379 519L319 519L319 137L382 137M326 735Q309 735 292 756L241 818L190 756Q173 735 155 735L67 735Q55 735 51 744.50Q47 754 55 761L175 898Q186 910 202 910L280 910Q296 910 307 898L426 761Q434 754 430 744.50Q426 735 415 735L326 735Z"  horiz-adv-x="481" vert-adv-y="1000"  />

      
      <glyph glyph-name="unief" unicode="&#xef;" d="M382 137Q411 137 411 108L411 29Q411 0 382 0L99 0Q70 0 70 29L70 108Q70 137 99 137L162 137L162 519L101 519Q72 519 72 548L72 629Q72 658 101 658L379 658Q408 658 408 629L408 548Q408 519 379 519L319 519L319 137L382 137M176 857Q205 857 205 827L205 761Q205 732 176 732L68 732Q40 732 40 761L40 827Q40 844 47 850.50Q54 857 68 857L176 857M419 857Q448 857 448 827L448 761Q448 732 419 732L311 732Q283 732 283 761L283 827Q283 844 290 850.50Q297 857 311 857L419 857Z"  horiz-adv-x="481" vert-adv-y="1000"  />

      
      <glyph glyph-name="unif0" unicode="&#xf0;" d="M327 658Q391 658 450 635.50Q509 613 552.50 559.50Q596 506 596 433L596 225Q596 151 552.50 98Q509 45 450 22.50Q391 0 327 0L103 0Q74 0 74 29L74 255L33 255Q4 255 4 284L4 358Q4 387 33 387L74 387L74 629Q74 658 103 658L327 658M288 387Q317 387 317 358L317 284Q317 255 288 255L231 255L231 139L327 139Q378 139 408.50 165.50Q439 192 439 239L439 419Q439 466 408 492.50Q377 519 327 519L231 519L231 387L288 387Z"  horiz-adv-x="650" vert-adv-y="1000"  />

      
      <glyph glyph-name="unif1" unicode="&#xf1;" d="M579 658Q608 658 608 629L608 29Q608 0 579 0L488 0Q476 0 467.50 5.50Q459 11 455.50 15Q452 19 443 34L231 377L231 29Q231 0 202 0L103 0Q74 0 74 29L74 629Q74 658 103 658L197 658Q209 658 217.50 652.50Q226 647 229.50 643Q233 639 242 624L454 282L454 629Q454 658 483 658L579 658M514 861Q526 861 526 841L526 840Q526 794 496 762Q466 730 418 730Q387 730 337 748Q278 769 266 771Q239 775 231 748Q226 730 206 730L160 730Q148 730 148 750L148 751Q148 797 178 829Q208 861 256 861Q288 861 337 843Q396 822 408 820Q435 816 443 843Q448 861 468 861L514 861Z"  horiz-adv-x="682" vert-adv-y="1000"  />

      
      <glyph glyph-name="unif2" unicode="&#xf2;" d="M591 447L591 211Q591 154 566 109.50Q541 65 501 38.50Q461 12 415-1.50Q369-15 322-15Q275-15 229.50-1.50Q184 12 144 38.50Q104 65 79.50 109.50Q55 154 55 211L55 447Q55 504 79.50 548.50Q104 593 144 619.50Q184 646 229.50 659.50Q275 673 322 673Q369 673 415 659.50Q461 646 501 619.50Q541 593 566 548.50Q591 504 591 447M434 225L434 433Q434 480 403 507Q372 534 322 534Q272 534 241.50 507Q211 480 211 433L211 225Q211 178 241.50 151Q272 124 322 124Q372 124 403 151Q434 178 434 225M392 734L294 734Q287 734 281 735.50Q275 737 270 740.50Q265 744 262.50 746Q260 748 254.50 754Q249 760 247 762L147 870Q139 877 144 887.50Q149 898 166 898L293 898Q310 898 318.50 893Q327 888 338 870L405 762Q411 755 408 744.50Q405 734 392 734Z"  horiz-adv-x="645" vert-adv-y="1000"  />

      
      <glyph glyph-name="unif3" unicode="&#xf3;" d="M591 447L591 211Q591 154 566 109.50Q541 65 501 38.50Q461 12 415-1.50Q369-15 322-15Q275-15 229.50-1.50Q184 12 144 38.50Q104 65 79.50 109.50Q55 154 55 211L55 447Q55 504 79.50 548.50Q104 593 144 619.50Q184 646 229.50 659.50Q275 673 322 673Q369 673 415 659.50Q461 646 501 619.50Q541 593 566 548.50Q591 504 591 447M434 225L434 433Q434 480 403 507Q372 534 322 534Q272 534 241.50 507Q211 480 211 433L211 225Q211 178 241.50 151Q272 124 322 124Q372 124 403 151Q434 178 434 225M350 738L252 738Q239 738 236 748.50Q233 759 239 766L306 874Q317 892 325.50 897Q334 902 351 902L478 902Q495 902 500 891.50Q505 881 497 874L397 766Q395 764 389.50 758Q384 752 381.50 750Q379 748 374 744.50Q369 741 363 739.50Q357 738 350 738Z"  horiz-adv-x="645" vert-adv-y="1000"  />

      
      <glyph glyph-name="unif4" unicode="&#xf4;" d="M591 447L591 211Q591 154 566 109.50Q541 65 501 38.50Q461 12 415-1.50Q369-15 322-15Q275-15 229.50-1.50Q184 12 144 38.50Q104 65 79.50 109.50Q55 154 55 211L55 447Q55 504 79.50 548.50Q104 593 144 619.50Q184 646 229.50 659.50Q275 673 322 673Q369 673 415 659.50Q461 646 501 619.50Q541 593 566 548.50Q591 504 591 447M434 225L434 433Q434 480 403 507Q372 534 322 534Q272 534 241.50 507Q211 480 211 433L211 225Q211 178 241.50 151Q272 124 322 124Q372 124 403 151Q434 178 434 225M408 734Q391 734 374 755L323 817L272 755Q255 734 237 734L149 734Q137 734 133 743Q129 752 137 760L257 897Q268 909 284 909L362 909Q378 909 389 897L508 760Q516 752 512 743Q508 734 497 734L408 734Z"  horiz-adv-x="645" vert-adv-y="1000"  />

      
      <glyph glyph-name="unif5" unicode="&#xf5;" d="M591 447L591 211Q591 154 566 109.50Q541 65 501 38.50Q461 12 415-1.50Q369-15 322-15Q275-15 229.50-1.50Q184 12 144 38.50Q104 65 79.50 109.50Q55 154 55 211L55 447Q55 504 79.50 548.50Q104 593 144 619.50Q184 646 229.50 659.50Q275 673 322 673Q369 673 415 659.50Q461 646 501 619.50Q541 593 566 548.50Q591 504 591 447M434 225L434 433Q434 480 403 507Q372 534 322 534Q272 534 241.50 507Q211 480 211 433L211 225Q211 178 241.50 151Q272 124 322 124Q372 124 403 151Q434 178 434 225M501 865Q513 865 513 845L513 844Q513 798 483 766Q453 734 405 734Q374 734 324 752Q265 773 253 775Q226 779 218 752Q213 734 193 734L147 734Q135 734 135 754L135 755Q135 801 165 833Q195 865 243 865Q274 865 324 847Q383 826 395 824Q422 820 430 847Q435 865 455 865L501 865Z"  horiz-adv-x="645" vert-adv-y="1000"  />

      
      <glyph glyph-name="unif6" unicode="&#xf6;" d="M591 447L591 211Q591 154 566 109.50Q541 65 501 38.50Q461 12 415-1.50Q369-15 322-15Q275-15 229.50-1.50Q184 12 144 38.50Q104 65 79.50 109.50Q55 154 55 211L55 447Q55 504 79.50 548.50Q104 593 144 619.50Q184 646 229.50 659.50Q275 673 322 673Q369 673 415 659.50Q461 646 501 619.50Q541 593 566 548.50Q591 504 591 447M434 225L434 433Q434 480 403 507Q372 534 322 534Q272 534 241.50 507Q211 480 211 433L211 225Q211 178 241.50 151Q272 124 322 124Q372 124 403 151Q434 178 434 225M254 860Q283 860 283 831L283 766Q283 737 254 737L144 737Q129 737 122 743Q115 749 115 766L115 831Q115 848 122 854Q129 860 144 860L254 860M501 860Q530 860 530 831L530 766Q530 737 501 737L391 737Q362 737 362 766L362 831Q362 860 391 860L501 860Z"  horiz-adv-x="645" vert-adv-y="1000"  />

      
      <glyph glyph-name="unif7" unicode="&#xf7;" d="M275 567Q312 567 338.50 540.50Q365 514 365 477Q365 440 338.50 413.50Q312 387 275 387Q237 387 210.50 413.50Q184 440 184 477Q184 514 210.50 540.50Q237 567 275 567M275 166Q312 166 338.50 140Q365 114 365 76Q365 38 338.50 11.50Q312-15 275-15Q238-15 211 11.50Q184 38 184 76Q184 113 210.50 139.50Q237 166 275 166M477 345Q506 345 506 316L506 238Q506 209 477 209L72 209Q43 209 43 238L43 316Q43 345 72 345L477 345Z"  horiz-adv-x="556" vert-adv-y="1000"  />

      
      <glyph glyph-name="unif8" unicode="&#xf8;" d="M591 447L591 211Q591 154 566 109.50Q541 65 501 38.50Q461 12 415-1.50Q369-15 322-15Q285-15 246-6L226-59Q215-86 195-86L132-86Q115-86 110.50-77Q106-68 109-58L146 37Q55 101 55 211L55 447Q55 504 79.50 548.50Q104 593 144 619.50Q184 646 229.50 659.50Q275 673 322 673Q355 673 393 665L417 726Q428 753 448 753L510 753Q527 753 531.50 744Q536 735 533 725L493 624Q591 559 591 447M434 225L434 433Q434 451 430 463L298 125Q305 124 322 124Q372 124 403 151Q434 178 434 225M211 225Q211 211 212 205L341 533Q338 533 331.50 533.50Q325 534 322 534Q272 534 241.50 507Q211 480 211 433L211 225Z"  horiz-adv-x="645" vert-adv-y="1000"  />

      
      <glyph glyph-name="unif9" unicode="&#xf9;" d="M566 658Q595 658 595 629L595 201Q595 145 570.50 101.50Q546 58 506.50 33.50Q467 9 422-3Q377-15 330-15Q283-15 238-3Q193 9 153.50 33.50Q114 58 90 101.50Q66 145 66 201L66 629Q66 658 95 658L194 658Q223 658 223 629L223 223Q223 176 251.50 150Q280 124 330 124Q380 124 409 150Q438 176 438 223L438 629Q438 658 467 658L566 658M403 734L305 734Q298 734 292 735.50Q286 737 281 740.50Q276 744 273.50 746Q271 748 265.50 754Q260 760 258 762L158 870Q150 877 155 887.50Q160 898 177 898L304 898Q321 898 329.50 893Q338 888 349 870L416 762Q422 755 419 744.50Q416 734 403 734Z"  horiz-adv-x="661" vert-adv-y="1000"  />

      
      <glyph glyph-name="unifa" unicode="&#xfa;" d="M566 658Q595 658 595 629L595 201Q595 145 570.50 101.50Q546 58 506.50 33.50Q467 9 422-3Q377-15 330-15Q283-15 238-3Q193 9 153.50 33.50Q114 58 90 101.50Q66 145 66 201L66 629Q66 658 95 658L194 658Q223 658 223 629L223 223Q223 176 251.50 150Q280 124 330 124Q380 124 409 150Q438 176 438 223L438 629Q438 658 467 658L566 658M360 728L262 728Q249 728 246 738.50Q243 749 249 756L316 864Q327 882 335.50 887Q344 892 361 892L488 892Q505 892 510 881.50Q515 871 507 864L407 756Q405 754 399.50 748Q394 742 391.50 740Q389 738 384 734.50Q379 731 373 729.50Q367 728 360 728Z"  horiz-adv-x="661" vert-adv-y="1000"  />

      
      <glyph glyph-name="unifb" unicode="&#xfb;" d="M566 658Q595 658 595 629L595 201Q595 145 570.50 101.50Q546 58 506.50 33.50Q467 9 422-3Q377-15 330-15Q283-15 238-3Q193 9 153.50 33.50Q114 58 90 101.50Q66 145 66 201L66 629Q66 658 95 658L194 658Q223 658 223 629L223 223Q223 176 251.50 150Q280 124 330 124Q380 124 409 150Q438 176 438 223L438 629Q438 658 467 658L566 658M422 737Q405 737 388 758L337 820L286 758Q269 737 251 737L163 737Q151 737 147 746.50Q143 756 151 763L271 900Q282 912 298 912L376 912Q392 912 403 900L522 763Q530 756 526 746.50Q522 737 511 737L422 737Z"  horiz-adv-x="661" vert-adv-y="1000"  />

      
      <glyph glyph-name="unifc" unicode="&#xfc;" d="M566 658Q595 658 595 629L595 201Q595 145 570.50 101.50Q546 58 506.50 33.50Q467 9 422-3Q377-15 330-15Q283-15 238-3Q193 9 153.50 33.50Q114 58 90 101.50Q66 145 66 201L66 629Q66 658 95 658L194 658Q223 658 223 629L223 223Q223 176 251.50 150Q280 124 330 124Q380 124 409 150Q438 176 438 223L438 629Q438 658 467 658L566 658M260 867Q289 867 289 838L289 773Q289 744 260 744L150 744Q135 744 128 750Q121 756 121 773L121 838Q121 855 128 861Q135 867 150 867L260 867M507 867Q536 867 536 838L536 773Q536 744 507 744L397 744Q368 744 368 773L368 838Q368 867 397 867L507 867Z"  horiz-adv-x="661" vert-adv-y="1000"  />

      
      <glyph glyph-name="unifd" unicode="&#xfd;" d="M575 658Q588 658 592 648Q596 638 591 630L385 247L385 29Q385 0 356 0L256 0Q241 0 234 6Q227 12 227 29L227 247L13 630Q8 638 12 648Q16 658 29 658L144 658Q162 658 171.50 652.50Q181 647 191 628L308 413L421 628Q430 647 439.50 652.50Q449 658 467 658L575 658M337 731L239 731Q226 731 223 741.50Q220 752 226 759L293 867Q304 885 312.50 890Q321 895 338 895L465 895Q482 895 487 884.50Q492 874 484 867L384 759Q382 757 376.50 751Q371 745 368.50 743Q366 741 361 737.50Q356 734 350 732.50Q344 731 337 731Z"  horiz-adv-x="604" vert-adv-y="1000"  />

      
      <glyph glyph-name="unife" unicode="&#xfe;" d="M328 563Q454 563 522 500Q590 437 590 331Q590 225 521.50 162.50Q453 100 327 100L231 100L231 29Q231 0 202 0L103 0Q74 0 74 29L74 631Q74 660 103 660L202 660Q231 660 231 631L231 563L328 563M327 235Q382 235 410.50 261.50Q439 288 439 328Q439 370 411 396Q383 422 327 422L231 422L231 235L327 235Z"  horiz-adv-x="628" vert-adv-y="1000"  />

      
      <glyph glyph-name="uni0152" unicode="&#x0152;" d="M848 140Q877 140 877 111L877 29Q877 0 848 0L312 0Q266 1 221 15Q176 29 136.50 55.50Q97 82 72.50 126.50Q48 171 48 227L48 431Q48 505 90.50 558.50Q133 612 191 635Q249 658 312 658L832 658Q860 658 860 629L860 547Q860 518 832 518L577 518L577 407L797 407Q826 407 826 378L826 300Q826 271 797 271L577 271L577 140L848 140M429 135L429 524L317 524Q268 524 237 491Q206 458 206 409L206 249Q206 200 237 167.50Q268 135 317 135L429 135Z"  horiz-adv-x="923" vert-adv-y="1000"  />

      
      <glyph glyph-name="uni0153" unicode="&#x0153;" d="M848 140Q877 140 877 111L877 29Q877 0 848 0L312 0Q266 1 221 15Q176 29 136.50 55.50Q97 82 72.50 126.50Q48 171 48 227L48 431Q48 505 90.50 558.50Q133 612 191 635Q249 658 312 658L832 658Q860 658 860 629L860 547Q860 518 832 518L577 518L577 407L797 407Q826 407 826 378L826 300Q826 271 797 271L577 271L577 140L848 140M429 135L429 524L317 524Q268 524 237 491Q206 458 206 409L206 249Q206 200 237 167.50Q268 135 317 135L429 135Z"  horiz-adv-x="923" vert-adv-y="1000"  />

      
      <glyph glyph-name="uni0160" unicode="&#x0160;" d="M384 382Q417 372 431.50 367Q446 362 476.50 346Q507 330 521.50 313Q536 296 549 265Q562 234 562 195Q562 92 489 38.50Q416-15 296-15Q231-15 171 8Q111 31 69 81Q27 131 27 197Q27 214 33 219.50Q39 225 56 225L153 225Q172 225 180 220Q188 215 189 197Q191 176 208 156Q236 123 306 123Q352 123 378 137.50Q404 152 404 191Q404 207 395 218.50Q386 230 367 237.50Q348 245 329 249.50Q310 254 280 261.50Q250 269 230 275Q185 289 156 302.50Q127 316 96.50 338.50Q66 361 51 394.50Q36 428 36 474Q36 566 106.50 617.50Q177 669 279 673Q385 673 465 624Q545 575 545 483Q545 465 539.50 460Q534 455 516 455L418 455Q415 455 412 455.50Q409 456 406.50 457Q404 458 402 460Q400 462 399 463.50Q398 465 396.50 468Q395 471 394.50 472.50Q394 474 392.50 477.50Q391 481 391 482Q385 497 370 512Q342 539 285 539Q253 539 225 525Q197 511 197 481Q197 454 231 434.50Q265 415 323 399Q381 383 384 382M202 908Q220 908 237 887L288 825L339 887Q356 908 373 908L462 908Q473 908 477 899Q481 890 473 882L354 745Q344 733 327 733L249 733Q232 733 222 745L102 882Q94 890 98 899Q102 908 114 908L202 908Z"  horiz-adv-x="605" vert-adv-y="1000"  />

      
      <glyph glyph-name="uni0161" unicode="&#x0161;" d="M384 382Q417 372 431.50 367Q446 362 476.50 346Q507 330 521.50 313Q536 296 549 265Q562 234 562 195Q562 92 489 38.50Q416-15 296-15Q231-15 171 8Q111 31 69 81Q27 131 27 197Q27 214 33 219.50Q39 225 56 225L153 225Q172 225 180 220Q188 215 189 197Q191 176 208 156Q236 123 306 123Q352 123 378 137.50Q404 152 404 191Q404 207 395 218.50Q386 230 367 237.50Q348 245 329 249.50Q310 254 280 261.50Q250 269 230 275Q185 289 156 302.50Q127 316 96.50 338.50Q66 361 51 394.50Q36 428 36 474Q36 566 106.50 617.50Q177 669 279 673Q385 673 465 624Q545 575 545 483Q545 465 539.50 460Q534 455 516 455L418 455Q415 455 412 455.50Q409 456 406.50 457Q404 458 402 460Q400 462 399 463.50Q398 465 396.50 468Q395 471 394.50 472.50Q394 474 392.50 477.50Q391 481 391 482Q385 497 370 512Q342 539 285 539Q253 539 225 525Q197 511 197 481Q197 454 231 434.50Q265 415 323 399Q381 383 384 382M201 921Q219 921 236 900L287 838L338 900Q355 921 372 921L461 921Q472 921 476 911.50Q480 902 472 895L353 758Q342 746 326 746L248 746Q232 746 221 758L101 895Q93 902 97 911.50Q101 921 113 921L201 921Z"  horiz-adv-x="605" vert-adv-y="1000"  />

      
      <glyph glyph-name="uni0178" unicode="&#x0178;" d="M124 735Q95 735 95 764L95 829Q95 858 124 858L234 858Q263 858 263 829L263 764Q263 735 234 735L124 735M372 735Q343 735 343 764L343 829Q343 858 372 858L482 858Q511 858 511 829L511 764Q511 735 482 735L372 735M576 658Q589 658 593.50 648Q598 638 592 630L386 247L386 29Q386 0 357 0L257 0Q228 0 228 29L228 247L14 630Q9 638 13 648Q17 658 30 658L145 658Q163 658 172.50 652.50Q182 647 192 628L309 413L422 628Q432 647 441 652.50Q450 658 468 658L576 658Z"  horiz-adv-x="613" vert-adv-y="1000"  />

      
      <glyph glyph-name="uni017D" unicode="&#x017D;" d="M502 140Q531 140 531 111L531 29Q531 0 502 0L66 0Q47 0 41.50 5.50Q36 11 36 29L36 107Q36 117 39 126.50Q42 136 46 140L49 145L319 518L74 518Q45 518 45 547L45 629Q45 658 74 658L476 658Q505 658 505 629L505 551Q505 529 492 512L224 140L502 140M202 911Q220 911 237 890L288 828L339 890Q356 911 373 911L462 911Q473 911 477 901.50Q481 892 473 885L354 748Q344 736 327 736L249 736Q232 736 222 748L102 885Q94 892 98 901.50Q102 911 114 911L202 911Z"  horiz-adv-x="567" vert-adv-y="1000"  />

      
      <glyph glyph-name="uni017E" unicode="&#x017E;" d="M502 140Q531 140 531 111L531 29Q531 0 502 0L66 0Q47 0 41.50 5.50Q36 11 36 29L36 107Q36 117 39 126.50Q42 136 46 140L49 145L319 518L74 518Q45 518 45 547L45 629Q45 658 74 658L476 658Q505 658 505 629L505 551Q505 529 492 512L224 140L502 140M204 913Q222 913 239 892L290 830L341 892Q358 913 375 913L464 913Q475 913 479 903.50Q483 894 475 887L356 750Q346 738 329 738L251 738Q234 738 224 750L104 887Q96 894 100 903.50Q104 913 116 913L204 913Z"  horiz-adv-x="567" vert-adv-y="1000"  />

      
      <glyph glyph-name="uni02C6" unicode="&#x02C6;" d="M333 483Q316 483 299 504L248 566L197 504Q180 483 162 483L74 483Q62 483 58 492.50Q54 502 62 509L182 646Q192 658 209 658L287 658Q304 658 314 646L433 509Q441 502 437 492.50Q433 483 422 483L333 483Z"  horiz-adv-x="500" vert-adv-y="1000"  />

      
      <glyph glyph-name="uni02C7" unicode="&#x02C7;" d="M128 665Q146 665 163 644L214 582L265 644Q282 665 299 665L388 665Q399 665 403 655.50Q407 646 399 639L280 502Q270 490 253 490L175 490Q158 490 148 502L28 639Q20 646 24 655.50Q28 665 40 665L128 665Z"  horiz-adv-x="440" vert-adv-y="1000"  />

      
      <glyph glyph-name="uni02D8" unicode="&#x02D8;" d="M408 658Q417 658 417 638Q408 578 363 547Q318 516 253 515Q188 516 142.50 547Q97 578 89 638Q88 640 88 644Q88 648 90 653Q92 658 98 658L148 658Q157 658 164 642Q173 619 198.50 606Q224 593 253 593Q281 593 306.50 606Q332 619 342 642Q349 658 358 658L408 658Z"  horiz-adv-x="500" vert-adv-y="1000"  />

      
      <glyph glyph-name="uni02D9" unicode="&#x02D9;" d="M320 658Q349 658 349 629L349 564Q349 535 320 535L210 535Q195 535 188 541Q181 547 181 564L181 629Q181 646 188 652Q195 658 210 658L320 658Z"  horiz-adv-x="500" vert-adv-y="1000"  />

      
      <glyph glyph-name="uni02DA" unicode="&#x02DA;" d="M145 482.50Q145 482.50 128.50 499.25Q112 516 112 562Q112 608 145.50 641Q179 674 225 674Q271 674 304 641Q337 608 337 562Q337 516 304 482.50Q271 449 225 449Q178 449 145 482.50M188 598.50Q188 598.50 180 590.75Q172 583 172 562Q172 541 188 525Q204 509 225 509Q246 509 261.50 525Q277 541 277 562Q277 582 261 598Q245 614 225 614Q204 614 188 598.50Z"  horiz-adv-x="500" vert-adv-y="1000"  />

      
      <glyph glyph-name="uni02DC" unicode="&#x02DC;" d="M448 658Q460 658 460 638L460 637Q460 591 430 559Q400 527 352 527Q320 527 271 545Q212 566 200 568Q173 572 165 545Q160 527 140 527L94 527Q82 527 82 547L82 548Q82 594 112 626Q142 658 190 658Q222 658 271 640Q330 619 342 617Q369 613 377 640Q382 658 402 658L448 658Z"  horiz-adv-x="476" vert-adv-y="1000"  />

      
      <glyph glyph-name="uni02DD" unicode="&#x02DD;" d="M148 494L50 494Q37 494 34 504.50Q31 515 37 522L104 630Q115 648 123.50 653Q132 658 149 658L276 658Q293 658 298 647.50Q303 637 295 630L195 522Q193 520 187.50 514Q182 508 179.50 506Q177 504 172 500.50Q167 497 161 495.50Q155 494 148 494M419 494L321 494Q308 494 305 504.50Q302 515 308 522L375 630Q386 648 394.50 653Q403 658 420 658L547 658Q564 658 569 647.50Q574 637 566 630L466 522Q464 520 458.50 514Q453 508 450.50 506Q448 504 443 500.50Q438 497 432 495.50Q426 494 419 494Z"  horiz-adv-x="500" vert-adv-y="1000"  />

      
      <glyph glyph-name="uni0410" unicode="&#x0410;" d="M640 28Q652 0 623 0L518 0Q501 0 493.50 6Q486 12 480 30L452 109L207 109L179 30Q173 12 165.50 6Q158 0 141 0L36 0Q7 0 19 28L241 627Q253 658 282 658L378 658Q406 658 419 627L640 28M255 249L405 249L330 470L255 249Z"  horiz-adv-x="655" vert-adv-y="1000"  />

      
      <glyph glyph-name="uni0411" unicode="&#x0411;" d="M103 659L532 659Q561 659 561 630L561 553Q561 524 532 524L231 524L231 415L361 415Q495 415 558.50 366Q622 317 622 211Q622 0 359 0L103 0Q74 0 74 29L74 630Q74 659 103 659M361 284L231 284L231 138L358 138Q469 138 469 212Q469 250 444 267Q419 284 361 284Z"  horiz-adv-x="669" vert-adv-y="1000"  />

      
      <glyph glyph-name="uni0412" unicode="&#x0412;" d="M543 341Q548 339 556 335Q564 331 578.50 318.50Q593 306 605 290.50Q617 275 626 248.50Q635 222 635 192Q635 99 570 49.50Q505 0 397 0L103 0Q74 0 74 29L74 630Q74 659 103 659L383 659Q498 659 557 607Q616 555 616 478Q616 443 606.50 415.50Q597 388 582.50 372.50Q568 357 559 350.50Q550 344 543 341M399 142Q476 142 476 207Q476 268 393 268L370 268Q341 268 341 297L341 373Q341 402 370 402L383 402Q466 402 466 462Q466 494 445.50 506Q425 518 383 518L231 518L231 142L399 142Z"  horiz-adv-x="687" vert-adv-y="1000"  />

      
      <glyph glyph-name="uni0413" unicode="&#x0413;" d="M475 522L231 522L231 29Q231 0 202 0L103 0Q74 0 74 29L74 630Q74 659 103 659L475 659Q504 659 504 630L504 551Q504 522 475 522Z"  horiz-adv-x="540" vert-adv-y="1000"  />

      
      <glyph glyph-name="uni0414" unicode="&#x0414;" d="M534-52L534 11L168 11L168-52Q168-81 139-81L56-81Q27-81 27-52L27 120Q27 149 56 149Q94 149 107 165.50Q120 182 123 215L155 629Q155 658 184 658L568 658Q597 658 597 629L597 149L645 149Q674 149 674 120L674-52Q674-81 645-81L563-81Q534-81 534-52M277 207Q274 154 237 142L445 142L445 523L302 523L277 207Z"  horiz-adv-x="704" vert-adv-y="1000"  />

      
      <glyph glyph-name="uni0415" unicode="&#x0415;" d="M551 140Q580 140 580 111L580 29Q580 0 551 0L103 0Q74 0 74 29L74 629Q74 658 103 658L534 658Q563 658 563 629L563 546Q563 517 534 517L232 517L232 408L500 408Q529 408 529 379L529 301Q529 272 500 272L232 272L232 140L551 140Z"  horiz-adv-x="627" vert-adv-y="1000"  />

      
      <glyph glyph-name="uni0416" unicode="&#x0416;" d="M890 658Q903 658 905.50 647.50Q908 637 900 630L701 390L920 32Q927 22 922.50 11Q918 0 905 0L786 0Q756 0 736 32Q648 186 594 276L548 218L548 29Q548 0 520 0L421 0Q406 0 399 6Q392 12 392 29L392 219L347 276L205 32Q185 0 155 0L36 0Q23 0 18.50 11Q14 22 21 32L240 390L41 630Q33 637 35.50 647.50Q38 658 51 658L178 658Q196 658 204.50 654Q213 650 228 634L392 414L392 629Q392 646 399 652Q406 658 421 658L520 658Q548 658 548 629L548 412L713 634Q728 650 736.50 654Q745 658 763 658L890 658Z"  horiz-adv-x="941" vert-adv-y="1000"  />

      
      <glyph glyph-name="uni0417" unicode="&#x0417;" d="M193 303L193 369Q193 392 220 392L265 392Q357 392 357 457Q357 500 330.50 518.50Q304 537 266 537Q189 537 172 481Q169 468 164.50 464Q160 460 147 460L60 460Q43 460 37.50 465Q32 470 32 489Q32 568 98 620Q164 672 260 672Q368 671 437 617Q506 563 506 460Q506 415 482 379.50Q458 344 426 335Q469 319 497 282Q525 245 525 197Q525 86 454.50 36Q384-14 271-15Q175-15 103 40Q31 95 31 174Q31 193 36.50 198.50Q42 204 59 204L148 204Q160 204 165 199.50Q170 195 173 182Q183 150 214 136.50Q245 123 277 123Q314 123 342.50 142Q371 161 371 198Q371 276 265 276L218 276Q203 276 198 282Q193 288 193 303Z"  horiz-adv-x="574" vert-adv-y="1000"  />

      
      <glyph glyph-name="uni0418" unicode="&#x0418;" d="M104 658L200 658Q229 658 229 629L229 282L441 624Q450 639 453.50 643Q457 647 465.50 652.50Q474 658 486 658L580 658Q609 658 609 629L609 29Q609 0 580 0L481 0Q452 0 452 29L452 377L240 34Q231 19 227.50 15Q224 11 215.50 5.50Q207 0 195 0L104 0Q75 0 75 29L75 629Q75 658 104 658Z"  horiz-adv-x="682" vert-adv-y="1000"  />

      
      <glyph glyph-name="uni0419" unicode="&#x0419;" d="M104 658Q75 658 75 629L75 29Q75 0 104 0L195 0Q207 0 215.50 5.50Q224 11 227.50 15Q231 19 240 34L452 377L452 29Q452 0 481 0L580 0Q609 0 609 29L609 629Q609 658 580 658L486 658Q474 658 465.50 652.50Q457 647 453.50 643Q450 639 441 624L229 282L229 629Q229 658 200 658L104 658M510 871Q519 871 519 851Q510 791 465 760Q420 729 355 728Q290 729 244.50 760Q199 791 191 851Q190 853 190 857Q190 861 192 866Q194 871 200 871L250 871Q259 871 266 855Q275 832 300.50 819Q326 806 355 806Q383 806 408.50 819Q434 832 444 855Q451 871 460 871L510 871Z"  horiz-adv-x="682" vert-adv-y="1000"  />

      
      <glyph glyph-name="uni041A" unicode="&#x041A;" d="M622 658Q635 658 637.50 647.50Q640 637 632 630L407 386L622 32Q629 22 624.50 11Q620 0 607 0L485 0Q455 0 435 32Q346 182 292 272L230 207L230 29Q230 0 202 0L103 0Q88 0 81 6Q74 12 74 29L74 629Q74 646 81 652Q88 658 103 658L202 658Q230 658 230 629L230 406L437 634Q452 650 460.50 654Q469 658 487 658L622 658Z"  horiz-adv-x="654" vert-adv-y="1000"  />

      
      <glyph glyph-name="uni041B" unicode="&#x041B;" d="M101 193L137 629Q137 658 166 658L565 658Q594 658 594 629L594 29Q594 0 565 0L466 0Q437 0 437 29L437 518L277 518L255 192Q247 70 208 32Q169-6 53-4Q34-4 28.50 1.50Q23 7 23 24L23 99Q23 126 45 126Q77 126 87.50 142Q98 158 101 193Z"  horiz-adv-x="668" vert-adv-y="1000"  />

      
      <glyph glyph-name="uni041C" unicode="&#x041C;" d="M664 659Q693 659 693 630L693 29Q693 0 664 0L568 0Q539 0 539 29L539 368L439 193Q426 172 410 172L360 172Q345 172 332 193L231 368L231 29Q231 0 202 0L103 0Q74 0 74 29L74 630Q74 659 103 659L202 659Q214 659 222.50 655Q231 651 234.50 647Q238 643 242.50 634.50Q247 626 248 625L385 379L523 625Q524 626 527 632.50Q530 639 532.50 642.50Q535 646 539.50 650.50Q544 655 551.50 657Q559 659 568 659L664 659Z"  horiz-adv-x="767" vert-adv-y="1000"  />

      
      </font>
</defs>
</svg>
