<svg width="1264" height="600" fill="none" xmlns="http://www.w3.org/2000/svg"><g opacity=".1" filter="url(#filter0_f_345_43749)"><path d="M836.317 355.654l176.413 176.355c13.69 13.683 35.88 13.683 49.57 0l176.41-176.355c13.69-13.684 13.69-35.869 0-49.553L1062.3 129.746c-13.69-13.683-35.88-13.683-49.57 0L836.317 306.101c-13.689 13.684-13.689 35.869 0 49.553z" fill="#3B3535"/><path opacity=".8" d="M25.307 312.273L201.72 488.627c13.688 13.684 35.881 13.684 49.57 0l176.414-176.354c13.688-13.684 13.688-35.87 0-49.553L251.291 86.365c-13.689-13.684-35.882-13.684-49.57 0L25.307 262.72c-13.688 13.683-13.688 35.869 0 49.553z" fill="#CE2329"/><path d="M644.875 483.078l68.747 68.724c5.334 5.332 13.982 5.332 19.317 0l68.746-68.724c5.335-5.332 5.335-13.977 0-19.31l-68.746-68.723c-5.335-5.333-13.983-5.333-19.317 0l-68.747 68.723c-5.334 5.333-5.334 13.978 0 19.31zm60.34-403.18l35.143 35.131a6.983 6.983 0 009.874 0l35.143-35.13a6.978 6.978 0 000-9.872l-35.143-35.13a6.983 6.983 0 00-9.874 0l-35.143 35.13a6.978 6.978 0 000 9.871zm23.105 118.071l74.652 74.626c5.792 5.791 15.184 5.791 20.976 0l74.652-74.626c5.792-5.791 5.792-15.179 0-20.969l-74.652-74.627c-5.792-5.79-15.184-5.79-20.976 0L728.32 177c-5.792 5.79-5.792 15.178 0 20.969z" fill="#3B3535"/><path opacity=".8" d="M822.374 66.512l45.7 45.685a7.173 7.173 0 0010.141 0l45.7-45.685a7.165 7.165 0 000-10.137l-45.7-45.685c-2.8-2.8-7.34-2.8-10.141 0l-45.7 45.685a7.167 7.167 0 000 10.137zM470.696 80.528l45.7 45.685a7.173 7.173 0 0010.141 0l45.701-45.685c2.8-2.8 2.8-7.338 0-10.138l-45.701-45.685a7.172 7.172 0 00-10.14 0l-45.701 45.686a7.167 7.167 0 000 10.137z" stroke="#CE2329" stroke-width="3.269"/><path d="M478.526 293.635l93.537 93.506c7.258 7.255 19.025 7.255 26.282 0l93.537-93.506c7.258-7.255 7.258-19.018 0-26.273l-93.537-93.506c-7.257-7.255-19.024-7.255-26.282 0l-93.537 93.506c-7.258 7.255-7.258 19.018 0 26.273z" fill="#3B3535"/><path d="M278.038 169.975l77.62 77.593c5.11 5.109 13.395 5.109 18.505 0l77.62-77.593c5.11-5.108 5.11-13.391 0-18.499l-77.62-77.594c-5.11-5.108-13.395-5.108-18.505 0l-77.62 77.594c-5.11 5.108-5.11 13.391 0 18.499zm124.208 121.12l45.143 45.128a6.633 6.633 0 009.38 0l45.144-45.128a6.63 6.63 0 000-9.377l-45.144-45.128a6.634 6.634 0 00-9.38 0l-45.143 45.128a6.628 6.628 0 000 9.377z" stroke="#3B3535" stroke-width="4"/><path d="M342.291 467.753l83.213 83.185c6.456 6.455 16.924 6.455 23.381 0l83.213-83.185c6.456-6.454 6.456-16.919 0-23.373l-83.213-83.185c-6.457-6.454-16.925-6.454-23.381 0l-83.213 83.185c-6.457 6.454-6.457 16.919 0 23.373z" fill="#3B3535"/><path opacity=".8" d="M592.972 141.468l55.924 55.904c4.339 4.338 11.375 4.338 15.714 0l55.923-55.904c4.34-4.338 4.34-11.371 0-15.709L664.61 69.854c-4.339-4.337-11.375-4.337-15.714 0l-55.924 55.905c-4.339 4.338-4.339 11.371 0 15.709zM279.678 519.899l32.353 32.342a6.428 6.428 0 009.09 0l32.353-32.342a6.422 6.422 0 000-9.087l-32.353-32.342a6.428 6.428 0 00-9.09 0l-32.353 32.342a6.424 6.424 0 000 9.087zm645.698-320.226l115.514 115.472c8.96 8.959 23.49 8.959 32.45 0l115.51-115.472c8.97-8.959 8.97-23.485 0-32.445L1073.34 51.757c-8.96-8.96-23.49-8.96-32.45 0L925.376 167.228c-8.963 8.96-8.963 23.486 0 32.445zM674.715 360.324L796.69 482.257c9.464 9.461 24.808 9.461 34.273 0l121.974-121.933c9.465-9.461 9.465-24.801 0-34.262L830.963 204.129c-9.465-9.461-24.809-9.461-34.273 0L674.715 326.062c-9.464 9.461-9.464 24.801 0 34.262z" fill="#CE2329"/><path opacity=".8" d="M451.687 473.891l109.162 109.126c7.558 7.555 19.811 7.555 27.368 0L697.38 473.891c7.557-7.555 7.557-19.804 0-27.359L588.217 337.406c-7.557-7.554-19.81-7.554-27.368 0L451.687 446.532c-7.558 7.555-7.558 19.804 0 27.359z" stroke="#CE2329" stroke-width="4"/></g><defs><filter id="filter0_f_345_43749" x="-6.1" y="-4.6" width="1276.2" height="611.2" filterUnits="userSpaceOnUse" color-interpolation-filters="sRGB"><feFlood flood-opacity="0" result="BackgroundImageFix"/><feBlend in="SourceGraphic" in2="BackgroundImageFix" result="shape"/><feGaussianBlur stdDeviation="3.3" result="effect1_foregroundBlur_345_43749"/></filter></defs></svg>