<svg width="83" height="89" fill="none" xmlns="http://www.w3.org/2000/svg"><path d="M79.492 48.591L34.977 74.292V49.604l44.515-25.7V48.59z" fill="#7F2D0A"/><path d="M79.492 48.591L34.977 74.292v2.487l44.515-25.7V48.59z" fill="#2B1C0B"/><path d="M53.162 59.294l-8.907 5.143V50.026l8.907-5.143v14.411z" fill="#868686"/><path d="M52.548 58.865l-7.68 4.434v-9.714l7.68-4.434v9.714zm-4.268-10.48l-3.412 1.97v2.661l3.412-1.97v-2.66zm.857-.494l3.412-1.97v2.661l-3.412 1.97v-2.66z" fill="#AEBCBC"/><path d="M70.216 49.449l-8.907 5.142v-14.41l8.907-5.143v14.41z" fill="#868686"/><path d="M69.602 49.02l-7.68 4.434V43.74l7.68-4.434v9.715zm-4.268-10.48l-3.412 1.97v2.661l3.412-1.97v-2.66zm.856-.494l3.412-1.97v2.661l-3.412 1.97v-2.66z" fill="#AEBCBC"/><path d="M1 29.988l18.17-3.802L37.34 50.97 1 29.987z" fill="#7F2D0A"/><path d="M34.977 74.292L3.364 56.04V31.354l31.613 18.25v24.69z" fill="#A85633"/><path d="M34.977 74.292L3.364 56.04v2.487L34.977 76.78v-2.487z" fill="#4E3F2E"/><path d="M16.197 58.951L7.29 53.808v-14.41l8.907 5.142v14.411z" fill="#F0EEE9"/><path d="M15.583 57.814l-7.68-4.434v-9.714l7.68 4.434v9.714zm-4.267-15.408l-3.413-1.97v2.66l3.413 1.97v-2.66zm.854.494l3.413 1.97v2.66l-3.412-1.97V42.9z" fill="#D2E2E2"/><path d="M29.226 70.972l-8.38-4.838V47.227l8.38 4.839v18.905z" fill="#F0EEE9"/><path d="M28.34 70.46l-6.609-3.815V48.81l6.609 3.815V70.46z" fill="#4E3F2E"/><path d="M27.38 62.48l-1.491-.861c-.207-.12-.374-.44-.374-.715 0-.275.167-.402.374-.282l1.49.86c.207.12.375.44.375.715 0 .275-.168.402-.374.282z" fill="#F0EEE9"/><path d="M3.364 31.353l15.806-3.307 15.806 21.558L3.365 31.353z" fill="#A85633"/><path d="M19.17 26.186L63.69.49l18.171 24.782-44.52 25.697L19.17 26.186z" fill="#4E3F2E"/><path d="M63.691.49l-18.17 3.8L1 29.989l18.17-3.802L63.692.49z" fill="#7D6E5D"/><path d="M80.33 51.838v10M35.583 78.246v10M4.04 59.907v10m31.376 14.525L82 56.982M35.063 84.845L1.32 65.773" stroke="#3B3535" stroke-linecap="round"/></svg>