<svg width="79" height="86" fill="none" xmlns="http://www.w3.org/2000/svg"><path d="M75.835 75.111v10m-71.663-10v10M1 79.178h76.731" stroke="#3B3535" stroke-linecap="round"/><g clip-path="url(#clip0_347_43985)"><path d="M7.05 0h65.453v66.563H7.05V0z" fill="#4E3F2E"/><path d="M46.433 6.102H66.4v53.804H46.433V6.102zm-33.282 0H35.34v53.804H13.15V6.102z" fill="#A4D7F4"/><path d="M39.222 0h1.11v71h-1.11V0z" fill="#EBEBEB"/><path d="M75.276 67.873v.707a2.423 2.423 0 01-2.42 2.42H6.697a2.423 2.423 0 01-2.42-2.42v-.707a2.423 2.423 0 012.42-2.42h66.16a2.423 2.423 0 012.42 2.42z" fill="#9F8C7F"/><path d="M16.793 23.09a.554.554 0 00.392-.162l12.551-12.551a.555.555 0 00-.784-.785L16.4 22.143a.555.555 0 00.392.947zm9.806-5.946a.555.555 0 00-.785 0L15.617 27.342a.555.555 0 10.784.785L26.6 17.929a.555.555 0 000-.785zm31.256 26.209a.555.555 0 00-.785 0L46.872 53.551a.555.555 0 10.785.785l10.198-10.198a.555.555 0 000-.785zm4.659-.86l-7.06 7.06a.555.555 0 00.784.784l7.06-7.06a.555.555 0 10-.785-.784zm3.379-31.299a.555.555 0 00-.784 0l-9.413 9.413a.555.555 0 10.784.785l9.414-9.414a.555.555 0 000-.784zm-3.228 7.844l-9.414 9.413a.555.555 0 00.785.785l9.413-9.413a.555.555 0 10-.784-.785zM30.51 40.73l-9.414 9.414a.555.555 0 10.785.785l9.413-9.414a.555.555 0 00-.785-.784zm-3.138 7.845l-9.414 9.414a.555.555 0 10.785.784l9.413-9.413a.555.555 0 00-.784-.785z" fill="#EBEBEB"/><path d="M43.66 38.273a.555.555 0 01-.555-.554V34.39c0-.307.248-.555.554-.555h7.35a.555.555 0 010 1.11h-6.795v2.773a.555.555 0 01-.555.554z" fill="#000"/></g><defs><clipPath id="clip0_347_43985"><path fill="#fff" transform="translate(4.276)" d="M0 0h71v71H0z"/></clipPath></defs></svg>