<svg width="58" height="71" fill="none" xmlns="http://www.w3.org/2000/svg"><path d="M0 3.328h39.938v64.344H0V3.328z" fill="#4E3F2E"/><path d="M19.969 71h2.218V0H19.97L2.219 5.547v59.906L19.969 71z" fill="#9F8C7F"/><path d="M16.607 40.302l-1.367-.227a.98.98 0 01-.82-.968v-4.994a.98.98 0 01.82-.968l1.367-.228a.98.98 0 011.142.968v5.45a.98.98 0 01-1.142.967z" fill="#fff"/><path d="M19.97 0h2.219v71h-2.22V0z" fill="#4E3F2E"/><path d="M22.186 5.547h15.532v59.906H22.186V5.547z" fill="#4F4F4F"/><path d="M15.53 34.945h-.978l-.979-.49a3.08 3.08 0 00-2.742 0l-1.096.549a.555.555 0 00.497.992l1.095-.548a1.966 1.966 0 011.75 0l1.096.548a.555.555 0 00.248.058h1.11a.555.555 0 000-1.109z" fill="#000"/><path d="M57 66.394H47M57 5.687H47M52.933 3v65" stroke="#3B3535" stroke-linecap="round"/></svg>