<svg width="47" height="82" fill="none" xmlns="http://www.w3.org/2000/svg"><path d="M4 3.328h39.938v64.344H4V3.328z" fill="#4E3F2E"/><path d="M23.969 71h2.218V0H23.97L6.219 5.547v59.906L23.969 71z" fill="#9F8C7F"/><path d="M20.607 40.302l-1.367-.227a.98.98 0 01-.82-.968v-4.994a.98.98 0 01.82-.968l1.367-.228a.98.98 0 011.142.968v5.45a.98.98 0 01-1.142.967z" fill="#fff"/><path d="M23.97 0h2.219v71h-2.22V0z" fill="#4E3F2E"/><path d="M26.186 5.547h15.532v59.906H26.186V5.547z" fill="#4F4F4F"/><path d="M19.53 34.945h-.978l-.979-.49a3.08 3.08 0 00-2.742 0l-1.096.549a.555.555 0 00.497.992l1.095-.548a1.966 1.966 0 011.75 0l1.096.548a.555.555 0 00.248.058h1.11a.555.555 0 000-1.109z" fill="#000"/><path d="M45.15 71v10M2.871 71v10M1 75.067h45.269" stroke="#3B3535" stroke-linecap="round"/></svg>