<svg width="92" height="77" fill="none" xmlns="http://www.w3.org/2000/svg"><path d="M80.724 3h10m-10 70h10m-6 3V1" stroke="#3B3535" stroke-linecap="round"/><g clip-path="url(#clip0_392_42443)"><path d="M2.773 1h65.454v66.563H2.773V1z" fill="#4E3F2E"/><path d="M42.156 7.102h19.969v53.804H42.156V7.102zm-33.281 0h22.188v53.804H8.875V7.102z" fill="#A4D7F4"/><path d="M34.945 1h1.11v71h-1.11V1z" fill="#EBEBEB"/><path d="M71 68.873v.707A2.423 2.423 0 0168.58 72H2.42A2.423 2.423 0 010 69.58v-.707a2.423 2.423 0 012.42-2.42h66.16a2.423 2.423 0 012.42 2.42z" fill="#9F8C7F"/><path d="M12.517 24.09a.554.554 0 00.392-.162L25.46 11.377a.555.555 0 00-.784-.785L12.124 23.143a.555.555 0 00.393.947zm9.805-5.946a.555.555 0 00-.784 0L11.34 28.342a.555.555 0 10.785.785l10.198-10.198a.555.555 0 000-.785zm31.256 26.209a.555.555 0 00-.784 0L42.596 54.551a.555.555 0 10.785.785l10.197-10.198a.555.555 0 000-.785zm4.659-.86l-7.06 7.06a.555.555 0 00.785.784l7.06-7.06a.555.555 0 10-.785-.784zm3.38-31.299a.555.555 0 00-.784 0l-9.414 9.413a.555.555 0 10.785.785l9.413-9.414a.555.555 0 000-.784zm-3.229 7.844l-9.413 9.413a.555.555 0 10.785.785l9.413-9.413a.555.555 0 00-.785-.785zM26.233 41.73l-9.413 9.414a.555.555 0 10.784.785l9.414-9.414a.555.555 0 00-.785-.784zm-3.138 7.845l-9.413 9.414a.555.555 0 00.785.784l9.413-9.413a.555.555 0 00-.785-.785z" fill="#EBEBEB"/><path d="M39.383 39.273a.555.555 0 01-.555-.554V35.39c0-.307.248-.555.555-.555h7.35a.555.555 0 010 1.11h-6.795v2.773a.555.555 0 01-.555.554z" fill="#000"/></g><defs><clipPath id="clip0_392_42443"><path fill="#fff" transform="translate(0 1)" d="M0 0h71v71H0z"/></clipPath></defs></svg>