<svg width="1440" height="1947" fill="none" xmlns="http://www.w3.org/2000/svg"><g opacity=".1" clip-path="url(#clip0_392_42586)" filter="url(#filter0_f_392_42586)"><path d="M683.737 687.879l90.25-336.816c7.002-26.134-8.507-52.997-34.641-59.999l-336.816-90.25c-26.134-7.002-52.996 8.507-59.999 34.641l-90.25 336.816c-7.002 26.134 8.507 52.996 34.641 59.999l336.816 90.249c26.134 7.003 52.997-8.506 59.999-34.64z" fill="#3B3535"/><path opacity=".8" d="M1197.97 1699.86l90.25-336.82c7-26.13-8.51-53-34.65-60l-336.811-90.25c-26.134-7-52.997 8.51-59.999 34.64l-90.25 336.82c-7.003 26.13 8.507 52.99 34.641 60l336.819 90.25c26.13 7 52.99-8.51 60-34.64z" fill="#CE2329"/><path d="M971.808 830.522l35.172-131.254c2.73-10.184-3.32-20.652-13.502-23.381l-131.254-35.169c-10.184-2.729-20.652 3.315-23.381 13.499l-35.169 131.254c-2.729 10.184 3.315 20.652 13.499 23.381l131.254 35.169c10.184 2.729 20.652-3.315 23.381-13.499zM441.466 1039.34l17.978-67.1c1.395-5.206-1.695-10.558-6.901-11.953l-67.095-17.978c-5.206-1.395-10.558 1.695-11.953 6.901l-17.978 67.1c-1.395 5.2 1.695 10.55 6.901 11.95l67.095 17.98c5.207 1.39 10.558-1.7 11.953-6.9zM568.28 928.83l38.191-142.527c2.963-11.059-3.6-22.426-14.659-25.39l-142.528-38.19c-11.059-2.963-22.426 3.6-25.389 14.659l-38.19 142.527c-2.963 11.059 3.599 22.426 14.658 25.39l142.528 38.19c11.059 2.963 22.426-3.6 25.389-14.659z" fill="#3B3535"/><path opacity=".8" d="M343.383 906.884l23.38-87.253c1.432-5.346-1.741-10.842-7.087-12.274l-87.253-23.379c-5.346-1.433-10.841 1.74-12.274 7.086l-23.379 87.253c-1.433 5.346 1.74 10.842 7.086 12.274l87.253 23.379c5.346 1.433 10.842-1.74 12.274-7.086zm262.733 415.876l23.379-87.25c1.433-5.35-1.74-10.85-7.086-12.28l-87.253-23.38c-5.347-1.43-10.842 1.74-12.275 7.09l-23.379 87.25c-1.432 5.35 1.74 10.84 7.087 12.28l87.253 23.37c5.346 1.44 10.841-1.74 12.274-7.08z" stroke="#CE2329" stroke-width="3.269"/><path d="M858.678 1164.31l47.851-178.588c3.713-13.856-4.51-28.099-18.367-31.812l-178.583-47.852c-13.857-3.712-28.1 4.511-31.813 18.367l-47.851 178.585c-3.713 13.86 4.51 28.1 18.367 31.81l178.584 47.85c13.856 3.72 28.099-4.51 31.812-18.36z" fill="#3B3535"/><path d="M849.055 1493.42l39.709-148.19c2.614-9.76-3.176-19.78-12.932-22.4l-148.195-39.71c-9.756-2.61-19.784 3.18-22.398 12.93l-39.709 148.2c-2.614 9.75 3.176 19.78 12.932 22.4l148.194 39.71c9.757 2.61 19.785-3.18 22.399-12.94zm59.854-235.01l23.094-86.19c1.325-4.94-1.61-10.03-6.555-11.35l-86.19-23.1c-4.945-1.32-10.028 1.61-11.353 6.56l-23.095 86.19c-1.325 4.94 1.61 10.03 6.555 11.35l86.19 23.1c4.945 1.32 10.029-1.61 11.354-6.56z" stroke="#3B3535" stroke-width="4"/><path d="M1164.71 1207.49l42.57-158.88c3.3-12.32-4.02-25-16.34-28.3l-158.87-42.568c-12.33-3.303-25 4.013-28.31 16.34l-42.566 158.868c-3.303 12.33 4.013 25 16.34 28.31l158.876 42.56c12.32 3.31 24.99-4.01 28.3-16.33z" fill="#3B3535"/><path opacity=".8" d="M594.452 1132.15l28.61-106.77c2.22-8.28-2.697-16.8-10.981-19.02l-106.772-28.607c-8.284-2.22-16.8 2.697-19.02 10.981L457.68 1095.51c-2.22 8.28 2.697 16.8 10.981 19.02l106.772 28.6c8.284 2.22 16.8-2.69 19.019-10.98zm677.148 114.67l16.55-61.77c1.29-4.79-1.56-9.72-6.35-11l-61.77-16.55c-4.79-1.29-9.72 1.56-11 6.35l-16.55 61.77c-1.29 4.79 1.56 9.72 6.35 11l61.77 16.55c4.79 1.29 9.72-1.56 11-6.35zM432.636 689.121l59.092-220.536c4.585-17.112-5.569-34.7-22.681-39.285l-220.536-59.093c-17.111-4.585-34.7 5.57-39.285 22.681l-59.092 220.536c-4.585 17.112 5.569 34.7 22.681 39.285l220.536 59.093c17.111 4.585 34.7-5.57 39.285-22.681zm369.686 191.096l62.4-232.878c4.841-18.069-5.882-36.642-23.951-41.484l-232.879-62.4c-18.069-4.841-36.642 5.882-41.484 23.951l-62.399 232.879c-4.842 18.069 5.881 36.642 23.95 41.484l232.879 62.399c18.069 4.842 36.642-5.881 41.484-23.951z" fill="#CE2329"/><path opacity=".8" d="M1095.69 1070.78l55.85-208.415c3.86-14.429-4.7-29.26-19.13-33.127l-208.417-55.845c-14.429-3.866-29.26 4.697-33.126 19.126l-55.845 208.421c-3.867 14.42 4.696 29.26 19.125 33.12l208.413 55.85c14.43 3.86 29.26-4.7 33.13-19.13z" stroke="#CE2329" stroke-width="4"/></g><defs><clipPath id="clip0_392_42586"><path fill="#fff" transform="rotate(60 340.533 589.82)" d="M0 0h1765.24v836.08H0z"/></clipPath><filter id="filter0_f_392_42586" x="-48.4" y="-5.4" width="1617.49" height="1957.58" filterUnits="userSpaceOnUse" color-interpolation-filters="sRGB"><feFlood flood-opacity="0" result="BackgroundImageFix"/><feBlend in="SourceGraphic" in2="BackgroundImageFix" result="shape"/><feGaussianBlur stdDeviation="2.7" result="effect1_foregroundBlur_392_42586"/></filter></defs></svg>