<svg width="52" height="36" fill="none" xmlns="http://www.w3.org/2000/svg"><path d="M1 6a5 5 0 015-5h40a5 5 0 015 5v24a5 5 0 01-5 5H6a5 5 0 01-5-5V6z" fill="#F0EEE9"/><path d="M30.045 19.362c-.415 0-.814-.227-1.013-.622a1.123 1.123 0 01.505-1.51L50.362 6.868a1.133 1.133 0 011.517.503c.28.556.053 1.232-.505 1.51L30.549 19.243a1.13 1.13 0 01-.504.12zm-8.091 0c-.17 0-.343-.038-.504-.118L.625 8.882a1.123 1.123 0 01-.505-1.51 1.132 1.132 0 011.517-.503l20.825 10.363a1.123 1.123 0 01-.508 2.13z" fill="#3B3535"/><path d="M50.87 6.75c-.623 0-1.13-.504-1.13-1.125a3.387 3.387 0 00-3.39-3.375c-.625 0-1.131-.504-1.131-1.125S45.725 0 46.349 0c3.117 0 5.652 2.523 5.652 5.625 0 .621-.506 1.125-1.13 1.125zM26.001 20.307c-1.562 0-3.126-.354-4.55-1.063a1.123 1.123 0 01-.505-1.51c.279-.556.957-.78 1.517-.502a7.986 7.986 0 007.078 0 1.132 1.132 0 011.517.503 1.124 1.124 0 01-.506 1.51 10.23 10.23 0 01-4.55 1.062z" fill="#3B3535"/><path d="M46.348 31.5c-.259 0-.519-.088-.731-.268L30.553 18.477a1.121 1.121 0 01-.13-1.586 1.134 1.134 0 011.595-.128L47.08 29.517c.476.402.533 1.112.129 1.586a1.132 1.132 0 01-.862.396zm-40.696 0c-.32 0-.637-.135-.861-.396a1.121 1.121 0 01.129-1.586l15.063-12.756a1.134 1.134 0 011.594.129 1.121 1.121 0 01-.13 1.586L6.386 31.232a1.13 1.13 0 01-.733.268zM1.13 6.75C.506 6.75 0 6.246 0 5.625 0 2.523 2.536 0 5.652 0c.624 0 1.13.504 1.13 1.125S6.277 2.25 5.653 2.25a3.387 3.387 0 00-3.391 3.375c0 .621-.507 1.125-1.13 1.125z" fill="#3B3535"/><path d="M46.348 2.25H5.652c-.624 0-1.13-.504-1.13-1.125S5.027 0 5.651 0h40.696c.624 0 1.13.504 1.13 1.125s-.506 1.125-1.13 1.125zM1.13 31.5C.506 31.5 0 30.996 0 30.375V5.625C0 5.004.506 4.5 1.13 4.5c.624 0 1.13.504 1.13 1.125v24.75c0 .621-.506 1.125-1.13 1.125z" fill="#3B3535"/><path d="M5.652 36C2.536 36 0 33.477 0 30.375c0-.621.506-1.125 1.13-1.125.624 0 1.13.504 1.13 1.125 0 1.86 1.522 3.375 3.392 3.375.624 0 1.13.504 1.13 1.125S6.277 36 5.653 36z" fill="#3B3535"/><path d="M46.348 36H5.652c-.624 0-1.13-.504-1.13-1.125s.506-1.125 1.13-1.125h40.696c.624 0 1.13.504 1.13 1.125S46.972 36 46.348 36z" fill="#3B3535"/><path d="M46.35 36c-.625 0-1.131-.504-1.131-1.125s.506-1.125 1.13-1.125c1.87 0 3.392-1.514 3.392-3.375 0-.621.506-1.125 1.13-1.125.624 0 1.13.504 1.13 1.125 0 3.102-2.535 5.625-5.652 5.625z" fill="#3B3535"/><path d="M50.87 31.5c-.623 0-1.13-.504-1.13-1.125V5.625c0-.621.507-1.125 1.13-1.125.625 0 1.131.504 1.131 1.125v24.75c0 .621-.506 1.125-1.13 1.125z" fill="#3B3535"/></svg>