<svg width="144" height="106" fill="none" xmlns="http://www.w3.org/2000/svg"><path opacity=".8" d="M18.165 95.467l10.631-10.631a1.668 1.668 0 000-2.36l-10.631-10.63a1.668 1.668 0 00-2.36 0l-10.63 10.63a1.668 1.668 0 000 2.36l10.63 10.63a1.668 1.668 0 002.36 0z" stroke="#CE2329" stroke-width=".888"/><path d="M96.78 99.374l41.039-41.039a8.152 8.152 0 000-11.53L96.781 5.764a8.154 8.154 0 00-11.532 0l-41.038 41.04a8.154 8.154 0 000 11.53l41.038 41.04a8.153 8.153 0 0011.532 0z" fill="#3B3535"/><path opacity=".8" d="M38.196 66.698l26.87-26.871a5.339 5.339 0 000-7.55L38.197 5.406a5.339 5.339 0 00-7.55 0L3.775 32.276a5.339 5.339 0 000 7.55l26.87 26.872a5.339 5.339 0 007.55 0z" fill="#CE2329"/><path opacity=".8" d="M128.241 85.139l10.631-10.631a1.667 1.667 0 000-2.36l-10.631-10.63a1.668 1.668 0 00-2.359 0l-10.631 10.63a1.668 1.668 0 000 2.36l10.631 10.63a1.668 1.668 0 002.359 0z" stroke="#CE2329" stroke-width=".888"/></svg>