<svg width="202" height="106" fill="none" xmlns="http://www.w3.org/2000/svg"><path opacity=".8" d="M58.313 100.689l42.376-42.376a7.512 7.512 0 000-10.624L58.313 5.313a7.512 7.512 0 00-10.624 0L5.313 47.689a7.512 7.512 0 000 10.624l42.376 42.376a7.512 7.512 0 0010.624 0z" stroke="#CE2329" stroke-width="1.814"/><path d="M122.19 33.034l13.642-13.642a2.71 2.71 0 000-3.833L122.19 1.915a2.71 2.71 0 00-3.833 0L104.715 15.56a2.71 2.71 0 000 3.833l13.642 13.642a2.71 2.71 0 003.833 0zm46.459 57.549l28.979-28.98a5.759 5.759 0 000-8.142l-28.979-28.98a5.758 5.758 0 00-8.143 0l-28.979 28.98a5.757 5.757 0 000 8.143l28.979 28.979a5.758 5.758 0 008.143 0z" fill="#3B3535"/><path opacity=".8" d="M130.678 97.47l21.71-21.71a4.314 4.314 0 000-6.099l-21.71-21.71a4.312 4.312 0 00-6.099 0l-21.71 21.71a4.314 4.314 0 000 6.1l21.71 21.709a4.312 4.312 0 006.099 0z" fill="#CE2329"/></svg>