<svg width="16" height="16" fill="none" xmlns="http://www.w3.org/2000/svg"><g clip-path="url(#clip0_392_42286)"><mask id="a" style="mask-type:luminance" maskUnits="userSpaceOnUse" x="0" y="0" width="16" height="16"><path d="M16 0H0v16h16V0z" fill="#fff"/></mask><g mask="url(#a)"><mask id="b" style="mask-type:luminance" maskUnits="userSpaceOnUse" x="0" y="0" width="16" height="16"><path d="M16 0H0v15.969h16V0z" fill="#fff"/></mask><g mask="url(#b)"><path d="M8.005 2.418l2.21.605c.146.041.292-.084.292-.25V1.105c0-.104-.063-.209-.156-.24L8.005 0v2.418zM8 6.296l2.309.375c.114.02.198.125.198.25v1.72c0 .146-.115.26-.25.25L8 8.693V6.296zm0 3.106l4.727.375c.125.01.219.115.219.25v1.49c0 .136-.104.25-.23.25L8 11.788V9.402zm0-6.28l4.758 1.266a.25.25 0 01.178.25V6.13c0 .156-.136.271-.271.25L8 5.52V3.122zm3.132-1.6v1.553a.26.26 0 00.178.25l4.398 1.188c.146.042.292-.083.292-.25V3.065c0-.115-.063-.209-.167-.24l-4.399-1.543c-.145-.052-.302.063-.302.24zm2.752 3.148l1.939.531a.25.25 0 01.177.25v1.251c0 .157-.136.282-.281.25l-1.94-.406c-.114-.02-.187-.125-.187-.25V4.909c0-.156.146-.281.292-.24zm-2.481 2.178l4.399.709c.115.02.198.125.198.25v1.324c0 .146-.115.26-.25.25l-4.399-.386c-.125-.01-.219-.125-.219-.25V7.098c0-.156.136-.27.271-.25zm2.419 3.012l1.96.157c.124.01.218.115.218.25v1.25a.245.245 0 01-.24.251h-1.949c-.125 0-.23-.115-.24-.25l-.01-1.407c.01-.146.125-.26.26-.25z" fill="#CE2329"/><path d="M8.005 2.418l-2.22.605c-.146.041-.292-.084-.292-.25V1.105c0-.104.063-.209.157-.24L8.005 0v2.418zM8 6.296l-2.309.375a.248.248 0 00-.198.25v1.72c0 .146.115.26.25.25L8 8.693V6.296zm0 3.105l-4.711.376a.242.242 0 00-.22.25v1.49c0 .136.105.251.23.251L8 11.787V9.4zm0-6.278l-4.753 1.26a.25.25 0 00-.177.25v1.492c0 .156.135.27.27.25L8 5.52V3.123zM4.868 1.522v1.553a.26.26 0 01-.177.25L.29 4.513a.247.247 0 01-.29-.25V3.065c0-.115.063-.209.167-.24l4.398-1.543c.146-.052.303.063.303.24zM2.116 4.67l-1.939.52A.25.25 0 000 5.442v1.25c0 .157.136.282.281.251l1.94-.406c.114-.021.187-.126.187-.25V4.908c0-.156-.136-.281-.292-.24zm2.481 2.178l-4.399.709a.248.248 0 00-.198.25v1.324c0 .146.115.26.25.25l4.399-.386c.125-.01.219-.125.219-.25V7.098c0-.156-.125-.27-.271-.25zM2.179 9.86l-1.96.157a.242.242 0 00-.219.25v1.25c0 .136.104.251.24.251h1.949c.125 0 .23-.115.24-.25l.01-1.407c-.01-.146-.125-.26-.26-.25zm.625 2.68l-1.136 1.313 1.084 1.907c.041.073.02.178-.073.178h-.615c-.125 0-.188-.063-.25-.178 0 0-.449-.813-.72-1.292l-.312.354v.96c0 .124-.052.155-.146.155h-.49c-.094 0-.146-.03-.146-.156V12.55c0-.125.052-.156.146-.156h.5c.084 0 .146.03.146.156v1.198l1.043-1.23c.104-.114.135-.124.25-.124h.677c.094-.01.094.093.042.145zm3.242 3.387h-.522c-.114 0-.146-.031-.187-.156l-.146-.428H3.96l-.146.428c-.042.125-.083.156-.188.156h-.531c-.115 0-.115-.083-.084-.146l1.116-3.231c.041-.115.093-.167.208-.167h.48c.114 0 .156.052.208.167l1.115 3.231c.021.063.021.146-.093.146zM4.95 14.593l-.375-1.188-.375 1.188h.75zm3.93.74v.438c0 .093-.03.156-.145.156h-2.19c-.135 0-.145-.031-.145-.156v-.417c0-.125.063-.209.063-.209l1.355-2.011h-1.23c-.115 0-.146-.063-.146-.157v-.438c0-.093.031-.156.146-.156H8.61c.114 0 .146.063.146.156v.417c0 .073-.01.136-.063.209L7.35 15.166h1.396c.105.01.136.073.136.167zm3.378-.438c0 .688-.5 1.032-1.199 1.032H9.58c-.115 0-.146-.063-.146-.156v-3.242c0-.094.031-.156.146-.156h1.407c.824 0 1.168.469 1.168.98 0 .541-.323.719-.365.74.042.02.469.218.469.802zm-.803-.083c0-.25-.177-.334-.417-.334h-.114c-.115 0-.146-.063-.146-.156v-.407c0-.094.031-.156.146-.156h.062c.292 0 .417-.115.417-.323 0-.24-.156-.303-.417-.303h-.76v2.023h.844c.25.01.385-.094.385-.344zM16 12.54v3.241c0 .125-.052.156-.146.156h-.48c-.093 0-.145-.03-.145-.156v-1.824l-.5.938c-.021.042-.073.115-.146.115h-.25c-.074 0-.115-.073-.147-.115l-.51-.938v1.824c0 .125-.052.156-.146.156h-.5c-.094 0-.147-.03-.147-.156V12.54c0-.093.032-.156.146-.156h.5c.168 0 .188.115.23.188l.688 1.324.698-1.324c.032-.063.063-.188.23-.188h.48c.114 0 .145.063.145.156z" fill="#3B3535"/></g></g></g><defs><clipPath id="clip0_392_42286"><path fill="#fff" d="M0 0h16v16H0z"/></clipPath></defs></svg>