<svg width="27" height="27" fill="none" xmlns="http://www.w3.org/2000/svg"><path d="M13.497 25.355c-.455 0-.916-.174-1.264-.52L9.81 22.41H6.38a1.784 1.784 0 01-1.783-1.784v-3.43l-2.43-2.43a1.792 1.792 0 010-2.526L4.59 9.816v-3.43c0-.988.802-1.784 1.783-1.784h3.43l2.425-2.424a1.792 1.792 0 012.526 0l2.424 2.424h3.43c.987 0 1.784.802 1.784 1.784v3.43l2.424 2.424a1.792 1.792 0 010 2.526l-2.424 2.424v3.43c0 .988-.802 1.784-1.784 1.784H17.19l-2.424 2.424a1.781 1.781 0 01-1.27.527z" fill="#F8AE00"/><path d="M25.51 12.318l-2.68-2.682V5.841a1.67 1.67 0 00-1.67-1.67h-3.795l-2.682-2.682a1.673 1.673 0 00-2.364 0L9.636 4.171H5.841a1.67 1.67 0 00-1.67 1.67v3.795l-2.682 2.682a1.673 1.673 0 000 2.364l2.682 2.682v3.795c0 .922.748 1.67 1.67 1.67h3.795l2.682 2.682a1.673 1.673 0 002.364 0l2.682-2.682h3.795a1.67 1.67 0 001.67-1.67v-3.795l2.682-2.682a1.673 1.673 0 000-2.364zm-1.113 2.011l-2.604 2.604v3.687c0 .647-.526 1.173-1.173 1.173h-3.687l-2.604 2.604a1.167 1.167 0 01-1.658 0l-2.604-2.604H6.38a1.175 1.175 0 01-1.173-1.173v-3.687l-2.604-2.604a1.167 1.167 0 010-1.658l2.604-2.604V6.38c0-.647.526-1.173 1.173-1.173h3.687l2.604-2.604a1.167 1.167 0 011.658 0l2.604 2.604h3.687c.647 0 1.173.526 1.173 1.173v3.687l2.604 2.604c.461.46.461 1.203 0 1.658z" stroke="#008669" stroke-miterlimit="10"/><g fill="#008669"><path d="M12.64 3.997l-8.643 8.644a1.225 1.225 0 000 1.724l2.125 2.125a9.432 9.432 0 013.286-2.538c3.293-1.544 5.286-.144 7.327-2.55 1.275-1.502.982-3.125.635-4.064a2.817 2.817 0 00-.623-.958l-2.382-2.383a1.225 1.225 0 00-1.724 0z"/><path d="M14.359 23.003l8.644-8.644a1.225 1.225 0 000-1.724l-2.125-2.125a9.432 9.432 0 01-3.287 2.538c-3.292 1.544-5.285.144-7.326 2.55-1.275 1.503-.982 3.125-.635 4.065.138.359.353.682.623.957l2.382 2.383a1.225 1.225 0 001.724 0z"/></g><path d="M25.51 12.318l-2.68-2.682V5.841a1.67 1.67 0 00-1.67-1.67h-3.795l-2.682-2.682a1.673 1.673 0 00-2.364 0L9.636 4.171H5.841a1.67 1.67 0 00-1.67 1.67v3.795l-2.682 2.682a1.673 1.673 0 000 2.364l2.682 2.682v3.795c0 .922.748 1.67 1.67 1.67h3.795l2.682 2.682a1.673 1.673 0 002.364 0l2.682-2.682h3.795a1.67 1.67 0 001.67-1.67v-3.795l2.682-2.682a1.673 1.673 0 000-2.364zm-1.113 2.011l-2.604 2.604v3.687c0 .647-.526 1.173-1.173 1.173h-3.687l-2.604 2.604a1.167 1.167 0 01-1.658 0l-2.604-2.604H6.38a1.175 1.175 0 01-1.173-1.173v-3.687l-2.604-2.604a1.167 1.167 0 010-1.658l2.604-2.604V6.38c0-.647.526-1.173 1.173-1.173h3.687l2.604-2.604a1.167 1.167 0 011.658 0l2.604 2.604h3.687c.647 0 1.173.526 1.173 1.173v3.687l2.604 2.604c.461.46.461 1.203 0 1.658z" fill="#008669"/></svg>