<svg width="83" height="89" fill="none" xmlns="http://www.w3.org/2000/svg"><path d="M79.491 48.102l-44.514 25.7V49.114l44.515-25.7v24.688z" fill="#7F2D0A"/><path d="M79.491 48.102l-44.514 25.7v2.487l44.514-25.7v-2.487z" fill="#2B1C0B"/><path d="M53.162 58.804l-8.907 5.143v-14.41l8.907-5.144v14.411z" fill="#868686"/><path d="M52.548 58.376l-7.68 4.434v-9.714l7.68-4.434v9.714zM48.28 47.895l-3.412 1.97v2.661l3.413-1.97v-2.66zm.857-.494l3.412-1.97v2.661l-3.412 1.97v-2.66z" fill="#AEBCBC"/><path d="M70.216 48.96l-8.908 5.142V39.69l8.908-5.143V48.96z" fill="#868686"/><path d="M69.602 48.53l-7.68 4.435V43.25l7.68-4.434v9.714zm-4.268-10.48l-3.412 1.97v2.661l3.412-1.97v-2.66zm.856-.493l3.412-1.97v2.66l-3.412 1.97v-2.66z" fill="#AEBCBC"/><path d="M1 29.498l18.17-3.801 18.17 24.782L1 29.498z" fill="#7F2D0A"/><path d="M34.976 73.802L3.364 55.551V30.863l31.612 18.251v24.688z" fill="#A85633"/><path d="M34.976 73.802L3.364 55.551v2.487l31.612 18.25v-2.486z" fill="#4E3F2E"/><path d="M16.198 58.462L7.29 53.319V38.908l8.908 5.142v14.412z" fill="#F0EEE9"/><path d="M15.584 57.324l-7.68-4.434v-9.714l7.68 4.434v9.714zm-4.268-15.408l-3.412-1.97v2.66l3.412 1.97v-2.66zm.856.494l3.412 1.97v2.66l-3.412-1.97v-2.66z" fill="#D2E2E2"/><path d="M29.226 70.482l-8.38-4.838V46.739l8.38 4.838v18.905z" fill="#F0EEE9"/><path d="M28.34 69.97l-6.609-3.814V48.32l6.609 3.816V69.97z" fill="#4E3F2E"/><path d="M27.38 61.99l-1.491-.861c-.207-.12-.374-.44-.374-.714 0-.276.167-.402.373-.283l1.492.861c.206.12.373.439.373.714 0 .275-.167.402-.373.283z" fill="#F0EEE9"/><path d="M3.364 30.863l15.806-3.306 15.806 21.557-31.612-18.25z" fill="#A85633"/><path d="M19.17 25.697L63.69 0l18.17 24.782L37.34 50.48 19.17 25.697z" fill="#4E3F2E"/><path d="M63.691 0l-18.17 3.801L1 29.498l18.17-3.801L63.692 0z" fill="#7D6E5D"/><path d="M80.33 51.348v10M35.583 77.756v10M4.04 59.417v10m31.376 14.525L82 56.492M35.064 84.355L1.32 65.283" stroke="#fff" stroke-linecap="round"/></svg>