<svg width="91" height="74" fill="none" xmlns="http://www.w3.org/2000/svg"><path d="M75.482 46.258L32.674 70.973V47.231l42.808-24.715v23.742z" fill="#7F2D0A"/><path d="M75.482 46.258L32.674 70.973v2.391L75.482 48.65v-2.391z" fill="#2B1C0B"/><path d="M50.162 56.55l-8.566 4.945V47.637l8.566-4.946V56.55z" fill="#868686"/><path d="M49.572 56.138l-7.386 4.264V51.06l7.386-4.264v9.342zM45.468 46.06l-3.282 1.894v2.559l3.282-1.895V46.06zm.822-.476l3.282-1.894v2.559l-3.282 1.894v-2.559z" fill="#AEBCBC"/><path d="M66.56 47.082l-8.565 4.946V38.169l8.566-4.945v13.858z" fill="#868686"/><path d="M65.97 46.67l-7.385 4.264v-9.341l7.385-4.265v9.342zm-4.104-10.078l-3.281 1.894v2.559l3.281-1.895v-2.558zm.824-.475l3.28-1.895v2.559l-3.28 1.894v-2.558z" fill="#AEBCBC"/><path d="M0 28.367l17.474-3.655 17.474 23.832L0 28.367z" fill="#7F2D0A"/><path d="M32.674 70.973l-30.4-17.552V29.68l30.4 17.551v23.742z" fill="#A85633"/><path d="M32.674 70.973l-30.4-17.552v2.392l30.4 17.551v-2.391z" fill="#4E3F2E"/><path d="M14.615 56.22L6.05 51.275V37.416l8.566 4.946V56.22z" fill="#F0EEE9"/><path d="M14.025 55.127L6.64 50.861V41.52l7.385 4.264v9.342zM9.921 40.309L6.64 38.415v2.558l3.281 1.895v-2.559zm.823.475l3.281 1.894v2.56l-3.281-1.895v-2.56z" fill="#D2E2E2"/><path d="M27.144 67.78l-8.059-4.653v-18.18l8.059 4.653v18.18z" fill="#F0EEE9"/><path d="M26.292 67.288l-6.355-3.669V46.468l6.355 3.669v17.151z" fill="#4E3F2E"/><path d="M25.369 59.613l-1.434-.828c-.199-.114-.36-.422-.36-.686 0-.265.161-.387.36-.272l1.434.828c.198.114.36.422.36.687 0 .264-.162.386-.36.271z" fill="#F0EEE9"/><path d="M2.274 29.68l15.2-3.18 15.2 20.731-30.4-17.551z" fill="#A85633"/><path d="M17.474 24.712L60.288 0l17.474 23.832-42.814 24.712-17.474-23.832z" fill="#4E3F2E"/><path d="M60.288 0L42.814 3.655 0 28.367l17.474-3.655L60.288 0z" fill="#7D6E5D"/><path stroke="#fff" stroke-linecap="round" d="M80.919 24.895H90.5m-9.581 23.279H90.5m-4.643-24.395v25.806"/></svg>