<svg width="91" height="48" fill="none" xmlns="http://www.w3.org/2000/svg"><g clip-path="url(#clip0_2477_6330)"><path d="M1.68 3h39.64v40.313H1.68V3z" fill="#4E3F2E"/><path d="M25.531 6.695h12.094v32.586H25.531V6.695zm-20.156 0h13.438v32.586H5.374V6.695z" fill="#A4D7F4"/><path d="M21.164 3h.672v43h-.672V3z" fill="#EBEBEB"/><path d="M43 44.106v.428c0 .808-.658 1.466-1.465 1.466H1.465A1.467 1.467 0 010 44.535v-.429c0-.808.658-1.465 1.466-1.465h40.069c.807 0 1.465.657 1.465 1.465z" fill="#9F8C7F"/><path d="M7.58 16.984a.335.335 0 00.238-.098l7.601-7.602a.336.336 0 10-.475-.475l-7.601 7.602a.336.336 0 00.237.573zm5.939-3.601a.336.336 0 00-.475 0L6.868 19.56a.336.336 0 10.475.475l6.176-6.176a.336.336 0 000-.475zm18.93 15.873a.336.336 0 00-.475 0l-6.176 6.176a.336.336 0 10.475.475l6.176-6.176a.336.336 0 000-.475zm2.821-.521l-4.275 4.276a.336.336 0 10.475.475l4.276-4.276a.336.336 0 10-.476-.475zM37.317 9.78a.336.336 0 00-.475 0l-5.7 5.7a.336.336 0 00.474.475l5.701-5.7a.336.336 0 000-.476zm-1.955 4.75l-5.701 5.701a.336.336 0 10.475.475l5.701-5.7a.336.336 0 10-.475-.476zM15.887 27.668l-5.7 5.701a.336.336 0 10.475.475l5.7-5.7a.336.336 0 10-.475-.476zm-1.9 4.751l-5.701 5.7a.336.336 0 10.475.476l5.701-5.701a.336.336 0 10-.475-.475z" fill="#EBEBEB"/><path d="M23.852 26.18a.336.336 0 01-.336-.336v-2.016c0-.185.15-.336.336-.336h4.45a.336.336 0 110 .672h-4.114v1.68c0 .185-.15.336-.336.336z" fill="#000"/></g><path d="M51.026 4.998H75v38.625H51.026V4.998z" fill="#4E3F2E"/><path d="M63.013 45.621h1.332V3h-1.332L52.358 6.33v35.96l10.655 3.33z" fill="#9F8C7F"/><path d="M60.995 27.194l-.82-.137a.589.589 0 01-.493-.581v-2.998c0-.288.208-.534.492-.58l.82-.138a.589.589 0 01.686.581v3.272c0 .364-.327.64-.685.58z" fill="#fff"/><path d="M63.013 3h1.332v42.621h-1.332V3z" fill="#4E3F2E"/><path d="M64.344 6.33h9.324v35.962h-9.324V6.33z" fill="#4F4F4F"/><path d="M60.348 23.977h-.587l-.588-.293a1.848 1.848 0 00-1.646 0l-.657.329a.333.333 0 00.297.595l.658-.329a1.18 1.18 0 011.05 0l.658.33a.333.333 0 00.15.034h.665a.333.333 0 000-.666z" fill="#000"/><path stroke="#3B3535" stroke-linecap="round" d="M80.5 45.5h9.581M85.5.5v47m-5-45h9.581"/><defs><clipPath id="clip0_2477_6330"><path fill="#fff" transform="translate(0 3)" d="M0 0h43v43H0z"/></clipPath></defs></svg>