<svg width="142" height="141" fill="none" xmlns="http://www.w3.org/2000/svg"><g opacity=".7"><path d="M70.75 138.062a2.926 2.926 0 01-.881-.132C31.469 125.928 12 89.406 12 29.375a2.937 2.937 0 012.412-2.89c.317-.047 31.927-5.975 54.575-22.96a2.938 2.938 0 013.526 0c22.648 16.985 54.258 22.913 54.575 22.96a2.938 2.938 0 012.412 2.89c0 60.03-19.47 96.553-57.869 108.555a2.926 2.926 0 01-.881.132z" fill="#EDEDED"/><path d="M68.987 3.525C46.34 20.51 14.73 26.438 14.412 26.485A2.937 2.937 0 0012 29.375c0 60.03 19.47 96.553 57.869 108.555.285.089.582.133.881.132V2.937c-.636 0-1.254.207-1.763.588z" fill="#B9B9B9"/><path d="M70.75 129.269a3.38 3.38 0 01-1.233-.237c-30.288-12.05-46.137-42.216-48.456-92.213a3.332 3.332 0 012.425-3.362 186.302 186.302 0 0045.528-19.245 3.332 3.332 0 013.472 0 186.299 186.299 0 0045.527 19.245 3.33 3.33 0 012.426 3.362c-2.332 49.987-18.168 80.163-48.456 92.213a3.38 3.38 0 01-1.233.237z" fill="#fff"/><path d="M69.12 14.214a186.939 186.939 0 01-45.628 19.244 3.34 3.34 0 00-1.804 1.258 3.326 3.326 0 00-.627 2.105c2.337 49.986 18.208 80.161 48.564 92.211.393.155.813.236 1.236.237V13.724c-.615 0-1.217.17-1.74.49z" fill="#D4D4D4"/></g></svg>