<svg width="136" height="135" fill="none" xmlns="http://www.w3.org/2000/svg"><g opacity=".7" clip-path="url(#clip0_382_38740)"><path d="M68.536 135c21.52-.064 39.236-18.047 39.073-39.569-.228-30.056-27.894-61.947-37.261-93.978C70.064.483 69.24-.001 68.417 0c-.824-.001-1.648.482-1.931 1.453-9.367 32.031-37.034 63.922-37.262 93.978-.163 21.522 17.553 39.505 39.074 39.569" fill="#B2EDFF"/><path d="M81.484 124.19a3.267 3.267 0 01-1.512-6.163 25.032 25.032 0 0012.815-16.439 3.267 3.267 0 016.358 1.501 31.562 31.562 0 01-16.154 20.731c-.483.251-.998.37-1.507.37z" fill="#E8FAFF"/><path d="M81.6 130.645h-.238c-21.521-.068-39.237-19.211-39.073-42.121.17-23.78 15.493-48.64 27.198-73.837 1.918-4.13 2.16-8.8.88-13.169a15.641 15.641 0 01-.02-.065C70.064.483 69.24-.001 68.417 0c-.824-.002-1.648.482-1.931 1.453-9.975 34.11-40.7 68.06-36.947 99.805C31.832 120.65 48.771 135 68.298 135h.237c6.707-.02 13.042-1.782 18.583-4.847-1.809.286-3.642.486-5.518.492z" fill="#59D8FF"/></g><defs><clipPath id="clip0_382_38740"><path fill="#fff" transform="translate(.917)" d="M0 0h135v135H0z"/></clipPath></defs></svg>