<svg width="136" height="135" fill="none" xmlns="http://www.w3.org/2000/svg"><g opacity=".7"><path d="M133.141 67.5h-21.094c0-12.236-4.957-23.31-12.973-31.326l14.913-14.912c11.834 11.832 19.154 28.18 19.154 46.238z" fill="#F6BB42"/><path d="M112.047 67.5h21.094c0 18.035-7.299 34.383-19.154 46.214L99.074 98.822c8.016-8.013 12.973-19.088 12.973-31.322z" fill="#8CC152"/><path d="M113.987 113.714v.023c-11.833 11.832-28.16 19.154-46.237 19.154v-21.094c12.234 0 23.309-4.959 31.324-12.973l14.913 14.89z" fill="#37BC9B"/><path d="M113.987 21.262L99.074 36.175c-8.015-8.014-19.09-12.97-31.324-12.97V2.108c18.077 0 34.404 7.32 46.237 19.154z" fill="#E9573F"/><path d="M112.047 67.5H90.954a23.13 23.13 0 00-6.793-16.41l14.911-14.914c8.018 8.013 12.975 19.087 12.975 31.324z" fill="#FFCE54"/><path d="M84.16 83.909l14.912 14.913c-8.013 8.016-19.088 12.975-31.322 12.975V90.703a23.123 23.123 0 0016.41-6.794z" fill="#48CFAD"/><path d="M67.75 111.797v21.094c-18.056 0-34.404-7.322-46.237-19.154l14.913-14.913c8.015 8.014 19.11 12.973 31.324 12.973z" fill="#4A89DC"/><path d="M67.75 90.703v21.094c-12.213 0-23.309-4.959-31.324-12.973l14.911-14.913a23.176 23.176 0 0016.413 6.792z" fill="#5D9CEC"/><path d="M67.75 23.203v21.094a23.11 23.11 0 00-16.39 6.792h-.02L36.427 36.176c8.014-8.016 19.109-12.973 31.322-12.973z" fill="#ED5565"/><path d="M36.426 98.824l-14.914 14.913C9.68 101.904 2.36 85.557 2.36 67.5h21.094c0 12.234 4.957 23.309 12.973 31.324z" fill="#967ADC"/><path d="M90.974 67.5h21.073c0 12.234-4.957 23.309-12.973 31.324l-14.91-14.913a23.178 23.178 0 006.79-16.411h.02z" fill="#A0D468"/><path d="M36.426 36.174l14.911 14.913c-4.196 4.2-6.79 10-6.79 16.413H23.453c0-12.236 4.957-23.31 12.973-31.326z" fill="#EC87C0"/><path d="M51.34 83.909L36.427 98.822C28.41 90.81 23.453 79.734 23.453 67.5h21.094a23.16 23.16 0 006.792 16.409z" fill="#AC92EC"/><path d="M21.512 21.262l14.914 14.912C28.41 44.189 23.453 55.264 23.453 67.5H2.36c0-18.058 7.32-34.406 19.154-46.237z" fill="#D770AD"/><path d="M99.074 36.174L84.163 51.087c-4.2-4.198-10-6.79-16.413-6.79V23.203c12.234 0 23.309 4.957 31.324 12.97z" fill="#FC6E51"/><path d="M67.75 2.11v21.093c-12.213 0-23.309 4.957-31.324 12.97l-14.914-14.91C33.346 9.428 49.694 2.108 67.75 2.108z" fill="#DA4453"/></g></svg>