<svg width="136" height="135" fill="none" xmlns="http://www.w3.org/2000/svg"><g opacity=".7"><path d="M101.972 67.5l-16.875-5.81-9.96 5.81 9.96 5.81 16.875-5.81zM71.68 61.414l9.959-5.81 3.458-17.428-13.417 11.62v11.618zm13.278 35.41L81.5 79.396l-9.959-5.81v11.48l13.417 11.758zm-33.75 0l13.417-11.62v-11.48l-9.959 5.81-3.458 17.29zM34.195 67.5l16.875 5.81 9.96-5.81-9.96-5.81-16.875 5.81zm20.333-11.895l9.96 5.809v-11.48L51.07 38.313l3.458 17.29zm9.96-52.009C64.487 1.66 66.007 0 68.082 0c1.937 0 3.597 1.522 3.597 3.596v9.96l7.33-6.363c1.522-1.245 3.735-1.107 4.98.276 1.245 1.522 1.107 3.735-.276 4.98L71.817 22.823v17.705l15.768-13.694c1.245-1.107 3.043-1.107 4.288-.277 1.522.692 2.352 2.213 2.075 3.873L89.66 50.902l15.354-8.853 3.043-15.492c.415-1.936 2.213-3.181 4.149-2.766 1.937.415 3.182 2.213 2.767 4.15l-1.937 9.544 8.576-4.98c1.66-.968 3.873-.415 4.841 1.245.969 1.66.415 3.873-1.245 4.841l-8.575 4.98 9.129 3.181c1.798.692 2.766 2.628 2.213 4.426-.692 1.798-2.628 2.767-4.426 2.213l-14.939-5.117-15.354 8.852 19.78 6.778c1.522.553 2.49 2.074 2.352 3.734.138 1.66-.83 3.182-2.352 3.735l-19.78 6.778 15.354 8.852 14.939-5.118c1.798-.691 3.873.415 4.426 2.213.691 1.799-.415 3.873-2.213 4.427l-9.129 3.18 8.575 4.98c1.66.969 2.214 3.182 1.245 4.842-.968 1.659-3.181 2.213-4.841 1.245l-8.576-4.98 1.937 9.544c.415 1.937-.83 3.735-2.767 4.15-1.936.415-3.734-.83-4.149-2.767l-3.043-15.491-15.354-9.13 4.011 20.472c.277 1.66-.553 3.319-2.074 3.873-1.245.968-3.043.83-4.288-.277L71.54 94.472v17.705l11.896 10.374c1.521 1.245 1.66 3.458.276 4.98-1.244 1.521-3.457 1.66-4.979.276l-7.331-6.362v9.959c0 1.936-1.522 3.596-3.596 3.596-1.937 0-3.597-1.522-3.597-3.596v-9.959l-7.33 6.362c-1.522 1.245-3.735 1.107-4.98-.276-1.245-1.522-1.107-3.735.277-4.98l11.895-10.374V94.472l-15.768 13.694c-1.245 1.107-3.043 1.107-4.288.277-1.522-.692-2.352-2.213-2.075-3.873l4.564-20.472-15.353 8.853-3.043 15.492c-.415 1.936-2.213 3.181-4.15 2.766-1.936-.415-3.181-2.213-2.766-4.15l1.936-9.544-8.575 4.98c-1.66.968-3.873.415-4.842-1.245-.968-1.66-.414-3.873 1.245-4.841l8.576-4.98-9.129-3.181c-1.798-.692-2.766-2.628-2.213-4.426.692-1.798 2.628-2.767 4.426-2.213l14.939 5.117 13.278-7.607 2.075-1.245-19.78-6.778c-1.521-.553-2.49-2.075-2.351-3.734-.138-1.66.83-3.182 2.352-3.735l19.78-6.778-15.354-8.852-14.939 5.118c-1.798.691-3.873-.415-4.426-2.213-.692-1.799.415-3.873 2.213-4.427l9.13-3.18-8.577-4.98c-1.66-.969-2.213-3.182-1.245-4.842.969-1.66 3.182-2.213 4.842-1.245l8.575 4.98-1.798-9.544c-.415-1.937.83-3.735 2.767-4.15 1.936-.415 3.734.83 4.15 2.767l3.042 15.492 15.215 9.129-4.01-20.472c-.277-1.66.553-3.32 2.074-3.873 1.245-.968 3.043-.83 4.288.277l15.768 13.694V22.822L52.73 12.45c-1.522-1.245-1.66-3.458-.277-4.98 1.245-1.521 3.458-1.66 4.98-.276l7.33 6.362v-9.96h-.276z" fill="#ACD3F0"/><path d="M51.208 96.824l3.458-17.428 9.96-5.81v11.48L51.207 96.825zm13.28-35.41l-9.96-5.81-3.458-17.428 13.417 11.62v11.618zM51.07 73.309L34.195 67.5l16.875-5.81 9.96 5.81-9.96 5.81zM31.152 92.813l15.353-8.715-4.01 20.472c-.277 1.66.553 3.319 2.074 3.873 1.245.968 3.043.83 4.288-.277l15.768-13.694v17.705L52.73 122.551c-1.522 1.245-1.66 3.458-.277 4.98 1.245 1.521 3.458 1.66 4.98.276l7.33-6.362v9.959c0 1.936 1.522 3.596 3.597 3.596V0c-1.936 0-3.596 1.522-3.596 3.596v9.96l-7.331-6.363c-1.522-1.245-3.735-1.107-4.98.276-1.245 1.522-1.106 3.735.277 4.98l11.895 10.374v17.705L48.857 26.834c-1.245-1.107-3.043-1.107-4.288-.277-1.522.692-2.351 2.213-2.075 3.873l4.011 20.472-15.353-8.853-3.043-15.492c-.415-1.936-2.213-3.181-4.15-2.766-1.936.415-3.181 2.213-2.766 4.15l1.798 9.544-8.576-4.98c-1.66-.968-3.873-.415-4.84 1.245-.97 1.66-.416 3.873 1.244 4.841l8.576 4.98-8.99 3.181c-1.8.692-2.767 2.628-2.214 4.426.692 1.798 2.628 2.767 4.426 2.213l14.939-5.117 15.353 8.852-19.78 6.778c-1.521.553-2.49 2.074-2.351 3.734-.138 1.66.83 3.182 2.352 3.735l19.78 6.778-2.076 1.245-13.278 7.607-14.939-5.118c-1.798-.691-3.873.415-4.426 2.213-.692 1.799.415 3.873 2.213 4.427l9.13 3.18-8.577 4.98c-1.66.969-2.213 3.182-1.245 4.842.969 1.659 3.182 2.213 4.842 1.245l8.575-4.98-1.936 9.544c-.415 1.937.83 3.735 2.766 4.15 1.937.415 3.735-.83 4.15-2.767l3.043-15.906z" fill="#C7E2F5"/></g></svg>