<svg width="643" height="1356" fill="none" xmlns="http://www.w3.org/2000/svg"><g opacity=".7" clip-path="url(#clip0_1_60)"><path d="M263.354 896.652L74.098 1085.88c-14.684 14.68-14.684 38.49 0 53.17l189.256 189.23c14.685 14.68 38.493 14.68 53.178 0l189.256-189.23c14.685-14.68 14.685-38.49 0-53.17L316.532 896.652c-14.685-14.683-38.493-14.683-53.178 0z" fill="#CE2329"/><path opacity=".2" d="M309.91 26.728L120.654 215.957c-14.685 14.683-14.685 38.488 0 53.17l189.256 189.23c14.684 14.682 38.493 14.682 53.177 0l189.256-189.23c14.685-14.682 14.685-38.487 0-53.17L363.087 26.727c-14.684-14.682-38.493-14.682-53.177 0z" fill="#F0EEE9"/><path d="M126.608 691.305l-73.751 73.74c-5.722 5.722-5.722 14.998 0 20.72l73.751 73.741c5.723 5.721 15 5.721 20.723 0l73.751-73.741c5.722-5.722 5.722-14.998 0-20.72l-73.751-73.74c-5.723-5.722-15-5.722-20.723 0zm432.675 64.721l-37.701 37.695a7.49 7.49 0 000 10.592l37.701 37.696a7.49 7.49 0 0010.593 0l37.701-37.696a7.49 7.49 0 000-10.592l-37.701-37.695a7.49 7.49 0 00-10.593 0zm-126.708 24.783l-80.086 80.075c-6.214 6.213-6.214 16.286 0 22.5l80.086 80.074c6.214 6.213 16.289 6.213 22.503 0l80.085-80.074c6.214-6.214 6.214-16.287 0-22.5l-80.085-80.075c-6.214-6.213-16.289-6.213-22.503 0z" fill="#CE2329"/><path opacity=".2" d="M573.649 881.695l-49.027 49.02a7.69 7.69 0 000 10.877l49.027 49.021a7.693 7.693 0 0010.878 0l49.028-49.021a7.69 7.69 0 000-10.877l-49.028-49.02a7.692 7.692 0 00-10.878 0zm-15.042-377.224l-49.027 49.021a7.69 7.69 0 000 10.877l49.027 49.02a7.693 7.693 0 0010.879 0l49.027-49.02a7.69 7.69 0 000-10.877l-49.027-49.021a7.695 7.695 0 00-10.879 0z" stroke="#F0EEE9" stroke-width="3.269"/><path d="M329.91 512.871L229.564 613.202c-7.786 7.785-7.786 20.407 0 28.192L329.91 741.725c7.786 7.785 20.409 7.785 28.195 0l100.346-100.331c7.786-7.785 7.786-20.407 0-28.192L358.105 512.871c-7.786-7.785-20.409-7.785-28.195 0z" fill="#CE2329"/><path d="M462.617 297.819l-83.27 83.258c-5.482 5.481-5.482 14.368 0 19.85l83.27 83.258c5.482 5.481 14.37 5.481 19.852 0l83.27-83.258c5.482-5.482 5.482-14.369 0-19.85l-83.27-83.258c-5.482-5.482-14.37-5.482-19.852 0zM332.636 431.05l-48.43 48.422a7.114 7.114 0 000 10.062l48.43 48.423a7.117 7.117 0 0010.063 0l48.429-48.423a7.114 7.114 0 000-10.062l-48.429-48.422a7.115 7.115 0 00-10.063 0z" stroke="#CE2329" stroke-width="4"/><path d="M143.054 366.738l-89.27 89.258c-6.927 6.925-6.927 18.154 0 25.08l89.27 89.257c6.927 6.926 18.157 6.926 25.083 0l89.27-89.257c6.927-6.926 6.927-18.155 0-25.08l-89.27-89.258c-6.926-6.925-18.156-6.925-25.083 0z" fill="#CE2329"/><path opacity=".2" d="M493.209 635.63l-59.994 59.986c-4.655 4.654-4.655 12.201 0 16.855l59.994 59.986c4.655 4.655 12.203 4.655 16.858 0l59.994-59.986c4.655-4.654 4.655-12.201 0-16.855l-59.994-59.986c-4.655-4.655-12.203-4.655-16.858 0zM87.094 299.578l-34.708 34.703a6.894 6.894 0 000 9.751l34.708 34.703a6.896 6.896 0 009.752 0l34.708-34.703a6.894 6.894 0 000-9.751l-34.708-34.703a6.896 6.896 0 00-9.752 0zm343.652 692.603L306.827 1116.08c-9.615 9.62-9.615 25.2 0 34.82l123.919 123.9c9.614 9.61 25.203 9.61 34.818 0l123.919-123.9c9.615-9.62 9.615-25.2 0-34.82L465.564 992.181c-9.615-9.613-25.203-9.613-34.818 0zM258.343 723.312L127.49 854.147c-10.154 10.152-10.154 26.611 0 36.763l130.853 130.84c10.153 10.15 26.615 10.15 36.768 0l130.854-130.84c10.153-10.152 10.153-26.611 0-36.763L295.111 723.312c-10.153-10.152-26.615-10.152-36.768 0z" fill="#F0EEE9"/><path opacity=".2" d="M136.467 484.082L19.358 601.174c-8.108 8.107-8.108 21.25 0 29.356l117.109 117.093c8.107 8.106 21.253 8.106 29.36 0L282.936 630.53c8.108-8.106 8.108-21.249 0-29.356L165.827 484.082c-8.108-8.107-21.253-8.107-29.36 0z" stroke="#F0EEE9" stroke-width="4"/></g><defs><clipPath id="clip0_1_60"><path fill="#fff" transform="rotate(90 321.5 321.5)" d="M0 0h1356v643H0z"/></clipPath></defs></svg>