<svg width="35" height="35" fill="none" xmlns="http://www.w3.org/2000/svg"><path d="M25.526 0H9.474C4.25 0 0 4.25 0 9.474v16.052C0 30.75 4.25 35 9.474 35h16.052C30.75 35 35 30.75 35 25.526V9.474C35 4.25 30.75 0 25.526 0zm7.422 25.526c0 4.093-3.33 7.422-7.422 7.422H9.474c-4.093 0-7.422-3.33-7.422-7.422V9.474c0-4.093 3.33-7.422 7.422-7.422h16.052c4.093 0 7.422 3.33 7.422 7.422v16.052z" fill="#3B3535"/><path d="M17.5 7.93c-5.277 0-9.57 4.293-9.57 9.57s4.293 9.57 9.57 9.57 9.57-4.293 9.57-9.57-4.293-9.57-9.57-9.57zm0 17.088c-4.145 0-7.518-3.373-7.518-7.518 0-4.146 3.373-7.518 7.518-7.518 4.146 0 7.518 3.372 7.518 7.518 0 4.145-3.372 7.518-7.518 7.518zm9.799-20.487A2.831 2.831 0 0024.47 7.36a2.831 2.831 0 002.828 2.828 2.831 2.831 0 002.828-2.828 2.831 2.831 0 00-2.828-2.828zm0 3.604a.777.777 0 010-1.552.777.777 0 010 1.552z" fill="#3B3535"/></svg>