<svg width="25" height="25" fill="none" xmlns="http://www.w3.org/2000/svg"><g clip-path="url(#clip0_279_22530)" fill="#CE2329"><path d="M14.06 19.254H0v2.175a2.493 2.493 0 002.324 2.484.626.626 0 01.084-.007h12.644a3.74 3.74 0 01-.992-2.54v-2.112z"/><path d="M3.938 2.654l-.105 15.399h10.828a.6.6 0 01.6.6v2.714c0 1.307 1.043 2.422 2.323 2.54h.205a.61.61 0 01.098.008 2.55 2.55 0 002.463-2.548V2.845c0-.633.21-1.25.597-1.751H5.526a1.576 1.576 0 00-1.588 1.56zM6.51 5.199h5.69a.6.6 0 110 1.2H6.51a.6.6 0 110-1.2zm0 4.294h10.612a.6.6 0 110 1.201H6.51a.6.6 0 110-1.2zm0 4.295h10.612a.6.6 0 110 1.201H6.51a.6.6 0 110-1.201zM23.276 1.149a1.712 1.712 0 00-1.724 1.696v8.316H25V2.845a1.712 1.712 0 00-1.724-1.696z"/></g><defs><clipPath id="clip0_279_22530"><path fill="#fff" d="M0 0h25v25H0z"/></clipPath></defs></svg>