<svg width="800" height="800" viewBox="0 0 800 800" fill="none" xmlns="http://www.w3.org/2000/svg">
<g clip-path="url(#clip0_2_194)">
<mask id="mask0_2_194" style="mask-type:luminance" maskUnits="userSpaceOnUse" x="0" y="0" width="800" height="800">
<path d="M800 0H0V800H800V0Z" fill="white"/>
</mask>
<g mask="url(#mask0_2_194)">
<mask id="mask1_2_194" style="mask-type:alpha" maskUnits="userSpaceOnUse" x="-8" y="113" width="801" height="573">
<path d="M735.714 121H50C22.3858 121 0 143.38 0 170.987V628.013C0 655.62 22.3858 678 50 678H735.714C763.328 678 785.714 655.62 785.714 628.013V170.987C785.714 143.38 763.328 121 735.714 121Z" fill="white" stroke="white" stroke-width="14.2857"/>
</mask>
<g mask="url(#mask1_2_194)">
<path d="M0 121H1000V827H0V121Z" fill="#00ABC2"/>
</g>
<path d="M404.692 433.967C441.847 433.967 471.967 403.847 471.967 366.692C471.967 329.537 441.847 299.417 404.692 299.417C367.537 299.417 337.417 329.537 337.417 366.692C337.417 403.847 367.537 433.967 404.692 433.967Z" fill="#FFEC2D"/>
<path d="M404.691 290.242C408.691 290.192 410.191 287.692 410.191 284.692C410.191 280.692 404.691 261.642 404.691 261.642C404.691 261.642 399.191 280.692 399.191 284.692C399.191 287.692 400.691 290.242 404.691 290.242Z" fill="#FFEC2D"/>
<path d="M481.142 366.692C481.192 370.692 483.692 372.192 486.692 372.192C490.692 372.192 509.742 366.692 509.742 366.692C509.742 366.692 490.692 361.192 486.692 361.192C483.692 361.192 481.142 362.692 481.142 366.692Z" fill="#FFEC2D"/>
<path d="M404.691 443.142C400.691 443.192 399.191 445.692 399.191 448.692C399.191 452.692 404.691 471.742 404.691 471.742C404.691 471.742 410.191 452.692 410.191 448.692C410.191 445.692 408.691 443.142 404.691 443.142Z" fill="#FFEC2D"/>
<path d="M328.242 366.692C328.192 362.692 325.692 361.192 322.692 361.192C318.692 361.192 299.642 366.692 299.642 366.692C299.642 366.692 318.692 372.192 322.692 372.192C325.692 372.192 328.242 370.692 328.242 366.692Z" fill="#FFEC2D"/>
<path d="M433.948 296.061C437.662 297.546 440.005 295.81 441.153 293.039C442.684 289.343 444.892 269.638 444.892 269.638C444.892 269.638 432.521 285.133 430.99 288.829C429.842 291.601 430.252 294.531 433.948 296.061Z" fill="#FFEC2D"/>
<path d="M475.322 395.948C473.837 399.663 475.573 402.005 478.345 403.153C482.04 404.684 501.745 406.893 501.745 406.893C501.745 406.893 486.25 394.521 482.554 392.991C479.783 391.842 476.853 392.252 475.322 395.948Z" fill="#FFEC2D"/>
<path d="M375.435 437.322C371.721 435.838 369.378 437.574 368.23 440.345C366.699 444.041 364.49 463.745 364.49 463.745C364.49 463.745 376.862 448.25 378.393 444.555C379.541 441.783 379.131 438.853 375.435 437.322Z" fill="#FFEC2D"/>
<path d="M334.061 337.436C335.545 333.721 333.81 331.378 331.038 330.23C327.343 328.7 307.638 326.491 307.638 326.491C307.638 326.491 323.133 338.862 326.829 340.393C329.6 341.541 332.53 341.131 334.061 337.436Z" fill="#FFEC2D"/>
<path d="M458.75 312.633C461.614 315.427 464.442 314.719 466.563 312.598C469.392 309.77 478.973 292.41 478.973 292.41C478.973 292.41 461.614 301.992 458.785 304.82C456.664 306.941 455.921 309.805 458.75 312.633Z" fill="#FFEC2D"/>
<path d="M458.75 420.75C455.957 423.614 456.664 426.442 458.785 428.564C461.614 431.392 478.973 440.973 478.973 440.973C478.973 440.973 469.392 423.614 466.563 420.785C464.442 418.664 461.578 417.922 458.75 420.75Z" fill="#FFEC2D"/>
<path d="M350.633 420.75C347.769 417.957 344.941 418.664 342.819 420.785C339.991 423.614 330.41 440.973 330.41 440.973C330.41 440.973 347.769 431.392 350.598 428.564C352.719 426.442 353.461 423.579 350.633 420.75Z" fill="#FFEC2D"/>
<path d="M350.633 312.633C353.426 309.77 352.719 306.941 350.597 304.82C347.769 301.992 330.41 292.41 330.41 292.41C330.41 292.41 339.991 309.77 342.819 312.598C344.941 314.719 347.804 315.462 350.633 312.633Z" fill="#FFEC2D"/>
<path d="M475.322 337.436C476.899 341.112 479.783 341.541 482.555 340.393C486.25 338.862 501.745 326.491 501.745 326.491C501.745 326.491 482.041 328.7 478.345 330.23C475.574 331.378 473.792 333.74 475.322 337.436Z" fill="#FFEC2D"/>
<path d="M433.948 437.322C430.272 438.899 429.843 441.783 430.991 444.555C432.521 448.25 444.893 463.745 444.893 463.745C444.893 463.745 442.684 444.041 441.153 440.345C440.005 437.574 437.644 435.792 433.948 437.322Z" fill="#FFEC2D"/>
<path d="M334.061 395.948C332.484 392.272 329.601 391.842 326.829 392.99C323.134 394.521 307.638 406.893 307.638 406.893C307.638 406.893 327.343 404.684 331.039 403.153C333.81 402.005 335.592 399.643 334.061 395.948Z" fill="#FFEC2D"/>
<path d="M375.436 296.061C379.112 294.484 379.541 291.601 378.393 288.829C376.862 285.133 364.491 269.638 364.491 269.638C364.491 269.638 366.7 289.343 368.231 293.038C369.379 295.81 371.74 297.592 375.436 296.061Z" fill="#FFEC2D"/>
<path d="M419.606 291.711C423.539 292.442 425.498 290.283 426.083 287.34C426.864 283.417 425.186 263.66 425.186 263.66C425.186 263.66 416.075 281.271 415.295 285.194C414.709 288.137 415.683 290.93 419.606 291.711Z" fill="#FFEC2D"/>
<path d="M479.672 381.606C478.941 385.539 481.1 387.498 484.043 388.083C487.966 388.864 507.723 387.186 507.723 387.186C507.723 387.186 490.112 378.075 486.189 377.295C483.246 376.71 480.453 377.683 479.672 381.606Z" fill="#FFEC2D"/>
<path d="M389.777 441.673C385.844 440.941 383.885 443.101 383.3 446.043C382.52 449.966 384.197 469.723 384.197 469.723C384.197 469.723 393.308 452.112 394.089 448.189C394.674 445.247 393.7 442.453 389.777 441.673Z" fill="#FFEC2D"/>
<path d="M329.71 351.777C330.442 347.844 328.282 345.885 325.34 345.3C321.417 344.52 301.66 346.197 301.66 346.197C301.66 346.197 319.271 355.308 323.194 356.089C326.136 356.674 328.93 355.7 329.71 351.777Z" fill="#FFEC2D"/>
<path d="M447.165 303.126C450.519 305.307 453.155 304.061 454.822 301.567C457.044 298.241 463.055 279.346 463.055 279.346C463.055 279.346 447.898 292.13 445.676 295.456C444.009 297.95 443.839 300.904 447.165 303.126Z" fill="#FFEC2D"/>
<path d="M468.258 409.165C466.077 412.519 467.322 415.155 469.817 416.822C473.142 419.044 492.038 425.054 492.038 425.054C492.038 425.054 479.254 409.898 475.928 407.675C473.433 406.009 470.48 405.839 468.258 409.165Z" fill="#FFEC2D"/>
<path d="M362.219 430.258C358.865 428.077 356.229 429.322 354.562 431.817C352.34 435.142 346.329 454.038 346.329 454.038C346.329 454.038 361.486 441.254 363.708 437.928C365.375 435.433 365.544 432.48 362.219 430.258Z" fill="#FFEC2D"/>
<path d="M341.126 324.218C343.306 320.865 342.061 318.229 339.567 316.562C336.241 314.34 317.346 308.329 317.346 308.329C317.346 308.329 330.13 323.486 333.455 325.708C335.95 327.375 338.903 327.544 341.126 324.218Z" fill="#FFEC2D"/>
<path d="M468.258 324.218C470.521 327.517 473.433 327.375 475.928 325.708C479.254 323.486 492.038 308.329 492.038 308.329C492.038 308.329 473.142 314.34 469.817 316.562C467.322 318.229 466.035 320.893 468.258 324.218Z" fill="#FFEC2D"/>
<path d="M447.165 430.258C443.867 432.522 444.009 435.434 445.675 437.928C447.898 441.254 463.054 454.038 463.054 454.038C463.054 454.038 457.044 435.143 454.822 431.817C453.155 429.322 450.491 428.035 447.165 430.258Z" fill="#FFEC2D"/>
<path d="M341.126 409.165C338.862 405.867 335.95 406.009 333.455 407.676C330.13 409.898 317.346 425.054 317.346 425.054C317.346 425.054 336.241 419.044 339.567 416.822C342.061 415.155 343.348 412.491 341.126 409.165Z" fill="#FFEC2D"/>
<path d="M362.218 303.126C365.516 300.862 365.375 297.95 363.708 295.456C361.486 292.13 346.329 279.346 346.329 279.346C346.329 279.346 352.339 298.241 354.562 301.567C356.228 304.061 358.892 305.348 362.218 303.126Z" fill="#FFEC2D"/>
<path d="M479.673 351.777C480.502 355.691 483.247 356.674 486.189 356.089C490.112 355.308 507.723 346.198 507.723 346.198C507.723 346.198 487.966 344.52 484.043 345.3C481.101 345.885 478.893 347.854 479.673 351.777Z" fill="#FFEC2D"/>
<path d="M419.606 441.673C415.693 442.502 414.709 445.247 415.295 448.189C416.075 452.112 425.186 469.723 425.186 469.723C425.186 469.723 426.864 449.966 426.083 446.043C425.498 443.101 423.529 440.892 419.606 441.673Z" fill="#FFEC2D"/>
<path d="M329.711 381.606C328.881 377.693 326.137 376.71 323.195 377.295C319.271 378.075 301.66 387.186 301.66 387.186C301.66 387.186 321.417 388.864 325.341 388.083C328.283 387.498 330.491 385.53 329.711 381.606Z" fill="#FFEC2D"/>
<path d="M389.777 291.711C393.691 290.881 394.674 288.137 394.089 285.194C393.308 281.271 384.198 263.66 384.198 263.66C384.198 263.66 382.52 283.417 383.3 287.34C383.885 290.283 385.854 292.491 389.777 291.711Z" fill="#FFEC2D"/>
<path d="M392.689 512.425C390.889 512.525 389.139 512.758 387.422 513.308C385.072 513.625 382.822 514.442 380.489 514.825L379.556 514.975L377.989 515.125C378.089 515.558 378.156 515.992 378.156 516.425C378.156 516.875 378.106 517.308 377.989 517.675C377.889 518.025 377.572 518.458 377.322 518.725C376.989 519.092 376.639 519.408 376.222 519.608C375.822 519.808 375.372 519.892 374.922 519.925C374.472 519.942 374.006 519.925 373.572 519.758C373.122 519.608 372.706 519.325 372.322 518.992C371.862 519.106 371.394 519.189 370.922 519.242C370.456 519.292 370.022 519.292 369.606 519.242C369.139 519.108 368.656 518.958 368.206 518.775C367.752 518.587 367.317 518.358 366.906 518.092C365.206 519.092 363.306 520.042 362.272 521.792C361.689 522.592 361.572 523.508 361.439 524.458C361.356 525.625 361.656 526.858 362.156 527.942C362.339 528.258 362.489 526.792 363.056 526.592C364.006 525.808 365.189 525.242 366.389 524.925C367.406 524.408 367.272 524.958 366.856 525.758C366.756 526.175 366.189 527.758 366.956 526.958C370.339 525.458 374.089 525.158 377.739 524.875C383.039 524.325 388.356 524.208 393.672 524.142L408.672 524.458C411.056 524.525 413.456 525.058 415.806 524.658C416.372 524.508 417.256 524.475 417.589 524.142C416.522 523.525 415.272 523.508 414.089 523.358H404.556C401.906 523.092 399.139 523.058 396.639 522.058C395.972 521.792 395.356 521.158 394.722 521.842C393.772 522.175 392.756 522.408 391.756 522.475C390.006 522.608 388.256 522.242 386.639 521.592C387.806 519.975 389.206 518.558 390.489 517.058C389.456 516.892 388.456 516.675 387.422 516.425C389.239 515.175 390.922 513.758 392.689 512.425Z" fill="#FFEC2D"/>
<path d="M470.555 529.697C466.933 531.872 464.168 528.016 461.14 526.859C458.977 528.034 458.775 531.963 456.755 533.824C454.337 536.575 451.375 533.056 451.595 530.342C448.704 532.779 447.242 538.303 442.567 537.565C440.352 535.757 438.706 531.964 437.014 536.283C435.634 538.394 431.959 541.398 430.056 538.21C429.467 535.395 428.056 532.085 426.524 536.556C425.473 539.718 422.099 542.045 418.835 540.66C417.048 539.199 420.267 533.797 417.993 534.181C414.593 536.429 412.616 542.01 407.872 541.563C406.029 539.495 408.99 535.991 406.969 533.696C404.584 536.757 401.937 541.24 397.811 541.563C395.817 539.947 397.89 535.313 396.616 534.627C392.383 537.166 387.916 541.691 382.591 540.274C384.666 532.337 393.336 529.553 400.628 528.934C413.172 527.392 426.37 530.227 438.44 525.699C440.39 524.512 445.115 522.829 443.432 520.077C441.942 517.904 447.309 518.754 447.825 516.215C447.505 513 450.288 513.443 453.007 513.161C465.195 512.635 477.234 515.202 489.386 515.638C490.304 521.559 483.736 525.717 478.448 523.888C475.922 524.298 472.134 518.081 472.877 522.603C472.368 524.977 472.724 528.112 470.555 529.698M366.855 517.574C369.677 520.156 371.655 517.087 374.293 515.966C383.139 512.923 390.857 507.606 398.466 502.294C403.076 498.479 407.073 493.531 413.264 492.294C425.342 488.642 438.18 489.085 450.304 485.715C459.537 473.075 475.217 468.566 488.353 461.3C491.302 460.384 492.442 457.956 493.384 455.276C498.398 447.361 505.228 440.348 513.306 435.557C517.128 433.468 521.688 432.266 526.015 433.221C525.705 438.374 522.749 442.942 519.179 446.506C522.1 446.442 524.611 444.596 527.563 444.7C528.574 449.989 522.863 452.757 519.824 456.05C521.516 456.444 528 456.934 524.467 458.63C519.964 461.755 514.822 463.9 510.666 467.529C514.501 468.218 514.938 469.033 511.038 470.42C508.927 471.851 504.868 472.351 504.475 475.139C507.372 476.919 503.141 478.687 501.509 479.266C498.388 479.993 495.11 481.349 499.255 483.72C497.687 486.089 494.323 486.594 491.577 486.36C492.41 489.045 493.616 492.049 490.131 493.234C482.319 499.139 473.151 503.435 463.331 504.417C475.599 505.36 488.234 503.083 498.717 496.412C500.101 494.775 507.358 493.017 503.299 491.641C501.388 490.846 497.291 489.962 497.014 488.505C502.692 485.002 509.846 486.248 515.954 484.167C516.112 482.19 511.308 482.74 509.517 482.29C505.246 481.94 505.496 480.85 509.615 480.446C514.826 479.066 520.728 478.794 525.111 475.397C521.542 473.743 517.053 475.199 513.245 473.849C519.701 471.024 527.316 470.74 533.108 466.497C535.747 463.562 529.728 464.479 527.975 464.55C524.4 465.173 522.747 463.461 526.809 461.976C533.744 456.862 542.525 453.541 547.397 446.127C548.551 444.468 550.113 439.468 546.433 441.266C541.593 442.876 537.334 448.317 531.819 446.634C542.685 438.212 553.025 428.624 560.452 416.969C560.836 413.607 555.56 413.244 554.186 415.883C547.205 422.61 540.886 430.55 531.948 434.768C540.508 426.505 547.586 416.722 553.761 406.582C555.085 403.566 558.643 399.939 556.712 396.59C553.599 394.014 549.705 396.372 548.088 399.455C542.661 406.54 538.54 414.81 531.561 420.58C537.671 408.92 543.996 396.507 544.151 383.057C544.132 380.288 543.576 376.21 539.816 376.727C536.835 377.262 537.543 381.723 536.314 383.98C533.608 393.168 532.338 403.119 526.789 411.165C528.037 403.698 530.222 395.915 528.545 388.375C527.761 385.005 522.32 386.455 523.021 389.79C516.52 422.72 494.424 451.52 465.526 468.18C452.294 475.666 437.514 480.493 422.478 482.681C418.433 483.566 414.058 483.047 410.192 484.426C400.824 491.609 395.152 503.629 383.291 507.393C377.975 510.035 371.043 510.571 367.242 515.51C366.913 516.141 366.842 516.873 366.855 517.574Z" fill="#FFEC2D"/>
<path d="M402.355 484.167C400.605 487.344 399.575 490.996 397.325 493.84C390.555 487.68 380.74 487.883 372.152 487.473C365.063 487.095 357.355 486.441 351.87 481.385C346.101 476.659 341.391 470.523 334.944 466.689C329.06 465.089 323.128 463.087 318.397 459.053C308.287 450.812 302.497 438.585 292.618 430.087C290.734 428.233 288.513 426.796 286.403 425.223C284.398 425.712 285.306 430.039 282.852 427.833C281.517 426.883 278.178 426.791 277.877 428.118C280.898 432.098 283.921 436.642 284.34 441.733C282.28 441.944 278.617 441.298 277.596 442.065C280.332 446.165 283.838 449.801 287.822 452.696C285.911 453.003 282.146 452.836 281.413 453.606C285.368 456.829 289.608 460.123 294.787 460.951C295.847 462.348 293.237 465.046 295.432 466.239C296.704 466.759 300.904 467.629 298.011 469.077C296.026 470.414 296.763 473.532 299.301 473.462C300.906 474.282 304.51 474.482 304.792 475.902C303.369 477.349 298.943 479.066 302.71 480.422C306.23 482.374 310.244 483.641 314.263 483.78C312.246 485.477 309.761 486.44 307.685 488.037C316.96 493.475 327.241 497.052 337.401 500.496C341.446 501.848 345.538 503.108 349.731 503.901C337.547 503.198 325.771 499.591 314.674 494.654C308.922 492.131 303.132 489.694 297.237 487.521C299.822 486.176 302.811 485.848 305.492 484.684C299.928 483.569 293.849 483.204 288.958 480.145C289.708 478.807 292.55 478.744 294.121 478.063C297.077 477.355 298.91 476.496 294.743 476.239C290.54 475.099 285.72 475.611 282.017 473.075C282.255 471.555 286.131 472.085 287.71 471.429C289.698 471.087 291.908 470.801 293.496 469.464C286.999 466.77 278.501 468.679 273.412 462.941C272.239 460.755 277.057 462.516 278.429 462.152C281.915 462.152 285.662 463.26 288.982 461.854C279.515 457.698 269.375 453.807 262.155 446.119C261.353 444.883 258.951 441.506 260.889 441.089C266.509 441.832 270.576 447.965 276.587 447.011C277.386 445.934 273.095 444.17 272.024 442.632C263.26 435.111 254.754 426.95 248.612 417.099C248.189 413.809 253.36 413.316 254.722 415.857C261.424 422.312 267.479 429.845 275.827 434.252C278.789 435.689 274.126 432.552 273.505 431.415C265.791 422.458 258.448 412.998 253.057 402.449C252.092 400.548 250.493 397.106 253.38 396.094C256.267 394.648 259.131 396.618 260.594 399.097C266.265 406.25 270.438 414.751 277.503 420.71C271.484 409.03 265.058 396.736 264.903 383.296C265.044 380.691 265.212 376.75 268.745 376.857C271.711 376.407 271.243 380.205 272.215 382.016C275.138 391.889 276.412 402.576 282.276 411.294C280.981 403.969 279.074 396.426 280.341 388.98C280.633 386.535 283.385 385.795 285.182 387.273C286.634 390.828 286.937 395.218 288.26 399.019C295.79 424.779 312.698 447.435 334.731 462.639C352.877 475.084 374.412 482.514 396.391 483.809C398.376 483.982 400.369 484.042 402.357 484.164" fill="#FFEC2D"/>
<path d="M510.001 525.128C510.655 525.128 511.184 524.598 511.184 523.944C511.184 523.29 510.655 522.76 510.001 522.76C509.347 522.76 508.817 523.29 508.817 523.944C508.817 524.598 509.347 525.128 510.001 525.128Z" fill="#FFEC2D"/>
<path d="M509.901 524.236C510.167 524.236 510.383 524.02 510.383 523.754C510.383 523.488 510.167 523.271 509.901 523.271C509.634 523.271 509.418 523.488 509.418 523.754C509.418 524.02 509.634 524.236 509.901 524.236Z" fill="#FFEC2D" stroke="#FFEC2D" stroke-width="0.1905"/>
<path d="M67.0009 200.961C67.0009 200.961 62.1959 196.924 60.5639 198.949C57.9389 202.207 68.6339 218.433 68.6339 224.147C68.6339 233.526 62.3754 236.077 54.6474 237.417C49.4619 238.316 41.0179 237.041 41.0179 237.041C42.6079 234.904 43.6419 234.275 46.3209 234.104C43.3384 232.556 40.3014 229.194 40.3014 223.962C40.3014 215.893 43.6229 212.567 43.6229 203.471C43.6229 198.424 39.4849 192 39.4849 192C46.7994 192.732 50.4244 199.504 48.3619 204.917C49.5259 205.084 50.5829 204.822 51.4909 203.962C52.0259 205.462 51.1809 207.203 50.0494 208.704C50.9609 209.191 51.6304 208.899 53.0824 208.599C52.9444 210.145 52.0184 211.787 49.7524 213.333C56.3279 211.626 60.3739 216.209 60.3739 221.007C60.3739 224.631 57.8344 227.228 55.3519 227.228C54.5499 227.228 53.3714 226.898 52.7069 226.401C52.2379 227.399 52.4794 228.733 52.9619 229.731C51.1429 229.25 49.9879 228.169 50.8099 225.92C49.4124 225.792 48.3009 225.32 47.5449 224.42C48.3109 223.439 49.4734 222.874 50.8099 222.92C49.7924 220.82 50.9264 219.645 52.5789 218.692C52.5789 218.692 51.5279 222.92 54.2114 222.92C55.4179 222.92 56.5174 222.527 56.5174 220.749C56.5174 219.2 55.1639 217.055 52.0344 217.192C48.9049 217.328 46.3684 219.349 46.3684 224.345C46.3684 228.953 50.0854 231.244 54.9834 231.392C59.3999 231.529 62.7334 229.136 62.7334 224.58C62.7334 218.516 53.9794 204.694 53.9794 199.29C53.9794 195.235 57.6254 192.972 61.1929 192.972C65.8189 192.972 69.7219 197.552 69.7219 197.552L67.0044 200.96L67.0009 200.961Z" fill="#FFEC2D"/>
<path d="M68.011 310.571C68.011 320.706 58.912 325.915 51.762 325.915C42.129 325.915 37 320.155 37 312.616C37 308.342 37.783 305.66 39.7535 301.57L61.83 255.743C62.6015 254.149 62.8505 252.334 62.8505 249.674C62.8505 245.566 58.8655 242.208 54.687 242.105C50.878 242.01 46.728 245.656 46.728 249.811C46.728 254.857 49.346 257.107 52.034 257.107C55.342 257.107 56.66 255.747 56.66 253.425C56.66 251.806 55.8785 251.106 54.755 251.106C51.918 251.106 52.7145 254.925 52.7145 254.925C51.3055 254.617 50.1475 253.177 50.8095 251.379C49.7396 251.142 48.7738 250.569 48.0545 249.742C48.815 249.005 49.6875 248.436 50.8095 248.242C50.145 246.048 51.033 244.977 52.9525 244.526C52.565 245.369 52.552 246.146 52.6805 246.878C55.702 246.019 60.3335 247.386 60.3335 252.606C60.3335 257.789 56.7365 262.153 49.993 261.062C51.597 261.829 52.413 263.399 52.578 265.154C51.353 264.677 49.993 264.609 49.993 264.609C50.7815 265.999 51.8765 267.197 51.8295 269.927C50.5795 269.359 49.418 268.306 47.816 268.972C50.331 273.921 47.241 280.728 39.3805 282.339C42.2575 278.966 43.666 275.325 43.666 271.7C43.666 259.952 40.401 257.978 40.401 249.81C40.401 246.393 42.1575 242.703 45.639 240.195V240.331C43.338 239.715 41.864 238.582 41.0165 237.042C46.274 235.551 53.9165 235.579 58.0195 237.193C62.7365 237.74 66.0295 241.358 66.9995 243.195C67.9695 245.032 69.854 251.672 66.9995 257.651L44.5505 305.25C43.5765 307.333 42.9855 309.542 42.9855 311.933C42.9855 317.948 48.4955 320.048 51.6255 320.048C55.367 320.048 59.1765 317.198 59.1765 313.638C59.1765 311.383 57.9515 310.024 56.183 310.024C51.954 310.024 52.211 313.622 53.054 315.889C50.422 314.705 48.892 312.593 49.3125 310.365C47.8225 310.161 46.404 309.454 45.095 307.978C46.125 306.678 47.381 305.695 49.3125 305.66C48.469 302.204 50.7825 300.742 53.054 299.932C52.3355 302.468 51.864 305.387 56.183 305.387C59.333 305.387 61.812 305.933 63.258 307.979L63.598 294.476C63.78 290.427 58.179 290.543 54.619 291.748C55.9625 287.085 58.718 284.563 65.095 285.202C63.547 284.554 61.8975 283.098 61.8975 280.292C61.8985 276.495 64.9785 272.289 67.0005 271.046L68.0115 310.571L68.011 310.571Z" fill="#FFEC2D"/>
<path d="M68.011 340.97C68.011 330.835 58.912 325.626 51.762 325.626C42.129 325.626 37 331.386 37 338.925C37 343.199 37.783 345.881 39.7535 349.971L61.83 395.798C62.6015 397.392 62.8505 399.207 62.8505 401.867C62.8505 405.975 58.8655 409.333 54.687 409.436C50.878 409.531 46.728 405.885 46.728 401.73C46.728 396.684 49.346 394.434 52.034 394.434C55.342 394.434 56.66 395.794 56.66 398.116C56.66 399.735 55.8785 400.435 54.755 400.435C51.918 400.435 52.7145 396.616 52.7145 396.616C51.3055 396.924 50.1475 398.364 50.8095 400.162C49.7396 400.399 48.7738 400.972 48.0545 401.799C48.815 402.536 49.6875 403.105 50.8095 403.299C50.145 405.493 51.033 406.564 52.9525 407.015C52.565 406.172 52.552 405.395 52.6805 404.663C55.702 405.522 60.3335 404.155 60.3335 398.935C60.3335 393.752 56.7365 389.388 49.993 390.479C51.597 389.712 52.413 388.142 52.578 386.387C51.353 386.864 49.993 386.932 49.993 386.932C50.7815 385.542 51.8765 384.344 51.8295 381.614C50.5795 382.182 49.418 383.235 47.816 382.569C50.331 377.62 47.241 370.813 39.3805 369.202C42.2575 372.575 43.666 376.216 43.666 379.841C43.666 391.589 40.401 393.563 40.401 401.731C40.401 405.148 42.1575 408.838 45.639 411.346V411.21C43.338 411.826 41.864 412.959 41.0165 414.499C46.274 415.99 53.9165 415.962 58.0195 414.348C62.7365 413.801 66.0295 410.183 66.9995 408.346C67.9695 406.509 69.854 399.869 66.9995 393.89L44.5505 346.291C43.5765 344.208 42.9855 341.999 42.9855 339.608C42.9855 333.593 48.4955 331.493 51.6255 331.493C55.367 331.493 59.1765 334.343 59.1765 337.903C59.1765 340.158 57.9515 341.517 56.183 341.517C51.954 341.517 52.211 337.919 53.054 335.652C50.422 336.836 48.892 338.948 49.3125 341.176C47.8225 341.38 46.404 342.087 45.095 343.563C46.125 344.863 47.381 345.846 49.3125 345.881C48.469 349.337 50.7825 350.799 53.054 351.609C52.3355 349.073 51.864 346.154 56.183 346.154C59.333 346.154 61.812 345.608 63.258 343.562L63.598 357.065C63.78 361.114 58.179 360.998 54.619 359.793C55.9625 364.456 58.718 366.978 65.095 366.339C63.547 366.987 61.8975 368.443 61.8975 371.249C61.8985 375.046 64.9785 379.252 67.0005 380.495L68.0115 340.97L68.011 340.97Z" fill="#FFEC2D"/>
<path d="M67.0011 200.961C67.0011 200.961 71.8061 196.924 73.4381 198.949C76.0631 202.207 65.3681 218.433 65.3681 224.147C65.3681 233.526 71.6266 236.077 79.3546 237.417C84.5401 238.316 92.9841 237.041 92.9841 237.041C91.3941 234.904 90.3601 234.275 87.6811 234.104C90.6636 232.556 93.7006 229.194 93.7006 223.962C93.7006 215.893 90.3791 212.567 90.3791 203.471C90.3791 198.424 94.5171 192 94.5171 192C87.2026 192.732 83.5776 199.504 85.6401 204.917C84.4761 205.084 83.4191 204.822 82.5111 203.962C81.9761 205.462 82.8211 207.203 83.9526 208.704C83.0411 209.191 82.3716 208.899 80.9196 208.599C81.0576 210.145 81.9836 211.787 84.2496 213.333C77.6741 211.626 73.6281 216.209 73.6281 221.007C73.6281 224.631 76.1676 227.228 78.6501 227.228C79.4521 227.228 80.6306 226.898 81.2951 226.401C81.7641 227.399 81.5226 228.733 81.0401 229.731C82.8591 229.25 84.0141 228.169 83.1921 225.92C84.5896 225.792 85.7011 225.32 86.4571 224.42C85.6911 223.439 84.5286 222.874 83.1921 222.92C84.2096 220.82 83.0756 219.645 81.4231 218.692C81.4231 218.692 82.4741 222.92 79.7906 222.92C78.5841 222.92 77.4846 222.527 77.4846 220.749C77.4846 219.2 78.8381 217.055 81.9676 217.192C85.0971 217.328 87.6336 219.349 87.6336 224.345C87.6336 228.953 83.9166 231.244 79.0186 231.392C74.6021 231.529 71.2686 229.136 71.2686 224.58C71.2686 218.516 80.0226 204.694 80.0226 199.29C80.0226 195.235 76.3766 192.972 72.8091 192.972C68.1831 192.972 64.2801 197.552 64.2801 197.552L66.9976 200.96L67.0011 200.961Z" fill="#FFEC2D"/>
<path d="M65.991 310.571C65.991 320.706 75.09 325.915 82.24 325.915C91.873 325.915 97.002 320.155 97.002 312.616C97.002 308.342 96.219 305.66 94.2485 301.57L72.172 255.743C71.4005 254.149 71.1515 252.334 71.1515 249.674C71.1515 245.566 75.1365 242.208 79.315 242.105C83.124 242.01 87.274 245.656 87.274 249.811C87.274 254.857 84.656 257.107 81.968 257.107C78.66 257.107 77.342 255.747 77.342 253.425C77.342 251.806 78.1235 251.106 79.247 251.106C82.084 251.106 81.2875 254.925 81.2875 254.925C82.6965 254.617 83.8545 253.177 83.1925 251.379C84.2624 251.142 85.2281 250.569 85.9475 249.742C85.187 249.005 84.3145 248.436 83.1925 248.242C83.857 246.048 82.969 244.977 81.0495 244.526C81.437 245.369 81.45 246.146 81.3215 246.878C78.3 246.019 73.6685 247.386 73.6685 252.606C73.6685 257.789 77.2655 262.153 84.009 261.062C82.405 261.829 81.589 263.399 81.424 265.154C82.649 264.677 84.009 264.609 84.009 264.609C83.2205 265.999 82.1255 267.197 82.1725 269.927C83.4225 269.359 84.584 268.306 86.186 268.972C83.671 273.921 86.761 280.728 94.6215 282.339C91.7445 278.966 90.336 275.325 90.336 271.7C90.336 259.952 93.601 257.978 93.601 249.81C93.601 246.393 91.8445 242.703 88.363 240.195V240.331C90.664 239.715 92.138 238.582 92.9855 237.042C87.728 235.551 80.0855 235.579 75.9825 237.193C71.2655 237.74 67.9725 241.358 67.0025 243.195C66.0325 245.032 64.148 251.672 67.0025 257.651L89.4515 305.25C90.4255 307.333 91.0165 309.542 91.0165 311.933C91.0165 317.948 85.5065 320.048 82.3765 320.048C78.635 320.048 74.8255 317.198 74.8255 313.638C74.8255 311.383 76.0505 310.024 77.819 310.024C82.048 310.024 81.791 313.622 80.948 315.889C83.58 314.705 85.11 312.593 84.6895 310.365C86.1795 310.161 87.598 309.454 88.907 307.978C87.877 306.678 86.621 305.695 84.6895 305.66C85.533 302.204 83.2195 300.742 80.948 299.932C81.6665 302.468 82.138 305.387 77.819 305.387C74.669 305.387 72.19 305.933 70.744 307.979L70.404 294.476C70.222 290.427 75.823 290.543 79.383 291.748C78.0395 287.085 75.284 284.563 68.907 285.202C70.455 284.554 72.1045 283.098 72.1045 280.292C72.1035 276.495 69.0235 272.289 67.0015 271.046L65.9905 310.571L65.991 310.571Z" fill="#FFEC2D"/>
<path d="M65.991 340.97C65.991 330.835 75.09 325.626 82.24 325.626C91.873 325.626 97.002 331.386 97.002 338.925C97.002 343.199 96.219 345.881 94.2485 349.971L72.172 395.798C71.4005 397.392 71.1515 399.207 71.1515 401.867C71.1515 405.975 75.1365 409.333 79.315 409.436C83.124 409.531 87.274 405.885 87.274 401.73C87.274 396.684 84.656 394.434 81.968 394.434C78.66 394.434 77.342 395.794 77.342 398.116C77.342 399.735 78.1235 400.435 79.247 400.435C82.084 400.435 81.2875 396.616 81.2875 396.616C82.6965 396.924 83.8545 398.364 83.1925 400.162C84.2624 400.399 85.2281 400.972 85.9475 401.799C85.187 402.536 84.3145 403.105 83.1925 403.299C83.857 405.493 82.969 406.564 81.0495 407.015C81.437 406.172 81.45 405.395 81.3215 404.663C78.3 405.522 73.6685 404.155 73.6685 398.935C73.6685 393.752 77.2655 389.388 84.009 390.479C82.405 389.712 81.589 388.142 81.424 386.387C82.649 386.864 84.009 386.932 84.009 386.932C83.2205 385.542 82.1255 384.344 82.1725 381.614C83.4225 382.182 84.584 383.235 86.186 382.569C83.671 377.62 86.761 370.813 94.6215 369.202C91.7445 372.575 90.336 376.216 90.336 379.841C90.336 391.589 93.601 393.563 93.601 401.731C93.601 405.148 91.8445 408.838 88.363 411.346V411.21C90.664 411.826 92.138 412.959 92.9855 414.499C87.728 415.99 80.0855 415.962 75.9825 414.348C71.2655 413.801 67.9725 410.183 67.0025 408.346C66.0325 406.509 64.148 399.869 67.0025 393.89L89.4515 346.291C90.4255 344.208 91.0165 341.999 91.0165 339.608C91.0165 333.593 85.5065 331.493 82.3765 331.493C78.635 331.493 74.8255 334.343 74.8255 337.903C74.8255 340.158 76.0505 341.517 77.819 341.517C82.048 341.517 81.791 337.919 80.948 335.652C83.58 336.836 85.11 338.948 84.6895 341.176C86.1795 341.38 87.598 342.087 88.907 343.563C87.877 344.863 86.621 345.846 84.6895 345.881C85.533 349.337 83.2195 350.799 80.948 351.609C81.6665 349.073 82.138 346.154 77.819 346.154C74.669 346.154 72.19 345.608 70.744 343.562L70.404 357.065C70.222 361.114 75.823 360.998 79.383 359.793C78.0395 364.456 75.284 366.978 68.907 366.339C70.455 366.987 72.1045 368.443 72.1045 371.249C72.1035 375.046 69.0235 379.252 67.0015 380.495L65.9905 340.97L65.991 340.97Z" fill="#FFEC2D"/>
<path d="M67.0009 628.039C67.0009 628.039 62.1959 632.077 60.5639 630.052C57.9389 626.794 68.6339 610.568 68.6339 604.854C68.6339 595.474 62.3754 592.924 54.6474 591.584C49.4619 590.685 41.0179 591.96 41.0179 591.96C42.6079 594.097 43.6419 594.726 46.3209 594.897C43.3384 596.445 40.3014 599.807 40.3014 605.039C40.3014 613.108 43.6229 616.434 43.6229 625.53C43.6229 630.577 39.4849 637.001 39.4849 637.001C46.7994 636.269 50.4244 629.496 48.3619 624.084C49.5259 623.916 50.5829 624.179 51.4909 625.039C52.0259 623.539 51.1809 621.797 50.0494 620.297C50.9609 619.81 51.6304 620.102 53.0824 620.402C52.9444 618.856 52.0184 617.214 49.7524 615.668C56.3279 617.375 60.3739 612.792 60.3739 607.994C60.3739 604.37 57.8344 601.773 55.3519 601.773C54.5499 601.773 53.3714 602.103 52.7069 602.6C52.2379 601.602 52.4794 600.267 52.9619 599.27C51.1429 599.751 49.9879 600.831 50.8099 603.08C49.4124 603.209 48.3009 603.681 47.5449 604.58C48.3109 605.562 49.4734 606.127 50.8099 606.081C49.7924 608.181 50.9264 609.356 52.5789 610.309C52.5789 610.309 51.5279 606.081 54.2114 606.081C55.4179 606.081 56.5174 606.474 56.5174 608.252C56.5174 609.801 55.1639 611.946 52.0344 611.809C48.9049 611.673 46.3684 609.652 46.3684 604.656C46.3684 600.048 50.0854 597.756 54.9834 597.608C59.3999 597.472 62.7334 599.864 62.7334 604.421C62.7334 610.485 53.9794 624.307 53.9794 629.711C53.9794 633.766 57.6254 636.029 61.1929 636.029C65.8189 636.029 69.7219 631.448 69.7219 631.448L67.0044 628.041L67.0009 628.039Z" fill="#FFEC2D"/>
<path d="M68.011 518.431C68.011 508.296 58.912 503.087 51.762 503.087C42.129 503.087 37 508.846 37 516.386C37 520.66 37.783 523.341 39.7535 527.432L61.83 573.258C62.6015 574.852 62.8505 576.667 62.8505 579.327C62.8505 583.436 58.8655 586.794 54.687 586.897C50.878 586.992 46.728 583.346 46.728 579.191C46.728 574.144 49.346 571.894 52.034 571.894C55.342 571.894 56.66 573.254 56.66 575.577C56.66 577.195 55.8785 577.895 54.755 577.895C51.918 577.895 52.7145 574.076 52.7145 574.076C51.3055 574.385 50.1475 575.825 50.8095 577.623C49.7396 577.859 48.7738 578.433 48.0545 579.259C48.815 579.997 49.6875 580.566 50.8095 580.759C50.145 582.953 51.033 584.025 52.9525 584.476C52.565 583.632 52.552 582.856 52.6805 582.123C55.702 582.983 60.3335 581.615 60.3335 576.395C60.3335 571.213 56.7365 566.849 49.993 567.939C51.597 567.172 52.413 565.603 52.578 563.848C51.353 564.325 49.993 564.393 49.993 564.393C50.7815 563.003 51.8765 561.804 51.8295 559.074C50.5795 559.643 49.418 560.695 47.816 560.029C50.331 555.08 47.241 548.273 39.3805 546.663C42.2575 550.035 43.666 553.676 43.666 557.301C43.666 569.049 40.401 571.024 40.401 579.191C40.401 582.609 42.1575 586.299 45.639 588.807V588.67C43.338 589.287 41.864 590.42 41.0165 591.959C46.274 593.45 53.9165 593.423 58.0195 591.808C62.7365 591.262 66.0295 587.643 66.9995 585.806C67.9695 583.969 69.854 577.33 66.9995 571.35L44.5505 523.751C43.5765 521.669 42.9855 519.46 42.9855 517.068C42.9855 511.053 48.4955 508.953 51.6255 508.953C55.367 508.953 59.1765 511.803 59.1765 515.363C59.1765 517.619 57.9515 518.977 56.183 518.977C51.954 518.977 52.211 515.38 53.054 513.113C50.422 514.296 48.892 516.409 49.3125 518.636C47.8225 518.841 46.404 519.547 45.095 521.023C46.125 522.323 47.381 523.307 49.3125 523.342C48.469 526.798 50.7825 528.259 53.054 529.07C52.3355 526.533 51.864 523.614 56.183 523.614C59.333 523.614 61.812 523.069 63.258 521.023L63.598 534.525C63.78 538.574 58.179 538.459 54.619 537.253C55.9625 541.917 58.718 544.438 65.095 543.8C63.547 544.447 61.8975 545.904 61.8975 548.71C61.8985 552.506 64.9785 556.712 67.0005 557.956L68.0115 518.43L68.011 518.431Z" fill="#FFEC2D"/>
<path d="M68.011 488.031C68.011 498.166 58.912 503.375 51.762 503.375C42.129 503.375 37 497.615 37 490.076C37 485.802 37.783 483.12 39.7535 479.03L61.83 433.203C62.6015 431.609 62.8505 429.794 62.8505 427.134C62.8505 423.026 58.8655 419.668 54.687 419.565C50.878 419.47 46.728 423.116 46.728 427.271C46.728 432.317 49.346 434.567 52.034 434.567C55.342 434.567 56.66 433.207 56.66 430.885C56.66 429.266 55.8785 428.566 54.755 428.566C51.918 428.566 52.7145 432.385 52.7145 432.385C51.3055 432.077 50.1475 430.637 50.8095 428.839C49.7396 428.602 48.7738 428.029 48.0545 427.202C48.815 426.465 49.6875 425.896 50.8095 425.702C50.145 423.508 51.033 422.437 52.9525 421.986C52.565 422.829 52.552 423.606 52.6805 424.338C55.702 423.479 60.3335 424.846 60.3335 430.066C60.3335 435.249 56.7365 439.613 49.993 438.522C51.597 439.289 52.413 440.859 52.578 442.614C51.353 442.137 49.993 442.069 49.993 442.069C50.7815 443.459 51.8765 444.657 51.8295 447.387C50.5795 446.819 49.418 445.766 47.816 446.432C50.331 451.381 47.241 458.188 39.3805 459.799C42.2575 456.426 43.666 452.785 43.666 449.16C43.666 437.412 40.401 435.438 40.401 427.27C40.401 423.853 42.1575 420.163 45.639 417.655V417.791C43.338 417.175 41.864 416.042 41.0165 414.502C46.274 413.011 53.9165 413.039 58.0195 414.653C62.7365 415.2 66.0295 418.818 66.9995 420.655C67.9695 422.492 69.854 429.132 66.9995 435.111L44.5505 482.71C43.5765 484.793 42.9855 487.002 42.9855 489.393C42.9855 495.408 48.4955 497.508 51.6255 497.508C55.367 497.508 59.1765 494.658 59.1765 491.098C59.1765 488.843 57.9515 487.484 56.183 487.484C51.954 487.484 52.211 491.082 53.054 493.349C50.422 492.165 48.892 490.053 49.3125 487.825C47.8225 487.621 46.404 486.914 45.095 485.438C46.125 484.138 47.381 483.155 49.3125 483.12C48.469 479.664 50.7825 478.202 53.054 477.392C52.3355 479.928 51.864 482.847 56.183 482.847C59.333 482.847 61.812 483.393 63.258 485.439L63.598 471.936C63.78 467.887 58.179 468.003 54.619 469.208C55.9625 464.545 58.718 462.023 65.095 462.662C63.547 462.014 61.8975 460.558 61.8975 457.752C61.8985 453.955 64.9785 449.749 67.0005 448.506L68.0115 488.031L68.011 488.031Z" fill="#FFEC2D"/>
<path d="M67.0011 628.039C67.0011 628.039 71.8061 632.077 73.4381 630.052C76.0631 626.794 65.3681 610.568 65.3681 604.854C65.3681 595.474 71.6266 592.924 79.3546 591.584C84.5401 590.685 92.9841 591.96 92.9841 591.96C91.3941 594.097 90.3601 594.726 87.6811 594.897C90.6636 596.445 93.7006 599.807 93.7006 605.039C93.7006 613.108 90.3791 616.434 90.3791 625.53C90.3791 630.577 94.5171 637.001 94.5171 637.001C87.2026 636.269 83.5776 629.496 85.6401 624.084C84.4761 623.916 83.4191 624.179 82.5111 625.039C81.9761 623.539 82.8211 621.797 83.9526 620.297C83.0411 619.81 82.3716 620.102 80.9196 620.402C81.0576 618.856 81.9836 617.214 84.2496 615.668C77.6741 617.375 73.6281 612.792 73.6281 607.994C73.6281 604.37 76.1676 601.773 78.6501 601.773C79.4521 601.773 80.6306 602.103 81.2951 602.6C81.7641 601.602 81.5226 600.267 81.0401 599.27C82.8591 599.751 84.0141 600.831 83.1921 603.08C84.5896 603.209 85.7011 603.681 86.4571 604.58C85.6911 605.562 84.5286 606.127 83.1921 606.081C84.2096 608.181 83.0756 609.356 81.4231 610.309C81.4231 610.309 82.4741 606.081 79.7906 606.081C78.5841 606.081 77.4846 606.474 77.4846 608.252C77.4846 609.801 78.8381 611.946 81.9676 611.809C85.0971 611.673 87.6336 609.652 87.6336 604.656C87.6336 600.048 83.9166 597.756 79.0186 597.608C74.6021 597.472 71.2686 599.864 71.2686 604.421C71.2686 610.485 80.0226 624.307 80.0226 629.711C80.0226 633.766 76.3766 636.029 72.8091 636.029C68.1831 636.029 64.2801 631.448 64.2801 631.448L66.9976 628.041L67.0011 628.039Z" fill="#FFEC2D"/>
<path d="M65.991 518.431C65.991 508.296 75.09 503.087 82.24 503.087C91.873 503.087 97.002 508.846 97.002 516.386C97.002 520.66 96.219 523.341 94.2485 527.432L72.172 573.258C71.4005 574.852 71.1515 576.667 71.1515 579.327C71.1515 583.436 75.1365 586.794 79.315 586.897C83.124 586.992 87.274 583.346 87.274 579.191C87.274 574.144 84.656 571.894 81.968 571.894C78.66 571.894 77.342 573.254 77.342 575.577C77.342 577.195 78.1235 577.895 79.247 577.895C82.084 577.895 81.2875 574.076 81.2875 574.076C82.6965 574.385 83.8545 575.825 83.1925 577.623C84.2624 577.859 85.2281 578.433 85.9475 579.259C85.187 579.997 84.3145 580.566 83.1925 580.759C83.857 582.953 82.969 584.025 81.0495 584.476C81.437 583.632 81.45 582.856 81.3215 582.123C78.3 582.983 73.6685 581.615 73.6685 576.395C73.6685 571.213 77.2655 566.849 84.009 567.939C82.405 567.172 81.589 565.603 81.424 563.848C82.649 564.325 84.009 564.393 84.009 564.393C83.2205 563.003 82.1255 561.804 82.1725 559.074C83.4225 559.643 84.584 560.695 86.186 560.029C83.671 555.08 86.761 548.273 94.6215 546.663C91.7445 550.035 90.336 553.676 90.336 557.301C90.336 569.049 93.601 571.024 93.601 579.191C93.601 582.609 91.8445 586.299 88.363 588.807V588.67C90.664 589.287 92.138 590.42 92.9855 591.959C87.728 593.45 80.0855 593.423 75.9825 591.808C71.2655 591.262 67.9725 587.643 67.0025 585.806C66.0325 583.969 64.148 577.33 67.0025 571.35L89.4515 523.751C90.4255 521.669 91.0165 519.46 91.0165 517.068C91.0165 511.053 85.5065 508.953 82.3765 508.953C78.635 508.953 74.8255 511.803 74.8255 515.363C74.8255 517.619 76.0505 518.977 77.819 518.977C82.048 518.977 81.791 515.38 80.948 513.113C83.58 514.296 85.11 516.409 84.6895 518.636C86.1795 518.841 87.598 519.547 88.907 521.023C87.877 522.323 86.621 523.307 84.6895 523.342C85.533 526.798 83.2195 528.259 80.948 529.07C81.6665 526.533 82.138 523.614 77.819 523.614C74.669 523.614 72.19 523.069 70.744 521.023L70.404 534.525C70.222 538.574 75.823 538.459 79.383 537.253C78.0395 541.917 75.284 544.438 68.907 543.8C70.455 544.447 72.1045 545.904 72.1045 548.71C72.1035 552.506 69.0235 556.712 67.0015 557.956L65.9905 518.43L65.991 518.431Z" fill="#FFEC2D"/>
<path d="M65.991 488.031C65.991 498.166 75.09 503.375 82.24 503.375C91.873 503.375 97.002 497.615 97.002 490.076C97.002 485.802 96.219 483.12 94.2485 479.03L72.172 433.203C71.4005 431.609 71.1515 429.794 71.1515 427.134C71.1515 423.026 75.1365 419.668 79.315 419.565C83.124 419.47 87.274 423.116 87.274 427.271C87.274 432.317 84.656 434.567 81.968 434.567C78.66 434.567 77.342 433.207 77.342 430.885C77.342 429.266 78.1235 428.566 79.247 428.566C82.084 428.566 81.2875 432.385 81.2875 432.385C82.6965 432.077 83.8545 430.637 83.1925 428.839C84.2624 428.602 85.2281 428.029 85.9475 427.202C85.187 426.465 84.3145 425.896 83.1925 425.702C83.857 423.508 82.969 422.437 81.0495 421.986C81.437 422.829 81.45 423.606 81.3215 424.338C78.3 423.479 73.6685 424.846 73.6685 430.066C73.6685 435.249 77.2655 439.613 84.009 438.522C82.405 439.289 81.589 440.859 81.424 442.614C82.649 442.137 84.009 442.069 84.009 442.069C83.2205 443.459 82.1255 444.657 82.1725 447.387C83.4225 446.819 84.584 445.766 86.186 446.432C83.671 451.381 86.761 458.188 94.6215 459.799C91.7445 456.426 90.336 452.785 90.336 449.16C90.336 437.412 93.601 435.438 93.601 427.27C93.601 423.853 91.8445 420.163 88.363 417.655V417.791C90.664 417.175 92.138 416.042 92.9855 414.502C87.728 413.011 80.0855 413.039 75.9825 414.653C71.2655 415.2 67.9725 418.818 67.0025 420.655C66.0325 422.492 64.148 429.132 67.0025 435.111L89.4515 482.71C90.4255 484.793 91.0165 487.002 91.0165 489.393C91.0165 495.408 85.5065 497.508 82.3765 497.508C78.635 497.508 74.8255 494.658 74.8255 491.098C74.8255 488.843 76.0505 487.484 77.819 487.484C82.048 487.484 81.791 491.082 80.948 493.349C83.58 492.165 85.11 490.053 84.6895 487.825C86.1795 487.621 87.598 486.914 88.907 485.438C87.877 484.138 86.621 483.155 84.6895 483.12C85.533 479.664 83.2195 478.202 80.948 477.392C81.6665 479.928 82.138 482.847 77.819 482.847C74.669 482.847 72.19 483.393 70.744 485.439L70.404 471.936C70.222 467.887 75.823 468.003 79.383 469.208C78.0395 464.545 75.284 462.023 68.907 462.662C70.455 462.014 72.1045 460.558 72.1045 457.752C72.1035 453.955 69.0235 449.749 67.0015 448.506L65.9905 488.031L65.991 488.031Z" fill="#FFEC2D"/>
</g>
</g>
<defs>
<clipPath id="clip0_2_194">
<rect width="800" height="800" fill="white"/>
</clipPath>
</defs>
</svg>
