<svg width="387" height="959" fill="none" xmlns="http://www.w3.org/2000/svg"><path opacity=".8" d="M316.003 830.144l-93.432-93.432c-6.469-6.468-16.956-6.468-23.425 0l-93.432 93.432c-6.468 6.469-6.468 16.956 0 23.425l93.432 93.432c6.469 6.468 16.956 6.468 23.425 0l93.432-93.432c6.468-6.469 6.468-16.956 0-23.425z" stroke="#CE2329" stroke-width="4"/><path d="M166.835 689.304l-30.079-30.078a5.976 5.976 0 00-8.452 0l-30.078 30.078a5.977 5.977 0 000 8.452l30.078 30.079a5.976 5.976 0 008.452 0l30.079-30.079a5.976 5.976 0 000-8.452zM293.72 586.871l-63.895-63.894c-4.957-4.958-12.995-4.958-17.953 0l-63.894 63.894c-4.958 4.958-4.958 12.996 0 17.953l63.894 63.895c4.958 4.957 12.996 4.957 17.953 0l63.895-63.895c4.957-4.957 4.957-12.995 0-17.953z" fill="#3B3535"/><path opacity=".8" d="M308.905 670.59l-47.865-47.865a9.51 9.51 0 00-13.449 0l-47.865 47.865a9.51 9.51 0 000 13.449l47.865 47.865a9.51 9.51 0 0013.449 0l47.865-47.865a9.51 9.51 0 000-13.449z" fill="#CE2329"/><path opacity=".8" d="M351.249 461.455l-39.115-39.115a6.136 6.136 0 00-8.679 0l-39.115 39.115a6.136 6.136 0 000 8.679l39.115 39.115a6.136 6.136 0 008.679 0l39.115-39.115a6.136 6.136 0 000-8.679z" stroke="#CE2329" stroke-width="3.269"/><path d="M365.625 172.206L214.632 21.213c-11.715-11.716-30.71-11.716-42.426 0L21.213 172.206c-11.716 11.716-11.716 30.711 0 42.426l150.993 150.993c11.716 11.716 30.711 11.716 42.426 0l150.993-150.993c11.716-11.715 11.716-30.71 0-42.426z" fill="#3B3535"/><path opacity=".8" d="M245.398 387.755l-98.865-98.865c-7.671-7.671-20.108-7.671-27.779 0l-98.865 98.865c-7.67 7.671-7.67 20.108 0 27.779l98.865 98.865c7.671 7.671 20.108 7.671 27.779 0l98.865-98.865c7.671-7.671 7.671-20.108 0-27.779z" fill="#CE2329"/><path opacity=".8" d="M313.249 56.455L274.134 17.34a6.137 6.137 0 00-8.679 0L226.34 56.455a6.137 6.137 0 000 8.679l39.115 39.115a6.136 6.136 0 008.679 0l39.115-39.115a6.137 6.137 0 000-8.68z" stroke="#CE2329" stroke-width="3.269"/></svg>