<svg width="30" height="12" fill="none" xmlns="http://www.w3.org/2000/svg"><g fill="#3B3535"><path d="M10.684 9.673H8.607V8.206h8.947c.243 0 .44-.181.44-.404 0-.223-.197-.404-.44-.404h-8.95a1.14 1.14 0 00-.226-.617L7.46 5.545a1.357 1.357 0 00-1.092-.53c-.438 0-.846.198-1.092.53L4.36 6.78c-.15.201-.229.437-.229.681v1.073H.442c-.244 0-.441.181-.441.404 0 .223.197.404.44.404h3.692v1.08c0 .669.592 1.213 1.32 1.213h1.834c.707 0 1.287-.514 1.319-1.155h2.08c.243 0 .44-.181.44-.404 0-.223-.197-.404-.44-.404zm-2.958.75c0 .223-.198.405-.44.405H5.453c-.243 0-.44-.181-.44-.404V7.462a.38.38 0 01.075-.227l.917-1.236a.446.446 0 01.364-.177c.148 0 .28.065.364.177l.917 1.236a.38.38 0 01.076.227v2.962z"/><path d="M29.56 8.535h-3.692V7.462c0-.244-.079-.48-.228-.681l-.917-1.236a1.357 1.357 0 00-1.092-.53c-.438 0-.846.198-1.092.53l-.917 1.236a1.142 1.142 0 00-.226.617h-2.08c-.244 0-.441.18-.441.404 0 .223.197.404.44.404h2.078v1.467h-8.947c-.243 0-.44.18-.44.404 0 .223.197.403.44.403h8.949c.032.642.612 1.155 1.32 1.155h1.832c.729 0 1.321-.543 1.321-1.211V9.343h3.692c.243 0 .44-.18.44-.404 0-.223-.197-.404-.44-.404zm-4.572 1.889c0 .223-.198.404-.44.404h-1.834c-.243 0-.44-.181-.44-.404V7.462a.38.38 0 01.076-.227l.917-1.236a.446.446 0 01.364-.177c.148 0 .28.065.364.177l.916 1.236a.38.38 0 01.077.227v2.962zM6.369 2.976c.243 0 .44-.18.44-.404V.432c0-.223-.197-.404-.44-.404s-.44.181-.44.404v2.14c0 .223.197.404.44.404zm17.262 0c.243 0 .44-.18.44-.404V.432c0-.223-.197-.404-.44-.404s-.44.181-.44.404v2.14c0 .223.197.404.44.404zm-8.631 0c.243 0 .44-.18.44-.404V.432c0-.223-.197-.404-.44-.404s-.44.181-.44.404v2.14c0 .223.197.404.44.404zm-4.316 0c.244 0 .44-.18.44-.404V.432c0-.223-.196-.404-.44-.404-.243 0-.44.181-.44.404v2.14c0 .223.197.404.44.404zm-8.63 0c.243 0 .44-.18.44-.404V.432c0-.223-.197-.404-.44-.404-.244 0-.44.181-.44.404v2.14c0 .223.196.404.44.404zm17.262 0c.243 0 .44-.18.44-.404V.432c0-.223-.197-.404-.44-.404-.244 0-.44.181-.44.404v2.14c0 .223.196.404.44.404zm8.63 0c.244 0 .44-.18.44-.404V.432c0-.223-.196-.404-.44-.404-.243 0-.44.181-.44.404v2.14c0 .223.197.404.44.404z"/></g></svg>