<svg width="32" height="35" fill="none" xmlns="http://www.w3.org/2000/svg"><path d="M7.134 10.365h-5.9a1.2 1.2 0 00-1.2 1.2V33.8a1.2 1.2 0 001.2 1.2h5.9a1.2 1.2 0 001.2-1.2V11.564a1.2 1.2 0 00-1.2-1.2zm-.855 22.581H2.088V12.419h4.191v20.527zM4.184 0A4.188 4.188 0 000 4.184a4.188 4.188 0 004.184 4.183 4.188 4.188 0 004.183-4.183A4.188 4.188 0 004.184 0zm0 6.314a2.132 2.132 0 01-2.13-2.13c0-1.175.955-2.13 2.13-2.13 1.174 0 2.13.955 2.13 2.13 0 1.174-.956 2.13-2.13 2.13zm23.231 6.658a7.655 7.655 0 00-5.047-1.773 7.738 7.738 0 00-3.277.797v-.485c0-.633-.514-1.146-1.146-1.146h-6.008c-.632 0-1.145.513-1.145 1.146v22.343c0 .633.513 1.146 1.145 1.146h6.127c.567 0 1.026-.46 1.026-1.027V20.651c0-1.14.893-2.105 2.032-2.139a2.098 2.098 0 012.16 2.095v13.388c0 .555.45 1.005 1.005 1.005h5.888c.555 0 1.005-.45 1.005-1.005v-12.98a10.45 10.45 0 00-3.765-8.043zm1.711 19.974h-3.79v-12.34a4.154 4.154 0 00-4.15-4.149 4.154 4.154 0 00-4.15 4.15v12.34h-4.19V12.418h4.19v1.492h.002a1.027 1.027 0 001.706.769 5.69 5.69 0 013.662-1.428 5.596 5.596 0 013.693 1.296 8.4 8.4 0 013.027 6.466v11.932z" fill="#3B3535"/></svg>