<svg width="38" height="52" fill="none" xmlns="http://www.w3.org/2000/svg"><path d="M3.374 22.598c9 11.5 15.167 20.833 15.5 22.5.8-3.6 9.5-14 14.5-22.5 2.8-7.6-1.167-14.167-3.5-16.5-4.8-5.6-10-6-17.5-4-9.6 5.2-10 16.333-9 20.5z" fill="#F0EEE9"/><path d="M18.642 46.073a1.13 1.13 0 01-1.06-.74c-1.536-4.185-4.334-7.537-7.296-11.086-2.665-3.193-5.42-6.493-7.165-10.452a1.13 1.13 0 112.069-.911c1.616 3.665 4.15 6.701 6.831 9.914 2.956 3.543 6.012 7.204 7.683 11.756a1.13 1.13 0 01-1.062 1.52z" fill="#3B3535"/><path d="M18.643 46.073a1.133 1.133 0 01-1.062-1.52c1.672-4.552 4.728-8.214 7.683-11.756 2.682-3.213 5.216-6.247 6.831-9.914a1.13 1.13 0 012.07.911c-1.745 3.959-4.5 7.259-7.165 10.452-2.963 3.549-5.76 6.901-7.296 11.086a1.13 1.13 0 01-1.06.741zm0-20.066c-4.904 0-9.045-4.142-9.045-9.045 0-4.904 4.141-9.045 9.045-9.045 4.903 0 9.045 4.141 9.045 9.045 0 4.903-4.142 9.045-9.045 9.045zm0-15.829c-3.677 0-6.784 3.107-6.784 6.784 0 3.677 3.107 6.784 6.784 6.784 3.677 0 6.784-3.107 6.784-6.784 0-3.677-3.107-6.784-6.784-6.784z" fill="#3B3535"/><path d="M33.125 24.47a1.132 1.132 0 01-1.033-1.586c1.884-4.28 1.577-9.117-.843-13.273-2.421-4.153-6.477-6.806-11.13-7.277a14.787 14.787 0 00-12.261 4.63c-3.927 4.235-5 10.63-2.672 15.919a1.13 1.13 0 11-2.069.911C.431 17.694 1.67 10.311 6.2 5.427 9.798 1.547 15.093-.441 20.348.083c5.382.544 10.066 3.604 12.854 8.389 2.79 4.786 3.139 10.371.96 15.322a1.132 1.132 0 01-1.037.675zM18.695 52c-3.884 0-8.583-.286-12.868-1.817C4.14 49.58-.996 47.743.171 43.97c.324-1.048 1.16-1.994 2.487-2.81 2.094-1.29 4.424-1.89 6.444-2.35a1.13 1.13 0 01.503 2.204c-2.288.522-4.143 1.074-5.762 2.071-.834.513-1.358 1.051-1.514 1.555-.35 1.13 1.083 2.279 4.26 3.415 4.47 1.599 9.554 1.732 13.47 1.674 5.35-.082 9.469-.894 12.588-2.481.872-.443 2.833-1.607 2.215-2.824-1.024-2.017-4.52-2.807-6.833-3.33l-.35-.08a1.13 1.13 0 01-.85-1.353 1.122 1.122 0 011.353-.85l.345.078c2.726.615 6.846 1.547 8.35 4.511 1.07 2.107-.128 4.3-3.206 5.865-3.432 1.747-7.873 2.639-13.576 2.726-.451.005-.92.009-1.4.009z" fill="#3B3535"/></svg>