<svg width="215" height="59" fill="none" xmlns="http://www.w3.org/2000/svg"><g clip-path="url(#clip0_302_26654)"><mask id="a" style="mask-type:luminance" maskUnits="userSpaceOnUse" x="0" y="0" width="215" height="59"><path d="M214.25 0H.25v59h214V0z" fill="#fff"/></mask><g mask="url(#a)"><path d="M39.366 12.105l10.798 3.026c.713.209 1.426-.417 1.426-1.252V5.53c0-.522-.306-1.044-.764-1.2L39.366 0v12.105zm-.025 19.411l11.282 1.877c.56.104.968.626.968 1.252v8.609c0 .73-.56 1.304-1.223 1.252l-11.027-.99v-12zm0 15.547l23.098 1.878c.611.052 1.07.574 1.07 1.253v7.46c0 .68-.51 1.253-1.12 1.253L39.34 59V47.063zm0-31.434l23.251 6.337c.51.156.866.626.866 1.252v7.461c0 .783-.662 1.357-1.325 1.253L39.341 27.63V15.629zm15.305-8.011v7.774c0 .574.356 1.096.866 1.252l21.493 5.948c.714.21 1.427-.417 1.427-1.252v-6c0-.574-.306-1.044-.816-1.2L56.123 6.418c-.713-.261-1.477.313-1.477 1.2zM55.97 34.28l6.565 1.252c.56.104.968.626.968 1.252v7.742c0 .73-.56 1.305-1.223 1.253l-6.564-.75c-.612-.053-1.07-.627-1.07-1.253v-8.244c0-.782.662-1.356 1.324-1.252z" fill="#CE2329"/><path d="M39.366 12.105L28.517 15.13c-.713.209-1.426-.417-1.426-1.252V5.53c0-.522.306-1.044.764-1.2L39.366 0v12.105zm-.026 19.411l-11.28 1.877c-.561.104-.969.626-.969 1.252v8.609c0 .73.56 1.304 1.223 1.252l11.027-.99v-12zm0 15.544l-23.02 1.881c-.612.052-1.07.574-1.07 1.252v7.462c0 .678.51 1.252 1.12 1.252L39.34 59V47.06zm0-31.43l-23.224 6.314c-.51.157-.866.626-.866 1.253v7.46c0 .783.662 1.357 1.324 1.253l22.766-4.28v-12zM24.035 7.618v7.774c0 .574-.356 1.096-.865 1.252L1.676 22.592C.963 22.75.25 22.175.25 21.34v-6c0-.574.306-1.044.815-1.2l21.493-7.722c.713-.261 1.477.313 1.477 1.2zM10.59 23.375l-9.474 2.609c-.51.156-.866.626-.866 1.252v6.261c0 .783.662 1.409 1.375 1.252l9.474-2.034c.56-.105.916-.627.916-1.253v-6.887c0-.783-.662-1.409-1.426-1.2zM22.711 34.28L1.218 37.828c-.56.104-.968.626-.968 1.252v6.627c0 .73.56 1.304 1.222 1.252l21.494-1.93c.611-.053 1.07-.627 1.07-1.253v-8.244c0-.782-.612-1.356-1.325-1.252zM10.895 49.359l-9.575.782c-.612.053-1.07.574-1.07 1.253v6.26c0 .68.51 1.253 1.171 1.253h9.525c.611 0 1.12-.574 1.171-1.252l.051-7.044c-.05-.73-.61-1.304-1.273-1.252zM92.27 26.936L81.807 39.329l9.985 17.999c.384.689.192 1.672-.672 1.672h-5.665c-1.152 0-1.728-.59-2.304-1.672 0 0-4.128-7.672-6.625-12.196l-2.88 3.344v9.049c0 1.18-.48 1.475-1.344 1.475h-4.513c-.864 0-1.344-.295-1.344-1.475V27.034c0-1.18.48-1.475 1.344-1.475h4.609c.768 0 1.344.295 1.344 1.475v11.311l9.6-11.606c.961-1.082 1.249-1.18 2.306-1.18h6.24c.864-.099.864.885.384 1.377zm29.862 31.966h-4.801c-1.057 0-1.345-.295-1.728-1.476l-1.345-4.032h-11.329l-1.345 4.032c-.383 1.18-.767 1.476-1.728 1.476h-4.897c-1.056 0-1.056-.787-.767-1.377l10.273-30.49c.383-1.083.864-1.575 1.92-1.575h4.417c1.056 0 1.44.492 1.92 1.574l10.273 30.49c.192.591.192 1.378-.863 1.378zm-10.082-12.59l-3.457-11.213-3.456 11.213h6.913zm36.196 6.983v4.131c0 .886-.288 1.476-1.344 1.476H126.74c-1.248 0-1.344-.295-1.344-1.476v-3.934c0-1.18.575-1.967.575-1.967l12.482-18.983h-11.33c-1.056 0-1.344-.59-1.344-1.475v-4.131c0-.886.288-1.476 1.344-1.476h18.627c1.056 0 1.344.59 1.344 1.476v3.934c0 .689-.096 1.279-.575 1.967l-12.387 18.885h12.866c.96.098 1.248.688 1.248 1.573zm31.109-4.131c0 6.492-4.609 9.737-11.042 9.737H154.68c-1.057 0-1.345-.59-1.345-1.475V26.837c0-.885.288-1.475 1.345-1.475h12.961c7.585 0 10.754 4.426 10.754 9.245 0 5.115-2.977 6.787-3.361 6.984.384.196 4.321 2.065 4.321 7.573zm-7.393-.787c0-2.36-1.633-3.147-3.841-3.147h-1.056c-1.055 0-1.344-.59-1.344-1.475v-3.836c0-.886.289-1.476 1.344-1.476h.576c2.688 0 3.841-1.082 3.841-3.049 0-2.262-1.441-2.852-3.841-2.852h-7.009v19.081h7.778c2.304.098 3.552-.885 3.552-3.246zm41.86-21.441v30.589c0 1.18-.48 1.475-1.344 1.475h-4.416c-.864 0-1.345-.295-1.345-1.475V40.312l-4.608 8.852c-.192.394-.672 1.082-1.344 1.082h-2.304c-.673 0-1.056-.688-1.345-1.082l-4.705-8.852v17.213c0 1.18-.479 1.475-1.343 1.475h-4.608c-.865 0-1.345-.295-1.345-1.475v-30.59c0-.884.288-1.475 1.345-1.475h4.608c1.536 0 1.728 1.082 2.112 1.77l6.337 12.492 6.432-12.491c.289-.59.577-1.77 2.113-1.77h4.416c1.056 0 1.344.59 1.344 1.475z" fill="#3B3535"/></g></g><defs><clipPath id="clip0_302_26654"><path fill="#fff" transform="translate(.25)" d="M0 0h214v59H0z"/></clipPath></defs></svg>