<svg width="48" height="48" fill="none" xmlns="http://www.w3.org/2000/svg"><g clip-path="url(#clip0_291_26451)"><mask id="a" style="mask-type:luminance" maskUnits="userSpaceOnUse" x="0" y="0" width="48" height="48"><path d="M48 0H0v48h48V0z" fill="#fff"/></mask><g mask="url(#a)"><mask id="b" style="mask-type:luminance" maskUnits="userSpaceOnUse" x="0" y="0" width="48" height="48"><path d="M48 0H0v47.906h48V0z" fill="#fff"/></mask><g mask="url(#b)"><path d="M24.016 7.255l6.63 1.813c.437.125.875-.25.875-.75V3.315c0-.313-.188-.626-.47-.72L24.017 0v7.255zM24 18.888l6.927 1.125c.343.063.593.375.593.75v5.16c0 .438-.343.782-.75.75L24 26.08v-7.192zm0 9.318l14.181 1.125c.375.032.657.345.657.751v4.472c0 .406-.313.75-.688.75L24 35.36v-7.154zm0-18.839l14.275 3.798c.313.094.532.375.532.75v4.472c0 .469-.407.813-.814.75L24 16.56V9.367zm9.397-4.802v4.66c0 .344.219.656.532.75l13.196 3.565c.437.125.875-.25.875-.75V9.193c0-.343-.188-.625-.5-.719L34.303 3.846c-.437-.156-.906.188-.906.72zm8.255 9.445l5.816 1.594c.313.094.532.375.532.75v3.753c0 .469-.407.844-.844.75l-5.816-1.22c-.345-.062-.563-.374-.563-.75v-4.159c0-.469.437-.844.875-.719zm-7.442 6.535l13.196 2.126c.344.063.594.375.594.75v3.972c0 .438-.344.782-.75.75l-13.196-1.157c-.376-.031-.657-.375-.657-.75v-4.941c0-.469.406-.813.813-.75zm7.255 9.037l5.878.469c.376.031.657.344.657.75v3.753c0 .406-.313.75-.72.75h-5.847c-.375 0-.688-.344-.72-.75l-.03-4.222c.03-.438.375-.781.782-.75z" fill="#CE2329"/><path d="M24.016 7.255l-6.661 1.813c-.438.125-.875-.25-.875-.75V3.315c0-.313.187-.626.469-.72L24.016 0v7.255zM24 18.888l-6.926 1.125c-.344.063-.595.375-.595.75v5.16c0 .438.345.782.751.75L24 26.08v-7.192zm0 9.316L9.866 29.331c-.375.032-.657.345-.657.751v4.472c0 .406.313.75.688.75L24 35.36v-7.156zm0-18.836L9.74 13.152c-.312.093-.53.375-.53.75v4.472c0 .469.406.813.812.75L24 16.56V9.368zm-9.397-4.803v4.66c0 .344-.219.656-.531.75L.876 13.54c-.438.094-.876-.25-.876-.75V9.193c0-.343.188-.625.5-.719l13.196-4.628c.438-.156.907.188.907.72zM6.348 14.01L.532 15.572c-.313.093-.532.375-.532.75v3.753c0 .469.407.844.844.75l5.817-1.22c.344-.062.562-.375.562-.75v-4.128c0-.469-.406-.844-.875-.719zm7.442 6.535L.594 22.67c-.344.063-.594.375-.594.75v3.972c0 .438.344.782.75.75l13.197-1.157c.375-.031.656-.375.656-.75v-4.941c0-.469-.375-.813-.813-.75zm-7.255 9.037l-5.878.469c-.376.031-.657.344-.657.75v3.753c0 .406.313.75.72.75h5.847c.375 0 .688-.344.719-.75l.031-4.222c-.031-.438-.375-.781-.782-.75zm1.877 8.036l-3.409 3.94 3.252 5.723c.125.219.063.531-.219.531H6.192c-.376 0-.563-.187-.751-.531 0 0-1.345-2.44-2.158-3.878l-.938 1.064v2.876c0 .376-.156.47-.438.47H.437c-.28 0-.437-.094-.437-.47V37.65c0-.375.156-.468.438-.468h1.5c.25 0 .439.093.439.468v3.597l3.127-3.69c.312-.344.406-.375.75-.375h2.033c.281-.032.281.281.125.437zm9.725 10.163h-1.564c-.344 0-.438-.094-.563-.469l-.438-1.282h-3.69l-.437 1.282c-.125.375-.25.47-.563.47H9.287c-.344 0-.344-.251-.25-.439l3.346-9.694c.125-.343.281-.5.625-.5h1.439c.344 0 .469.157.625.5l3.346 9.694c.063.188.063.438-.281.438zm-3.284-4.002l-1.126-3.565-1.125 3.565h2.251zm11.79 2.22v1.313c0 .281-.094.47-.438.47h-6.567c-.407 0-.438-.095-.438-.47v-1.25c0-.376.188-.626.188-.626l4.065-6.035h-3.69c-.344 0-.438-.188-.438-.47v-1.313c0-.281.094-.469.438-.469h6.066c.345 0 .438.188.438.47v1.25a.975.975 0 01-.187.626l-4.034 6.004h4.19c.313.03.407.218.407.5zm10.131-1.314c0 2.064-1.5 3.096-3.596 3.096h-4.44c-.344 0-.438-.188-.438-.469v-9.725c0-.282.094-.47.438-.47h4.221c2.47 0 3.502 1.408 3.502 2.94 0 1.626-.969 2.158-1.094 2.22.125.063 1.407.657 1.407 2.408zm-2.408-.25c0-.75-.531-1-1.25-1h-.344c-.344 0-.438-.188-.438-.47v-1.22c0-.28.093-.468.438-.468h.187c.876 0 1.25-.344 1.25-.97 0-.719-.468-.907-1.25-.907h-2.283v6.067h2.533c.75.032 1.157-.281 1.157-1.032zM48 37.618v9.725c0 .376-.156.47-.438.47h-1.438c-.282 0-.438-.094-.438-.47v-5.472l-1.5 2.814c-.064.125-.22.344-.439.344h-.75c-.22 0-.344-.219-.438-.344l-1.532-2.814v5.472c0 .376-.156.47-.438.47h-1.5c-.282 0-.439-.094-.439-.47v-9.725c0-.281.094-.469.438-.469h1.5c.502 0 .564.344.689.563l2.064 3.971 2.095-3.97c.094-.189.188-.564.688-.564h1.438c.344 0 .438.188.438.47z" fill="#3B3535"/></g></g></g><defs><clipPath id="clip0_291_26451"><path fill="#fff" d="M0 0h48v48H0z"/></clipPath></defs></svg>