<svg width="30" height="30" fill="none" xmlns="http://www.w3.org/2000/svg"><g fill="#3B3535" clip-path="url(#clip0_354_44900)"><path d="M6.571 7.932a1.05 1.05 0 00-1.607.147c-5.596 8.1.28 19.114 10.045 19.114 2.401 0 4.816-.709 6.912-2.157a1.05 1.05 0 00.147-1.607L6.57 7.932zm14.85 16.381a11.3 11.3 0 01-14.418-1.316A11.3 11.3 0 015.687 8.579c.062-.09.188-.1.263-.025l4.514 4.514-1.268 2.507c-1.659 3.278.198 7.173 3.635 8.05a.44.44 0 10.218-.851c-2.891-.738-4.475-4.024-3.069-6.803l1.138-2.249 7.074 7.074a4.682 4.682 0 01-3.262 2.08.44.44 0 00.122.87 5.546 5.546 0 003.773-2.318l2.622 2.622a.172.172 0 01-.025.263z"/><path d="M15.002 0A14.9 14.9 0 004.396 4.393c-5.861 5.862-5.862 15.348 0 21.21s15.349 5.863 21.211 0A14.9 14.9 0 0030 14.998C30 6.708 23.292 0 15.002 0zm9.984 24.982c-5.518 5.518-14.45 5.519-19.968 0-5.505-5.505-5.505-14.462 0-19.968A14.027 14.027 0 0115.002.88c3.771 0 7.317 1.468 9.984 4.135 5.505 5.505 5.505 14.463 0 19.968z"/><path d="M8.083 4.96a1.05 1.05 0 00-.147 1.607l4.088 4.088 7.078 7.078 4.33 4.33a1.05 1.05 0 001.608-.146 12.179 12.179 0 00-1.418-15.539A12.179 12.179 0 008.082 4.96zm4.787 5.3l.828-1.637a.612.612 0 01.556-.342c.24 0 .448.128.556.342l3.663 7.239-5.603-5.603zm11.447 11.157a.172.172 0 01-.263.025l-4.228-4.228a5.755 5.755 0 00-.555-1.721l-3.677-7.267a1.495 1.495 0 00-1.34-.824c-.57 0-1.083.316-1.34.824l-.698 1.38-3.659-3.66a.172.172 0 01.025-.263 11.256 11.256 0 016.413-2.001c9.061 0 14.514 10.22 9.322 17.735z"/><path d="M21.113 9.713a.44.44 0 00-.568.252 1.16 1.16 0 01-1.085.758h-.002a1.174 1.174 0 01-1.045-1.704l1.047-2.071.67 1.323a.44.44 0 00.784-.397l-.769-1.52a.764.764 0 00-.684-.42.764.764 0 00-.685.42l-1.148 2.268c-.69 1.365.301 2.977 1.828 2.98h.004c.848 0 1.596-.518 1.905-1.321a.44.44 0 00-.252-.568z"/></g><defs><clipPath id="clip0_354_44900"><path fill="#fff" d="M0 0h30v30H0z"/></clipPath></defs></svg>