<svg xmlns="http://www.w3.org/2000/svg" width="55" height="77" viewBox="0 0 55 77" fill="none">
    <path d="M53.2709 27.4023C53.2709 41.6892 27.4023 75.466 27.4023 75.466C27.4023 75.466 1.53369 41.6892 1.53369 27.4023C1.53369 13.1154 13.1154 1.53369 27.4023 1.53369C41.6892 1.53369 53.2709 13.1154 53.2709 27.4023Z" fill="#CE2329"/>
    <path d="M27.4025 77C26.9252 77 26.475 76.7777 26.1848 76.3989C25.1155 75.0028 0 42.0409 0 27.4025C0 12.2927 12.2927 0 27.4025 0C42.5123 0 54.805 12.2927 54.805 27.4025C54.805 42.0409 29.6895 75.0028 28.6202 76.3989C28.33 76.7777 27.8798 77 27.4025 77ZM27.4025 3.06773C13.9842 3.06773 3.06773 13.9842 3.06773 27.4025C3.06773 32.9506 7.45412 42.8235 15.7528 55.9535C20.466 63.4107 25.2287 69.978 27.4025 72.9095C29.5763 69.978 34.3389 63.4107 39.0522 55.9535C47.3509 42.8234 51.7373 32.9506 51.7373 27.4025C51.7373 13.9842 40.8207 3.06773 27.4025 3.06773Z" fill="black"/>
    <path d="M27.4023 41.9441C35.4334 41.9441 41.9438 35.4336 41.9438 27.4026C41.9438 19.3715 35.4334 12.8611 27.4023 12.8611C19.3713 12.8611 12.8608 19.3715 12.8608 27.4026C12.8608 35.4336 19.3713 41.9441 27.4023 41.9441Z" fill="#E6E6E6"/>
    <path d="M27.4025 43.4783C18.5385 43.4783 11.3271 36.2668 11.3271 27.4028C11.3271 18.5387 18.5386 11.3274 27.4025 11.3274C36.2664 11.3274 43.4779 18.5389 43.4779 27.4028C43.4779 36.2668 36.2666 43.4783 27.4025 43.4783ZM27.4025 14.3951C20.23 14.3951 14.3949 20.2302 14.3949 27.4028C14.3949 34.5753 20.23 40.4105 27.4025 40.4105C34.575 40.4105 40.4101 34.5753 40.4101 27.4028C40.4101 20.2302 34.575 14.3951 27.4025 14.3951Z" fill="black"/>
</svg>
