<svg width="17" height="19" fill="none" xmlns="http://www.w3.org/2000/svg"><circle cx="8.5" cy="8.5" r="8.5" fill="#F0EEE9"/><path d="M7.772 11.312v-.308c0-.327.033-.616.098-.868.075-.252.196-.48.364-.686.168-.215.308-.373.42-.476.112-.112.285-.266.518-.462.196-.159.35-.285.462-.378.112-.103.233-.233.364-.392.14-.168.238-.35.294-.546.065-.196.098-.415.098-.658 0-.355-.084-.667-.252-.938a1.535 1.535 0 00-.672-.616 2.105 2.105 0 00-.98-.224c-.532 0-.985.154-1.358.462-.364.299-.56.705-.588 1.218H5.406c.037-.868.35-1.55.938-2.044.597-.504 1.311-.756 2.142-.756.43 0 .826.07 1.19.21.373.13.7.317.98.56.28.243.5.55.658.924.159.364.238.765.238 1.204 0 .28-.033.541-.098.784a2.824 2.824 0 01-.21.602 2.094 2.094 0 01-.336.49 5.35 5.35 0 01-.378.392c-.103.084-.243.2-.42.35-.168.14-.29.243-.364.308a4.211 4.211 0 00-.294.294c-.121.13-.21.252-.266.364a2.018 2.018 0 00-.224.882v.308h-1.19zM7.688 14v-1.484h1.358V14H7.688z" fill="#3B3535"/></svg>