<svg width="25" height="30" fill="none" xmlns="http://www.w3.org/2000/svg"><g fill="#CE2329"><path d="M24.572 5.522c0-.644-.522-1.166-1.166-1.166H18.95A4.668 4.668 0 0014.298 0h-4.024A4.668 4.668 0 005.62 4.356H1.166a1.166 1.166 0 00-.014 2.331l.955 18.727a4.66 4.66 0 004.657 4.425h11.044a4.66 4.66 0 004.657-4.424v-.013a1.166 1.166 0 10-2.328-.12v.014a2.33 2.33 0 01-2.329 2.212H6.764a2.33 2.33 0 01-2.329-2.212l-.95-18.609h17.6l-.65 12.767a1.166 1.166 0 102.328.12l.657-12.887a1.166 1.166 0 001.152-1.165zM7.962 4.356a2.335 2.335 0 012.312-2.025h4.024c1.181 0 2.16.884 2.311 2.025H7.963z"/><path d="M15.888 12.49l-.473 9.273a1.166 1.166 0 002.328.12l.473-9.274a1.166 1.166 0 10-2.328-.118zM7.46 11.386a1.166 1.166 0 00-1.104 1.223l.473 9.273a1.166 1.166 0 102.328-.119l-.473-9.272a1.166 1.166 0 00-1.223-1.105zm3.66 1.164v9.273a1.166 1.166 0 102.331 0V12.55a1.166 1.166 0 10-2.33 0z"/></g></svg>