<svg width="387" height="531" fill="none" xmlns="http://www.w3.org/2000/svg"><path opacity=".8" d="M365.626 296.206L214.633 145.213c-11.716-11.716-30.711-11.716-42.426 0L21.214 296.206c-11.716 11.716-11.716 30.711 0 42.426l150.993 150.993c11.715 11.716 30.71 11.716 42.426 0l150.993-150.993c11.716-11.715 11.716-30.71 0-42.426z" fill="#CE2329"/><path d="M346.858 110.306L266.8 30.248c-6.212-6.212-16.283-6.212-22.495 0l-80.058 80.058c-6.212 6.211-6.212 16.283 0 22.495l80.058 80.058c6.212 6.212 16.283 6.212 22.495 0l80.058-80.058c6.212-6.212 6.212-16.284 0-22.495z" fill="#3B3535"/><path d="M180.627 440.354l-66.434-66.435c-4.374-4.373-11.465-4.373-15.839 0L31.92 440.354c-4.374 4.374-4.374 11.465 0 15.839l66.434 66.434c4.374 4.374 11.465 4.374 15.839 0l66.434-66.434c4.374-4.374 4.374-11.465 0-15.839zm-15.309-268.702l-38.638-38.638a5.676 5.676 0 00-8.028 0l-38.639 38.638a5.678 5.678 0 000 8.029l38.639 38.638a5.676 5.676 0 008.028 0l38.638-38.638a5.678 5.678 0 000-8.029z" stroke="#3B3535" stroke-width="4"/><path opacity=".8" d="M173.052 31.581l-27.691-27.69a5.502 5.502 0 00-7.781 0l-27.69 27.69a5.501 5.501 0 000 7.78l27.69 27.692a5.502 5.502 0 007.781 0l27.691-27.691a5.503 5.503 0 000-7.78z" fill="#CE2329"/></svg>