<svg width="30" height="30" fill="none" xmlns="http://www.w3.org/2000/svg"><g clip-path="url(#clip0_354_44918)" fill="#3B3535"><path d="M27.414 20.35l-1.38-.797.811-.346a1.573 1.573 0 10-1.234-2.897l-2.988 1.273-3.478-2.008c.052-.376.054-.76 0-1.15l.817-.472a.44.44 0 10-.44-.761l-1.084.626a.44.44 0 00-.21.475c.104.468.104.945 0 1.415a.44.44 0 00.21.474l3.936 2.272a.44.44 0 00.392.024l3.189-1.36a.697.697 0 01.545 1.28l-1.62.691a.44.44 0 00-.047.785l2.141 1.236a.696.696 0 01-.695 1.205l-2.142-1.236a.44.44 0 00-.656.433l.212 1.749a.691.691 0 01-.143.512.696.696 0 01-1.238-.345l-.417-3.442a.44.44 0 00-.217-.327l-3.936-2.273a.44.44 0 00-.516.056A3.33 3.33 0 0116 18.15a.44.44 0 00-.306.418v4.544a.44.44 0 00.176.351l2.772 2.083a.695.695 0 11-.836 1.112L16.398 25.6a.44.44 0 00-.704.351v2.473a.696.696 0 01-1.39 0v-2.473a.44.44 0 00-.704-.351l-1.408 1.058a.697.697 0 01-1.107-.654.69.69 0 01.271-.458l2.772-2.083a.44.44 0 00.175-.351v-4.544a.44.44 0 00-.306-.418 3.33 3.33 0 01-1.224-.71.44.44 0 00-.516-.055l-3.936 2.273a.44.44 0 00-.217.327l-.418 3.442a.696.696 0 01-1.38-.167l.211-1.749a.44.44 0 00-.656-.433L3.72 22.314a.696.696 0 01-.696-1.205l2.142-1.236a.44.44 0 00-.048-.785l-1.62-.69a.695.695 0 11.545-1.28l3.19 1.359a.44.44 0 00.392-.024l3.935-2.272a.44.44 0 00.21-.475 3.286 3.286 0 010-1.415.44.44 0 00-.21-.474l-3.935-2.272a.44.44 0 00-.392-.024l-3.19 1.36a.695.695 0 11-.545-1.28l1.62-.691a.44.44 0 00.048-.785L3.025 8.89a.695.695 0 11.696-1.205L5.863 8.92a.44.44 0 00.656-.433l-.213-1.749a.695.695 0 111.381-.167l.418 3.442a.44.44 0 00.217.327l3.936 2.273a.44.44 0 00.516-.056A3.33 3.33 0 0114 11.849a.44.44 0 00.305-.418V6.887a.44.44 0 00-.175-.351l-2.772-2.083a.696.696 0 01.836-1.112L13.6 4.399a.44.44 0 00.703-.352V1.575a.696.696 0 011.391 0v2.473a.44.44 0 00.704.35l1.408-1.057a.697.697 0 01.836 1.112L15.87 6.536a.44.44 0 00-.175.351v1.358a.44.44 0 10.879 0V7.107l2.596-1.951a1.577 1.577 0 00.313-2.205 1.577 1.577 0 00-2.205-.313l-.704.53V1.575C16.575.706 15.867 0 15 0s-1.575.706-1.575 1.575v1.593l-.704-.53a1.573 1.573 0 10-1.892 2.518l2.596 1.95v4.017c-.354.145-.69.34-.994.576l-3.48-2.01-.391-3.223a1.573 1.573 0 10-3.126.38l.106.874-1.38-.796A1.573 1.573 0 102.586 9.65l1.38.796-.811.346a1.574 1.574 0 101.234 2.897l2.988-1.273 3.478 2.008a4.143 4.143 0 000 1.15l-3.478 2.008-2.988-1.273a1.573 1.573 0 10-1.234 2.897l.81.346-1.38.796A1.576 1.576 0 002.01 22.5a1.576 1.576 0 002.15.576l1.38-.796-.106.875c-.051.417.064.83.323 1.16.864 1.103 2.634.608 2.803-.78l.391-3.225 3.48-2.009c.303.236.64.431.994.576v4.017l-2.596 1.95a1.574 1.574 0 101.892 2.518l.704-.53v1.593c0 .869.707 1.575 1.575 1.575s1.574-.706 1.574-1.575v-1.592l.705.529a1.575 1.575 0 001.892-2.517l-2.597-1.951v-4.017c.355-.145.691-.34.995-.576l3.48 2.01.39 3.223c.17 1.395 1.944 1.878 2.803.782.26-.331.375-.744.324-1.161l-.106-.875 1.38.796a1.576 1.576 0 001.574-2.727z"/><path d="M26.845 10.793l-.81-.345 1.38-.797a1.574 1.574 0 10-1.575-2.727l-1.38.797.106-.875a1.574 1.574 0 10-3.126-.38l-.39 3.224-3.48 2.009a4.234 4.234 0 00-.994-.576v-.827a.44.44 0 10-.88 0v1.135c0 .191.124.36.306.419.45.143.874.388 1.225.708a.44.44 0 00.516.056l3.936-2.273a.44.44 0 00.217-.327l.418-3.442a.695.695 0 111.38.168l-.212 1.748a.44.44 0 00.656.434l2.142-1.237a.695.695 0 11.696 1.205l-2.142 1.236a.44.44 0 00.048.785l1.62.69a.697.697 0 01-.545 1.28l-3.19-1.359a.44.44 0 00-.392.024l-1.075.62a.44.44 0 00.44.762l.884-.511 2.988 1.273a1.574 1.574 0 101.234-2.897zM15 13.085A1.917 1.917 0 0013.085 15c0 1.056.859 1.915 1.915 1.915s1.915-.86 1.915-1.915c0-1.056-.86-1.915-1.915-1.915zm0 2.951a1.037 1.037 0 010-2.072 1.037 1.037 0 010 2.072z"/></g><defs><clipPath id="clip0_354_44918"><path fill="#fff" d="M0 0h30v30H0z"/></clipPath></defs></svg>