<svg width="52" height="52" fill="none" xmlns="http://www.w3.org/2000/svg"><path d="M10.472 8c-1.6 0-4.333 2.667-5.5 4l-2.5 5c-1.2 1.6.167 8 1 11 11 16 18 19.5 25 22 5.6 2 10.667.167 12.5-1 2.334-1.833 6.6-6 5-8-2-2.5-6-4-8-5-1.6-.8-4-.667-5-.5l-4 3c-6-1.2-11.833-9.5-14-13.5.334-.333 1.3-1.4 2.5-3 1.5-2-.5-8-1.5-10s-3.5-4-5.5-4z" fill="#F0EEE9"/><path d="M50.762 25.111a1.238 1.238 0 01-1.238-1.238c0-11.798-9.599-21.397-21.397-21.397a1.238 1.238 0 010-2.476C41.29 0 52 10.71 52 23.873c0 .683-.555 1.238-1.238 1.238z" fill="#3B3535"/><path d="M42.349 25.111a1.238 1.238 0 01-1.238-1.238c0-7.16-5.824-12.984-12.984-12.984a1.238 1.238 0 010-2.476c8.524 0 15.46 6.936 15.46 15.46 0 .683-.555 1.238-1.238 1.238zm-8.414 0a1.238 1.238 0 01-1.238-1.238c0-2.52-2.05-4.57-4.57-4.57a1.238 1.238 0 010-2.476 7.054 7.054 0 017.046 7.046c0 .683-.555 1.238-1.238 1.238zm-6.573 25.926a1.22 1.22 0 01-.45-.086C15.327 46.437 5.946 37.26 1.176 25.773a1.238 1.238 0 112.287-.95c4.512 10.867 13.388 19.55 24.35 23.82a1.24 1.24 0 01-.45 2.393z" fill="#3B3535"/><path d="M2.319 26.537c-.485 0-.946-.287-1.144-.764A15.203 15.203 0 013.598 10.09a1.237 1.237 0 111.894 1.595 12.738 12.738 0 00-2.03 13.138 1.238 1.238 0 01-1.143 1.714z" fill="#3B3535"/><path d="M4.543 12.125a1.237 1.237 0 01-.947-2.035 20.962 20.962 0 013.059-2.96 1.238 1.238 0 011.531 1.944 18.478 18.478 0 00-2.697 2.61 1.228 1.228 0 01-.946.441z" fill="#3B3535"/><path d="M13.437 10.185c-.385 0-.764-.178-1.005-.513a2.933 2.933 0 00-1.987-1.185 2.988 2.988 0 00-2.26.59 1.238 1.238 0 01-1.527-1.95 5.5 5.5 0 014.135-1.09 5.38 5.38 0 013.647 2.186 1.238 1.238 0 01-1.003 1.962z" fill="#3B3535"/><path d="M17.144 19.578a1.237 1.237 0 01-1.225-1.081A19.358 19.358 0 0012.43 9.67a1.238 1.238 0 112.008-1.449 21.845 21.845 0 013.934 9.96 1.237 1.237 0 01-1.229 1.396z" fill="#3B3535"/><path d="M16.344 22.63a1.237 1.237 0 01-.99-1.978c.463-.62.663-1.385.565-2.154a1.237 1.237 0 011.07-1.385 1.232 1.232 0 011.385 1.07 5.421 5.421 0 01-1.036 3.95 1.24 1.24 0 01-.994.497zm14.614 14.295a1.237 1.237 0 01-.763-2.214 5.403 5.403 0 013.927-1.124 1.24 1.24 0 011.1 1.363 1.249 1.249 0 01-1.362 1.1 2.949 2.949 0 00-2.14.613 1.247 1.247 0 01-.762.262z" fill="#3B3535"/><path d="M43.464 39.559c-.242 0-.487-.07-.7-.218a19.374 19.374 0 00-8.903-3.292 1.24 1.24 0 01-1.1-1.363 1.243 1.243 0 011.362-1.1A21.86 21.86 0 0144.166 37.3a1.238 1.238 0 01-.702 2.259z" fill="#3B3535"/><path d="M44.438 45.554a1.238 1.238 0 01-.988-1.982c.48-.639.673-1.438.542-2.252a2.95 2.95 0 00-1.233-1.98 1.24 1.24 0 011.408-2.038 5.482 5.482 0 012.27 3.622 5.455 5.455 0 01-1.008 4.136 1.235 1.235 0 01-.99.494z" fill="#3B3535"/><path d="M41.721 48.493a1.239 1.239 0 01-.82-2.168 18.546 18.546 0 002.552-2.754 1.239 1.239 0 011.978 1.488 20.95 20.95 0 01-2.892 3.124 1.23 1.23 0 01-.818.31z" fill="#3B3535"/><path d="M32.47 52c-1.867 0-3.75-.344-5.559-1.05a1.237 1.237 0 11.9-2.306 12.732 12.732 0 0013.09-2.319 1.238 1.238 0 111.638 1.858A15.217 15.217 0 0132.469 52zm-4.477-12.76a1.24 1.24 0 01-.764-2.213l2.965-2.316a1.239 1.239 0 011.525 1.951l-2.965 2.316a1.24 1.24 0 01-.76.263z" fill="#3B3535"/><path d="M27.99 39.24c-.192 0-.388-.045-.571-.14a34.807 34.807 0 01-14.41-14.095 1.237 1.237 0 112.17-1.194 32.333 32.333 0 0013.385 13.095 1.237 1.237 0 01-.573 2.335z" fill="#3B3535"/><path d="M14.096 25.646a1.237 1.237 0 01-.99-1.978l2.25-3.016a1.237 1.237 0 111.983 1.48l-2.25 3.016a1.235 1.235 0 01-.993.498z" fill="#3B3535"/></svg>