<svg width="36" height="27" fill="none" xmlns="http://www.w3.org/2000/svg"><path d="M34.78.465a1.27 1.27 0 00-1.42-.387L1.19 11.703A1.8 1.8 0 00.014 13.18c-.083.675.214 1.33.772 1.707l4.599 3.139a1.447 1.447 0 001.495.085l9.974-5.26-7.773 5.805a1.458 1.458 0 00-.583 1.162v5.377a1.509 1.509 0 002.342 1.257l3.493-2.317 3.436 2.342a1.81 1.81 0 002.558-.54l14.554-24a1.274 1.274 0 00-.102-1.473zM18.712 24.634l-3.558-2.426a1.448 1.448 0 00-1.62-.01l-2.982 1.978v-4.053L24.28 9.873c.613-.458.767-1.29.359-1.938a1.44 1.44 0 00-1.904-.508L6.243 16.123l-3.889-2.655L31.977 2.764l-13.264 21.87z" fill="#3B3535"/></svg>