<svg width="30" height="30" fill="none" xmlns="http://www.w3.org/2000/svg"><g fill="#3B3535" clip-path="url(#clip0_354_44869)"><path d="M10.297 24.17a.44.44 0 00-.299.546c.15.517.227 1.053.227 1.594v3.25a.44.44 0 10.88 0v-3.25c0-.624-.089-1.243-.263-1.84a.44.44 0 00-.545-.3z"/><path d="M29.11 22.364l-3.868-3.868a1.282 1.282 0 00-.799-.371V10.13a2.26 2.26 0 00-1.623-2.164V5.962h1.726a1.003 1.003 0 00.71-1.716l-1.688-1.688a.44.44 0 00-.621.621l1.688 1.689c.05.049.042.101.028.137a.118.118 0 01-.117.078H22.38a.44.44 0 00-.439.44v2.366a2.246 2.246 0 00-1.295.6 2.428 2.428 0 00-1.633-1.454V5.522a.44.44 0 00-.44-.44H16.41a.119.119 0 01-.117-.077.119.119 0 01.027-.138L20.188 1a.407.407 0 01.579 0l.73.73a.44.44 0 00.621-.622l-.73-.73a1.28 1.28 0 00-.91-.377 1.28 1.28 0 00-.912.377l-3.868 3.869a1.002 1.002 0 00-.218 1.095c.156.377.52.62.929.62h1.725V6.97a2.415 2.415 0 00-1.573.831 2.415 2.415 0 00-4.033-.322 2.418 2.418 0 00-4.464 1.287v.82a2.984 2.984 0 00-2.482 2.937V14.1c-.312.02-.602.15-.825.373L.89 18.342a1.002 1.002 0 00-.218 1.096 1 1 0 00.928.62h1.726V24.1c0 .532.433.965.965.965h2.757a.965.965 0 00.964-.965v-2.313c.02.016.038.033.058.048.422.337.794.73 1.106 1.171a.439.439 0 10.717-.508 6.612 6.612 0 00-1.275-1.35 5.747 5.747 0 01-.606-.56v-.529h1.726a1.004 1.004 0 00.711-1.716L6.58 14.475a1.312 1.312 0 00-.119-.104v-1.848c0-1.159.943-2.1 2.101-2.1h3.397c.91 0 1.668.723 1.692 1.612.013.46-.16.893-.485 1.219a1.65 1.65 0 01-1.173.485H8.827a.44.44 0 000 .88c1.178 0 2.309.347 3.28 1.005.22.805.846 1.444 1.644 1.681a5.823 5.823 0 01.933 3.17v.155a.44.44 0 10.879 0v-.154a6.724 6.724 0 00-.755-3.099 2.4 2.4 0 001.466-.816 2.42 2.42 0 002.122 1.26 2.421 2.421 0 002.25-1.534 2.245 2.245 0 002.918.144v1.944c-.05.037-.099.077-.144.122l-3.868 3.868a1.002 1.002 0 00-.218 1.096c.156.377.52.62.929.62h1.725v4.042c0 .531.433.963.965.963h.611v.476a.44.44 0 10.88 0v-.476h1.266a.965.965 0 00.964-.963v-.978a.44.44 0 10-.879 0v.978a.085.085 0 01-.085.084h-2.757a.085.085 0 01-.086-.084V23.64a.44.44 0 00-.44-.44h-2.164a.119.119 0 01-.117-.078.119.119 0 01.027-.137l3.869-3.869a.41.41 0 01.579 0l3.869 3.87c.049.048.042.1.027.136a.119.119 0 01-.116.078h-2.166a.44.44 0 00-.44.44v1.452a.44.44 0 10.88 0V24.08H28.4a1.004 1.004 0 00.71-1.716zm-19.284-3.4c.05.05.042.102.028.137a.119.119 0 01-.117.078H7.572a.44.44 0 00-.44.44v4.48a.085.085 0 01-.085.086H4.29a.085.085 0 01-.086-.086v-4.48a.44.44 0 00-.439-.44H1.599a.119.119 0 01-.116-.078.119.119 0 01.027-.137l3.869-3.869a.407.407 0 01.579 0l3.868 3.869zm-.883-9.422v-.777a1.54 1.54 0 013.079.001v.778l-.064-.002H8.943zm7.035 5.445c0 .411-.16.797-.45 1.088a1.54 1.54 0 01-2.627-1.088v-.537a2.535 2.535 0 001.628-2.44c-.028-1.034-.701-1.921-1.629-2.288v-.765a1.54 1.54 0 013.078 0v6.03zm3.957.415a1.54 1.54 0 01-1.539 1.54 1.54 1.54 0 01-1.54-1.54v-6.03a1.54 1.54 0 013.078 0v6.03zm3.629-.756c0 .758-.617 1.375-1.375 1.375a1.377 1.377 0 01-1.375-1.375v-4.517c0-.758.617-1.375 1.375-1.375s1.375.617 1.375 1.376v4.516z"/></g><defs><clipPath id="clip0_354_44869"><path fill="#fff" d="M0 0h30v30H0z"/></clipPath></defs></svg>